<svg width="30" height="30" viewBox="0 0 30 30" fill="none" xmlns="http://www.w3.org/2000/svg">
<mask id="mask0_4275_16223" style="mask-type:alpha" maskUnits="userSpaceOnUse" x="5" y="5" width="20" height="20">
<circle cx="15" cy="15" r="10" fill="#C4C4C4"/>
</mask>
<g mask="url(#mask0_4275_16223)">
<path d="M2 5H28V25H2V5Z" fill="#0067C6"/>
<path d="M2 11.6699H28V18.3325H2V11.6699Z" fill="white"/>
<path d="M12.6496 15.1146L12.9093 15.1318V15.0937H12.8043V14.972L12.9151 14.8941V14.8447L12.8005 14.9264C12.7994 14.9132 12.7949 14.9006 12.7873 14.8897C12.7798 14.8788 12.7696 14.87 12.7576 14.8643C12.7457 14.8585 12.7324 14.8559 12.7192 14.8568C12.7059 14.8577 12.6931 14.862 12.6821 14.8694C12.6305 14.9112 12.6477 15.0595 12.6362 15.1222L12.6496 15.1146ZM12.6897 15.0804C12.6897 15.0367 12.6897 14.9245 12.7222 14.8903C12.8177 14.8637 12.768 15.0329 12.7718 15.0804H12.6897ZM12.6897 14.7154L12.9418 14.7762L13.0029 14.5309H12.9647L12.9151 14.7439L12.8387 14.723L12.8807 14.5328H12.8482L12.8024 14.723L12.7356 14.7078L12.7814 14.5062L12.7432 14.4967L12.6897 14.7344V14.7154ZM12.7814 14.3788L13.0259 14.4625L13.0412 14.4263L12.9418 14.3959C12.9571 14.3408 13.0125 14.2457 12.9762 14.1887C12.9689 14.1777 12.9587 14.1689 12.9467 14.1633C12.9347 14.1576 12.9214 14.1554 12.9082 14.1567C12.895 14.1581 12.8824 14.1631 12.8719 14.171C12.8613 14.179 12.8531 14.1897 12.8482 14.202C12.8201 14.2592 12.7958 14.3183 12.7757 14.3788H12.7814ZM12.8291 14.3541C12.8502 14.318 12.8635 14.2096 12.9093 14.1963C13.001 14.1963 12.9093 14.3332 12.9093 14.3864L12.8291 14.356V14.3541ZM12.9189 14.0651C13.0335 14.1316 13.1462 14.2324 13.2245 14.0556C13.2933 13.9358 13.129 13.8826 13.0488 13.8331L13.0335 13.8635C13.1214 13.9244 13.2684 13.9624 13.1634 14.086C13.1004 14.1697 12.9991 14.0556 12.9342 14.0309C12.9255 14.0412 12.9184 14.0527 12.9132 14.0651H12.9189ZM13.1099 13.7609L13.3181 13.9149C13.3487 13.8635 13.4613 13.7666 13.4365 13.7C13.4333 13.69 13.4277 13.6809 13.4203 13.6733C13.4129 13.6658 13.4039 13.6601 13.3939 13.6566C13.384 13.6531 13.3733 13.6519 13.3628 13.6532C13.3523 13.6545 13.3422 13.6581 13.3334 13.6639C13.3028 13.4928 13.1519 13.6962 13.1099 13.7571V13.7609ZM13.1615 13.7514C13.1882 13.7304 13.2398 13.6202 13.2837 13.6392C13.3372 13.6867 13.2379 13.7495 13.2169 13.7932L13.1615 13.7514ZM13.2474 13.8122C13.2761 13.7856 13.3277 13.6867 13.3735 13.6905C13.4499 13.7323 13.3372 13.816 13.3124 13.8635L13.2474 13.816V13.8122ZM13.3448 13.4833L13.5225 13.6734L13.6753 13.5289L13.6504 13.5042L13.5282 13.6202L13.3754 13.4586L13.3448 13.4833ZM13.5741 13.2836L13.7345 13.489L13.7651 13.4662L13.6046 13.2589L13.5741 13.2836ZM13.8071 13.1239C13.5187 13.3559 14.0172 13.5042 14.021 13.2038L13.9847 13.219C13.9981 13.3236 13.8204 13.3863 13.7708 13.2988C13.7211 13.2114 13.8529 13.1087 13.9293 13.1391L13.9599 13.1163C13.9365 13.1018 13.909 13.0951 13.8816 13.0972C13.8541 13.0992 13.828 13.1099 13.8071 13.1277V13.1239ZM14.1165 12.9718L14.0878 13.2608L14.1318 13.2456V13.1543L14.2655 13.103L14.3323 13.1638L14.3724 13.1467L14.1528 12.9566L14.1165 12.9718ZM14.1528 13.0022L14.2387 13.0764L14.1394 13.1163L14.1528 13.0022ZM14.6876 12.8121L14.7048 13.0707C14.8289 13.0707 15.0199 13.0707 14.9722 12.8805C14.9168 12.7684 14.7735 12.8159 14.6857 12.8159L14.6876 12.8121ZM14.7277 12.8444C15.0008 12.7874 15.0199 13.0555 14.7392 13.0345C14.7277 13.025 14.7143 12.8482 14.7162 12.8444H14.7277ZM15.0505 12.7969L15.0352 13.0555L15.2892 13.0707V13.0326L15.0753 13.0212V12.9414L15.2663 12.9547V12.9186L15.0753 12.9053V12.8349L15.2854 12.8482V12.8159L15.0409 12.8007L15.0505 12.7969ZM15.7323 12.9053L15.6407 13.1486L15.6712 13.1581L15.7476 12.968V12.9585V12.9718L15.8393 13.2266L15.8832 13.2456L15.9749 13.0022L15.9444 12.9889L15.868 13.1791L15.7763 12.9205L15.7323 12.9053ZM16.0838 13.0555L15.9616 13.2855L15.931 13.2684L16.0475 13.0364L16.0838 13.0555ZM16.2748 13.1695C16.1678 13.0726 15.9883 13.1886 16.0647 13.3217C16.1163 13.3901 16.2175 13.449 16.2939 13.3958L16.2633 13.3654C16.1774 13.4224 16.038 13.2912 16.101 13.2095C16.164 13.1277 16.3149 13.2 16.3149 13.2855L16.3455 13.3007C16.3484 13.2734 16.3423 13.2458 16.3282 13.2222C16.3141 13.1985 16.2927 13.1801 16.2672 13.1695H16.2748ZM16.5231 13.3597L16.2519 13.47L16.2824 13.5004L16.3665 13.4662L16.4773 13.5574L16.4562 13.6487L16.4868 13.6772L16.5575 13.3901L16.5269 13.3597H16.5231ZM16.5231 13.4091L16.4925 13.5194L16.4161 13.4509L16.5231 13.4091ZM16.7313 13.5422L16.5288 13.7076L16.5537 13.7381L16.6339 13.6734L16.7122 13.7685L16.6893 13.8997L16.7198 13.9377L16.7428 13.7989C16.7532 13.8083 16.766 13.8148 16.7799 13.8175C16.7937 13.8203 16.808 13.8193 16.8213 13.8146C16.8347 13.8099 16.8464 13.8018 16.8555 13.791C16.8645 13.7802 16.8704 13.7671 16.8726 13.7533C16.8573 13.6753 16.7485 13.5897 16.7141 13.5346L16.7313 13.5422ZM16.7313 13.5955C16.9223 13.7856 16.8115 13.8654 16.6663 13.6487L16.7313 13.5955ZM17.0388 13.9567L16.7466 13.9681L16.7714 14.008H16.8631L16.9318 14.1297L16.8803 14.2096L16.9051 14.2457L17.0636 14.0023L17.0426 13.9624L17.0388 13.9567ZM17.0159 13.9966L16.9548 14.0898L16.9013 13.9985L17.0159 13.9966ZM17.2069 14.3009C17.0827 14.0042 16.8249 14.3009 17.0159 14.491H16.9987L17.0102 14.5252L17.1324 14.4815L17.0827 14.3503L17.056 14.3598L17.0923 14.4568L17.0503 14.472C16.8 14.1849 17.2585 14.1088 17.1725 14.4244C17.163 14.4244 17.184 14.4473 17.1878 14.4549C17.2063 14.4345 17.2179 14.4089 17.221 14.3816C17.2241 14.3543 17.2184 14.3267 17.205 14.3028L17.2069 14.3009ZM17.2833 14.5043C17.182 14.5214 16.9987 14.5309 17.0522 14.683C17.0713 14.8485 17.226 14.7857 17.3329 14.7629V14.7268C17.2565 14.7382 17.1018 14.8066 17.0942 14.6773C17.0483 14.5518 17.2222 14.5613 17.2967 14.5385V14.5043H17.2833ZM17.3635 14.9454L17.0942 14.8294V14.8732L17.1802 14.9093V15.0481L17.1037 15.0975V15.1394L17.3559 14.9873L17.3635 14.9454ZM17.3234 14.9701L17.226 15.031V14.9245L17.3234 14.9701ZM12.875 15.6185H12.8368L12.8769 15.7782L12.917 15.7687L12.875 15.6185ZM17.1649 15.6185H17.2012L17.161 15.7782L17.1228 15.7687L17.1649 15.6185ZM13.278 16.2802L12.9877 16.3144L13.0125 16.3505L13.1042 16.341L13.1806 16.4608L13.1367 16.5388L13.1615 16.5768L13.3028 16.3182L13.278 16.2802ZM13.257 16.3239L13.2016 16.4247L13.1405 16.3353L13.257 16.3239ZM13.3907 16.4418L13.1997 16.6129L13.2245 16.6433L13.3811 16.4931L13.299 16.7194L13.3296 16.7498L13.5511 16.6833L13.3983 16.8259L13.4232 16.8506L13.6142 16.6795L13.5779 16.6376L13.3525 16.7061L13.4365 16.4855L13.3907 16.4418ZM13.66 16.7156L13.5034 16.9228L13.7058 17.0749L13.7268 17.0445L13.5549 16.9171L13.6046 16.8563L13.7574 16.9685L13.7822 16.9381L13.6256 16.8221L13.6696 16.7669L13.8338 16.8924L13.8548 16.862L13.6638 16.7156H13.66ZM13.9159 16.9057L13.7937 17.1339L13.8243 17.151L13.8739 17.0597L13.9866 17.1206L14.0114 17.2518L14.0534 17.2727L14.0267 17.1358C14.0396 17.1405 14.0535 17.1418 14.0669 17.1393C14.0804 17.1369 14.093 17.1309 14.1034 17.1219C14.1137 17.113 14.1215 17.1014 14.1258 17.0885C14.1301 17.0755 14.1308 17.0617 14.1279 17.0483C14.0821 16.9723 13.9446 16.9304 13.893 16.8943L13.9159 16.9057ZM13.9312 16.9571C13.9675 16.9818 14.0897 17.016 14.0878 17.0731C14.0496 17.1529 13.9465 17.0445 13.8968 17.0293L13.9312 16.9571ZM14.2101 17.0578L14.1127 17.3012L14.1489 17.3126L14.2464 17.0731L14.2101 17.0578ZM14.445 17.1396C14.4229 17.1295 14.3986 17.1255 14.3744 17.128C14.3503 17.1305 14.3273 17.1394 14.3077 17.1538C14.2882 17.1681 14.2729 17.1875 14.2635 17.2097C14.254 17.232 14.2508 17.2564 14.254 17.2803C14.2827 17.3849 14.4584 17.4438 14.5291 17.3525L14.4947 17.3335C14.4221 17.4115 14.2578 17.3202 14.3037 17.2214C14.3495 17.1225 14.508 17.1586 14.5271 17.2423H14.5634C14.5568 17.2099 14.5391 17.1808 14.5133 17.16C14.4875 17.1392 14.4553 17.128 14.4221 17.1282L14.445 17.1396ZM14.7086 17.2004L14.5367 17.4343H14.5787L14.6322 17.3621L14.7716 17.383L14.8022 17.4685H14.8461L14.7506 17.1947H14.7086V17.2004ZM14.7239 17.2423L14.7602 17.3487L14.6551 17.3335L14.7239 17.2423ZM15.3198 17.2004C14.9683 17.2974 15.3694 17.6397 15.4898 17.3487H15.4478C15.4248 17.4514 15.2319 17.4514 15.2205 17.3487C15.209 17.2461 15.3656 17.1909 15.4229 17.2556L15.4592 17.2423C15.4413 17.222 15.4179 17.2073 15.3919 17.1998C15.3658 17.1924 15.3381 17.1926 15.3122 17.2004H15.3198ZM15.4936 17.17L15.5662 17.4191L15.8107 17.3468L15.7992 17.3107L15.5948 17.3716L15.57 17.2974L15.761 17.2404V17.2061L15.57 17.2613L15.549 17.1947L15.74 17.1339L15.7304 17.0997L15.4955 17.17H15.4936ZM15.7744 17.0788L15.8852 17.3164L15.9157 17.3012L15.824 17.1111L16.0762 17.2271H16.0953L16.1258 17.2099L16.0188 16.9742L15.9883 16.9894L16.0762 17.1795L15.8164 17.0597L15.7744 17.0826V17.0788ZM16.0609 16.9476L16.0838 16.978C16.0838 16.978 16.1755 16.919 16.1774 16.9152L16.2996 17.1054L16.3302 17.0845L16.2118 16.8943L16.3054 16.8335L16.2882 16.8031L16.0609 16.9476ZM16.3244 16.7574L16.5021 16.9476L16.5288 16.919L16.4582 16.8468L16.5498 16.7612L16.6854 16.7764L16.7179 16.746L16.5785 16.727C16.5872 16.7164 16.5928 16.7036 16.5948 16.69C16.5967 16.6764 16.595 16.6626 16.5897 16.6499C16.5844 16.6372 16.5758 16.6262 16.5648 16.618C16.5537 16.6099 16.5406 16.6048 16.5269 16.6034C16.4582 16.6034 16.3741 16.7156 16.3244 16.7555V16.7574ZM16.376 16.7574L16.4773 16.6662C16.5097 16.6262 16.5823 16.6509 16.5479 16.7061C16.5148 16.7476 16.477 16.7853 16.4352 16.8183L16.376 16.7574ZM16.6262 16.4532L16.7428 16.7232L16.7733 16.6909L16.7332 16.6053L16.8249 16.495L16.9147 16.5159L16.9414 16.4798L16.6549 16.419L16.6262 16.4551V16.4532ZM16.6721 16.4646L16.7867 16.4855L16.7179 16.5692L16.6721 16.4646ZM16.7408 16.3068L16.9605 16.4494L17.0732 16.2726L17.0426 16.2517L16.9509 16.3924C16.9509 16.3924 16.7599 16.2707 16.7599 16.2669L16.7408 16.3068Z" fill="#C8A400"/>
<mask id="mask1_4275_16223" style="mask-type:alpha" maskUnits="userSpaceOnUse" x="13" y="13" width="4" height="4">
<path d="M16.6897 16.1033H13.3032C13.7234 15.375 14.5734 13.9072 14.9955 13.179L16.6897 16.1033Z" fill="white"/>
</mask>
<g mask="url(#mask1_4275_16223)">
<path d="M14.9944 13.2207C14.7251 13.6846 14.0394 14.8825 13.772 15.3293H16.2168L14.9944 13.2207Z" fill="white"/>
<path opacity="0.6" d="M14.9942 13.2207L14.9312 13.3253L14.9942 14.7532L15.0572 13.3253L14.9942 13.2207Z" fill="#17C0EB" stroke="#17C0EB" stroke-width="0.01"/>
<path opacity="0.6" d="M16.4618 14.2817L16.3434 14.2551L15.0063 14.7552L16.3911 14.3749L16.4618 14.2817Z" fill="#17C0EB" stroke="#17C0EB" stroke-width="0.01"/>
<path d="M15.1917 14.6924L15.1172 14.719L15.1917 14.6981V14.6924Z" fill="white"/>
<path opacity="0.6" d="M15.9002 15.9968V15.877L15.0063 14.7571L15.799 15.9492L15.9002 15.9968Z" fill="#17C0EB" stroke="#17C0EB" stroke-width="0.01"/>
<path d="M15.1161 14.9244L15.0684 14.8635L15.1123 14.9282L15.1161 14.9244Z" fill="white"/>
<path opacity="0.6" d="M14.0894 15.9968L14.2001 15.9492L14.9928 14.7571L14.0989 15.877L14.0894 15.9968Z" fill="#17C0EB" stroke="#17C0EB" stroke-width="0.01"/>
<path d="M14.8764 14.9245L14.9203 14.8599L14.8726 14.9207L14.8764 14.9245Z" fill="white"/>
<path opacity="0.6" d="M13.5391 14.2817L13.6193 14.373L15.0021 14.7532L13.6651 14.2532L13.5391 14.2817Z" fill="#17C0EB" stroke="#17C0EB" stroke-width="0.01"/>
<path d="M14.7944 14.6925L14.8689 14.7134L14.7963 14.6868L14.7944 14.6925Z" fill="white"/>
<path opacity="0.6" d="M15.2066 13.2358L15.1302 13.3309L14.9927 14.7531L15.2543 13.348L15.2066 13.2358Z" fill="#17C0EB" stroke="#17C0EB" stroke-width="0.01"/>
<path d="M15.0229 14.5496V14.6275L15.0363 14.5496H15.0229Z" fill="white"/>
<path opacity="0.6" d="M16.5131 14.4888L16.3985 14.4451L14.9966 14.755L16.4214 14.5649L16.5131 14.4888Z" fill="#17C0EB" stroke="#17C0EB" stroke-width="0.01"/>
<path d="M15.2014 14.717L15.125 14.7342L15.2033 14.7227L15.2014 14.717Z" fill="white"/>
<path opacity="0.6" d="M15.7184 16.1107V15.989L14.9907 14.7588L15.6077 16.0479L15.7184 16.1107Z" fill="#17C0EB" stroke="#17C0EB" stroke-width="0.01"/>
<path d="M15.0909 14.9394L15.0508 14.8728L15.0851 14.9412L15.0909 14.9394Z" fill="white"/>
<path opacity="0.6" d="M13.9224 15.8577L14.0389 15.8253L14.9939 14.7549L13.9529 15.7398L13.9224 15.8577Z" fill="#17C0EB" stroke="#17C0EB" stroke-width="0.01"/>
<path d="M14.849 14.9071L14.9025 14.8481L14.8452 14.9033L14.849 14.9071Z" fill="white"/>
<path opacity="0.6" d="M13.6094 14.0839L13.6762 14.1847L14.9922 14.7551L13.7297 14.0725L13.6094 14.0839Z" fill="#17C0EB" stroke="#17C0EB" stroke-width="0.01"/>
<path d="M14.8062 14.6656L14.8787 14.696L14.81 14.6599L14.8062 14.6656Z" fill="white"/>
<path opacity="0.6" d="M15.4206 13.2815L15.3308 13.3633L14.9966 14.7531L15.4512 13.3975L15.4206 13.2815Z" fill="#17C0EB" stroke="#17C0EB" stroke-width="0.01"/>
<path d="M15.0513 14.5554L15.0322 14.6315L15.0571 14.5573L15.0513 14.5554Z" fill="white"/>
<path opacity="0.6" d="M16.5361 14.7018L16.4291 14.6428L14.9985 14.755L16.433 14.7683L16.5361 14.7018Z" fill="#17C0EB" stroke="#17C0EB" stroke-width="0.01"/>
<path opacity="0.6" d="M15.5218 16.1981L15.5448 16.0783L14.9966 14.7588L15.4282 16.1221L15.5218 16.1981Z" fill="#17C0EB" stroke="#17C0EB" stroke-width="0.01"/>
<path d="M15.0667 14.9509L15.0381 14.8787L15.061 14.9509H15.0667Z" fill="white"/>
<path opacity="0.6" d="M13.7788 15.6999L13.9011 15.6847L14.9917 14.7568L13.8227 15.5877L13.7788 15.6999Z" fill="#17C0EB" stroke="#17C0EB" stroke-width="0.01"/>
<path d="M14.8315 14.8843L14.8907 14.833L14.8276 14.8805L14.8315 14.8843Z" fill="white"/>
<path opacity="0.6" d="M13.7178 13.8975L13.7693 14.0077L14.9936 14.755L13.8476 13.9051L13.7178 13.8975Z" fill="#17C0EB" stroke="#17C0EB" stroke-width="0.01"/>
<path d="M14.8218 14.6391L14.8886 14.6809L14.8237 14.6353L14.8218 14.6391Z" fill="white"/>
<path opacity="0.6" d="M15.6212 13.3538L15.5218 13.4241L14.9966 14.7551L15.6364 13.4755L15.6212 13.3538Z" fill="#17C0EB" stroke="#17C0EB" stroke-width="0.01"/>
<path d="M15.0809 14.5669L15.0522 14.6391L15.0866 14.5688L15.0809 14.5669Z" fill="white"/>
<path opacity="0.6" d="M16.5285 14.9168L16.431 14.8426L14.9985 14.7571L16.4177 14.9681L16.5285 14.9168Z" fill="#17C0EB" stroke="#17C0EB" stroke-width="0.01"/>
<path d="M15.2038 14.7781H15.1255L15.2038 14.7876V14.7781Z" fill="white"/>
<path opacity="0.6" d="M15.316 16.2571L15.3561 16.1411L14.9951 14.7588L15.2339 16.1677L15.316 16.2571Z" fill="#17C0EB" stroke="#17C0EB" stroke-width="0.01"/>
<path d="M15.0391 14.9584L15.02 14.8823L15.0353 14.9603L15.0391 14.9584Z" fill="white"/>
<path opacity="0.6" d="M13.6592 15.5232H13.7814L14.9924 14.7627L13.7184 15.4225L13.6592 15.5232Z" fill="#17C0EB" stroke="#17C0EB" stroke-width="0.01"/>
<path d="M14.8149 14.8598L14.8817 14.8198L14.813 14.856L14.8149 14.8598Z" fill="white"/>
<path opacity="0.6" d="M13.8506 13.7283L13.885 13.8443L14.9928 14.7531L13.969 13.753L13.8506 13.7283Z" fill="#17C0EB" stroke="#17C0EB" stroke-width="0.01"/>
<path d="M14.8398 14.6161L14.899 14.6674L14.8436 14.6123L14.8398 14.6161Z" fill="white"/>
<path opacity="0.6" d="M15.8122 13.4546L15.7033 13.5097L14.9966 14.7532L15.8102 13.5763L15.8122 13.4546Z" fill="#17C0EB" stroke="#17C0EB" stroke-width="0.01"/>
<path d="M15.1041 14.5803L15.064 14.6469L15.1079 14.5822L15.1041 14.5803Z" fill="white"/>
<path opacity="0.6" d="M16.4902 15.1278L16.4043 15.0423L14.9966 14.7571L16.3737 15.1621L16.4902 15.1278Z" fill="#17C0EB" stroke="#17C0EB" stroke-width="0.01"/>
<path d="M15.196 14.8065L15.1196 14.7913L15.196 14.8122V14.8065Z" fill="white"/>
<path opacity="0.6" d="M15.0996 16.2858L15.155 16.1794L14.9927 14.759L15.0309 16.187L15.0996 16.2858Z" fill="#17C0EB" stroke="#17C0EB" stroke-width="0.01"/>
<path opacity="0.6" d="M13.5654 15.3313L13.6858 15.3503L14.9922 14.7571L13.638 15.2343L13.5654 15.3313Z" fill="#17C0EB" stroke="#17C0EB" stroke-width="0.01"/>
<path d="M14.8007 14.8331L14.8733 14.8008L14.7988 14.8274L14.8007 14.8331Z" fill="white"/>
<path opacity="0.6" d="M14.0029 13.5762L14.022 13.696L14.9923 14.7493L14.1194 13.6085L14.0029 13.5762Z" fill="#17C0EB" stroke="#17C0EB" stroke-width="0.01"/>
<path d="M14.8599 14.5973L14.9114 14.6544L14.8637 14.5935L14.8599 14.5973Z" fill="white"/>
<path opacity="0.6" d="M15.986 13.5762L15.8714 13.6161L14.9966 14.7569L15.9669 13.7036L15.986 13.5762Z" fill="#17C0EB" stroke="#17C0EB" stroke-width="0.01"/>
<path d="M15.1278 14.5972L15.0801 14.658L15.1317 14.601L15.1278 14.5972Z" fill="white"/>
<path opacity="0.6" d="M16.4234 15.3313L16.3508 15.2343L14.9966 14.7571L16.303 15.3503L16.4234 15.3313Z" fill="#17C0EB" stroke="#17C0EB" stroke-width="0.01"/>
<path d="M15.1863 14.833L15.1118 14.8064L15.1844 14.8387L15.1863 14.833Z" fill="white"/>
<path opacity="0.6" d="M14.8899 16.2858L14.9586 16.187L14.9968 14.759L14.8345 16.1794L14.8899 16.2858Z" fill="#17C0EB" stroke="#17C0EB" stroke-width="0.01"/>
<path opacity="0.6" d="M13.4985 15.1278L13.615 15.1621L14.9922 14.7571L13.5845 15.0423L13.4985 15.1278Z" fill="#17C0EB" stroke="#17C0EB" stroke-width="0.01"/>
<path d="M14.792 14.8066L14.8664 14.7856L14.79 14.8009L14.792 14.8066Z" fill="white"/>
<path opacity="0.6" d="M14.1782 13.4546V13.5763L14.99 14.7532L14.2833 13.5097L14.1782 13.4546Z" fill="#17C0EB" stroke="#17C0EB" stroke-width="0.01"/>
<path d="M14.8735 14.5803L14.9175 14.6449L14.8774 14.5784L14.8735 14.5803Z" fill="white"/>
<path opacity="0.6" d="M16.1397 13.7283L16.0194 13.753L14.9956 14.7531L16.1034 13.8443L16.1397 13.7283Z" fill="#17C0EB" stroke="#17C0EB" stroke-width="0.01"/>
<path d="M15.1477 14.6162L15.0923 14.6714L15.1515 14.62L15.1477 14.6162Z" fill="white"/>
<path opacity="0.6" d="M16.3288 15.5233L16.2696 15.4169L14.9956 14.7571L16.2065 15.5176L16.3288 15.5233Z" fill="#17C0EB" stroke="#17C0EB" stroke-width="0.01"/>
<path d="M15.1747 14.8599L15.106 14.8237L15.1728 14.8637L15.1747 14.8599Z" fill="white"/>
<path opacity="0.6" d="M14.6754 16.2571L14.7595 16.1677L14.9963 14.7588L14.6372 16.1411L14.6754 16.2571Z" fill="#17C0EB" stroke="#17C0EB" stroke-width="0.01"/>
<path d="M14.952 14.9583L14.9654 14.8804L14.9463 14.9564L14.952 14.9583Z" fill="white"/>
<path opacity="0.6" d="M13.4619 14.9168L13.5708 14.9681L14.9918 14.7571L13.5593 14.8426L13.4619 14.9168Z" fill="#17C0EB" stroke="#17C0EB" stroke-width="0.01"/>
<path d="M14.7871 14.7781L14.8635 14.7686H14.7852L14.7871 14.7781Z" fill="white"/>
<path opacity="0.6" d="M14.3673 13.3538L14.3521 13.4735L14.9938 14.7532L14.4666 13.4222L14.3673 13.3538Z" fill="#17C0EB" stroke="#17C0EB" stroke-width="0.01"/>
<path d="M14.9092 14.5668L14.9435 14.6372L14.9149 14.5649L14.9092 14.5668Z" fill="white"/>
<path opacity="0.6" d="M16.2722 13.8975H16.1519L15.0059 14.7474L16.2302 14.0001L16.2722 13.8975Z" fill="#17C0EB" stroke="#17C0EB" stroke-width="0.01"/>
<path d="M15.1671 14.6389L15.104 14.6845L15.169 14.6427L15.1671 14.6389Z" fill="white"/>
<path opacity="0.6" d="M16.2158 15.7002L16.1719 15.588L15.0029 14.7571L16.0955 15.6849L16.2158 15.7002Z" fill="#17C0EB" stroke="#17C0EB" stroke-width="0.01"/>
<path d="M15.1597 14.8844L15.0967 14.8369L15.1559 14.8882L15.1597 14.8844Z" fill="white"/>
<path opacity="0.6" d="M14.4702 16.1981L14.5657 16.1221L14.9973 14.7588L14.4473 16.0783L14.4702 16.1981Z" fill="#17C0EB" stroke="#17C0EB" stroke-width="0.01"/>
<path d="M14.9252 14.9509L14.95 14.8787L14.9214 14.9509H14.9252Z" fill="white"/>
<path opacity="0.6" d="M13.4551 14.7018L13.5563 14.7683L14.9926 14.755L13.5601 14.6428L13.4551 14.7018Z" fill="#17C0EB" stroke="#17C0EB" stroke-width="0.01"/>
<path opacity="0.6" d="M14.5701 13.2815L14.5376 13.3975L14.9941 14.7531L14.6579 13.3633L14.5701 13.2815Z" fill="#17C0EB" stroke="#17C0EB" stroke-width="0.01"/>
<path d="M14.937 14.5554L14.9599 14.6295L14.9408 14.5535L14.937 14.5554Z" fill="white"/>
<path opacity="0.6" d="M16.3785 14.0839L16.2581 14.0725L14.9956 14.7551L16.3135 14.1847L16.3785 14.0839Z" fill="#17C0EB" stroke="#17C0EB" stroke-width="0.01"/>
<path d="M15.1796 14.6658L15.1108 14.7019L15.1815 14.6715L15.1796 14.6658Z" fill="white"/>
<path opacity="0.6" d="M16.0652 15.8579L16.0366 15.74L14.9956 14.7551L15.9506 15.8256L16.0652 15.8579Z" fill="#17C0EB" stroke="#17C0EB" stroke-width="0.01"/>
<path d="M15.1384 14.9072L15.083 14.8521L15.1346 14.911L15.1384 14.9072Z" fill="white"/>
<path opacity="0.6" d="M14.2708 16.1107L14.3759 16.0479L14.9947 14.7588L14.2651 15.989L14.2708 16.1107Z" fill="#17C0EB" stroke="#17C0EB" stroke-width="0.01"/>
<path d="M14.8979 14.9395L14.9323 14.8711L14.894 14.9376L14.8979 14.9395Z" fill="white"/>
<path opacity="0.6" d="M13.4775 14.4889L13.5692 14.5688L14.9922 14.7589L13.5902 14.449L13.4775 14.4889Z" fill="#17C0EB" stroke="#17C0EB" stroke-width="0.01"/>
<path d="M14.7896 14.7171L14.8678 14.7285L14.7915 14.7114L14.7896 14.7171Z" fill="white"/>
<path opacity="0.6" d="M14.7802 13.2358L14.7324 13.348L14.9941 14.7531L14.8566 13.3309L14.7802 13.2358Z" fill="#17C0EB" stroke="#17C0EB" stroke-width="0.01"/>
<path d="M14.9658 14.5498L14.9792 14.6278V14.5498H14.9658Z" fill="white"/>
<path d="M14.994 14.2437C14.7135 14.2424 14.442 14.3424 14.23 14.5251C14.1593 14.6753 13.7696 15.2191 13.8289 15.3997H13.9587C14.0218 14.1277 15.949 14.1296 16.012 15.3997H16.1419C16.2068 15.221 15.8134 14.6715 15.7427 14.5251C15.5308 14.3421 15.2592 14.242 14.9787 14.2437H14.994Z" fill="#FF0000"/>
<path d="M14.9935 14.2683C14.6986 14.2669 14.4149 14.3801 14.2027 14.5839C14.111 14.7589 13.8074 15.1829 13.857 15.3977H13.9697C14.0537 14.1523 15.9332 14.1542 16.0191 15.3977H16.1299C16.1815 15.1829 15.8778 14.757 15.7842 14.5839C15.572 14.3801 15.2883 14.2669 14.9935 14.2683Z" fill="#FF6600"/>
<path d="M14.9931 14.2893C14.8354 14.2883 14.6794 14.3209 14.5354 14.3849C14.3915 14.4488 14.2629 14.5426 14.1584 14.6601C14.0381 14.8502 13.8451 15.1583 13.8795 15.3997H13.9655C14.0285 14.1277 15.9557 14.1296 16.0187 15.3997H16.1104C16.1391 15.1544 15.9461 14.8559 15.8258 14.6601C15.7216 14.5427 15.5934 14.4489 15.4498 14.3849C15.3061 14.321 15.1504 14.2884 14.9931 14.2893Z" fill="#FFFF00"/>
<path d="M14.9938 14.3102C14.704 14.3117 14.4266 14.427 14.2216 14.631C14.0167 14.835 13.9009 15.1112 13.8994 15.3997H13.9701C14.0541 14.1543 15.9336 14.1562 16.0195 15.3997H16.0902C16.0887 15.1105 15.9728 14.8336 15.7675 14.6289C15.5623 14.4243 15.2843 14.3084 14.9938 14.3064V14.3102Z" fill="#00FF00"/>
<path d="M14.9929 14.3369C14.8516 14.3369 14.7117 14.3647 14.5812 14.4186C14.4507 14.4726 14.3322 14.5516 14.2325 14.6512C14.1327 14.7509 14.0538 14.8691 14 14.9992C13.9463 15.1293 13.9189 15.2686 13.9194 15.4093H13.9691C14.0531 14.1639 15.9326 14.1658 16.0185 15.4093H16.0682C16.0682 15.1252 15.955 14.8527 15.7533 14.6517C15.5517 14.4506 15.2782 14.3374 14.9929 14.3369Z" fill="#00CCFF"/>
<path d="M14.9938 14.3481C14.7145 14.3486 14.4469 14.4594 14.2495 14.6562C14.0522 14.853 13.9414 15.1197 13.9414 15.3977H13.9777C13.9777 14.0667 16.0061 14.0667 16.0118 15.3977H16.0482C16.0466 15.1203 15.9349 14.8548 15.7373 14.6592C15.5398 14.4636 15.2725 14.3538 14.9938 14.3538V14.3481Z" fill="#0000FF"/>
<path d="M14.9949 14.371C14.8576 14.3713 14.7218 14.3987 14.5953 14.4516C14.4688 14.5046 14.3541 14.5821 14.258 14.6796C14.1618 14.7771 14.0861 14.8926 14.0352 15.0195C13.9843 15.1464 13.9593 15.2821 13.9616 15.4187H13.9826C13.994 14.0877 15.9957 14.0877 16.0072 15.4187H16.0282C16.031 15.2819 16.0063 15.1458 15.9557 15.0186C15.905 14.8914 15.8293 14.7755 15.7331 14.6778C15.6369 14.58 15.522 14.5024 15.3952 14.4494C15.2685 14.3964 15.1324 14.3691 14.9949 14.3691V14.371Z" fill="#800080"/>
<path d="M15.0057 14.8236C14.9866 14.8236 14.9733 14.8103 14.958 14.8083C14.9504 14.8148 14.9447 14.8231 14.9413 14.8324C14.938 14.8418 14.9371 14.8518 14.9389 14.8616C14.9599 14.8806 14.9847 14.892 14.9733 14.9376C14.9885 15.0726 15.084 14.8388 15.0057 14.8236Z" fill="#510000"/>
<path d="M14.9219 14.7037C14.7557 14.7722 14.9887 14.4889 15.0575 14.6467C15.0938 14.7114 15.1358 14.7722 15.1129 14.8368C15.09 14.9015 14.9925 14.7969 14.9429 14.8102C14.9276 14.8102 14.9066 14.8254 14.8913 14.8102C14.876 14.795 14.9448 14.7323 14.9353 14.6923C14.9353 14.6923 14.9352 14.6923 14.9219 14.6923V14.7037Z" fill="#FF0000"/>
<path d="M14.915 14.681C14.8845 14.6905 14.8902 14.7057 14.873 14.719C14.8558 14.7324 14.9131 14.7076 14.9284 14.7038C14.8883 14.7419 14.8196 14.8141 14.9055 14.8464C14.9571 14.8674 14.9666 14.9111 15.022 14.9111C15.0774 14.9111 15.0583 14.8826 15.0927 14.8883C15.1271 14.894 15.1366 14.8693 15.108 14.8578C15.0613 14.8483 15.0132 14.8483 14.9666 14.8578C14.9627 14.8199 14.9627 14.7817 14.9666 14.7438C14.9666 14.6981 14.9494 14.6962 14.9666 14.6582C14.9533 14.6829 14.9361 14.6772 14.915 14.6772V14.681Z" fill="url(#paint0_linear_4275_16223)"/>
<path d="M15.021 14.6086C15.021 14.6277 15.021 14.6543 15.021 14.6752C15.021 14.6961 15.0325 14.6866 15.0401 14.6904C15.0477 14.6942 15.0401 14.717 15.0401 14.7189C15.0726 14.6847 15.0401 14.6277 15 14.6086H15.021Z" fill="#FF2A2A"/>
<path d="M15.029 14.8046C14.985 14.8046 14.8857 14.7248 14.8742 14.7894C14.8742 14.8027 14.8628 14.8236 14.8742 14.816C14.8857 14.8084 14.9373 14.837 14.9526 14.8446C15.0137 14.8674 14.9526 14.9491 15.0003 14.9853C15.0481 14.9853 15.0347 14.8807 15.0882 14.8788C15.1416 14.8769 15.1168 14.8788 15.1206 14.837C15.1245 14.7951 15.0404 14.8122 15.027 14.8046H15.029Z" fill="url(#paint1_linear_4275_16223)"/>
<path d="M14.952 14.8445C14.9425 14.8445 14.8928 14.8045 14.8737 14.8178C14.8546 14.8311 14.8737 14.795 14.8737 14.7874C14.8737 14.7323 14.9368 14.7665 14.9673 14.7874L14.9559 14.8502L14.952 14.8445Z" fill="#910000"/>
<path d="M15.0411 14.9072C15.0621 14.8463 15.1213 14.8939 15.1194 14.8521C15.1194 14.8673 15.0735 14.8521 15.0544 14.8521C15.0353 14.8521 15.022 14.949 15.001 14.9566C15.022 14.9756 15.0296 14.9129 15.0411 14.8996V14.9072Z" fill="#FF3A3A"/>
<path d="M13.7714 15.3293L13.5098 15.7781H16.4798L16.2201 15.3312H13.7714V15.3293Z" fill="white"/>
<path d="M13.6825 15.6887C13.6418 15.6859 13.6009 15.6859 13.5602 15.6887L13.5469 15.7115C13.7337 15.6963 13.9215 15.6963 14.1084 15.7115C14.4025 15.6716 14.6967 15.7382 14.9889 15.6906C15.285 15.7363 15.5791 15.6735 15.8733 15.7115C16.0639 15.6961 16.2556 15.6961 16.4463 15.7115L16.4329 15.6849C16.1808 15.664 15.942 15.7211 15.6899 15.6849C15.4808 15.7011 15.2706 15.7011 15.0615 15.6849C14.9377 15.6835 14.814 15.6899 14.691 15.7039C14.5641 15.6905 14.4366 15.6842 14.309 15.6849C14.1005 15.7011 13.8911 15.7024 13.6825 15.6887Z" fill="url(#paint2_linear_4275_16223)"/>
<path d="M13.6825 15.668C13.6418 15.6651 13.6009 15.6651 13.5602 15.668L13.5469 15.6908C13.7337 15.6756 13.9215 15.6756 14.1084 15.6908C14.4025 15.6509 14.6967 15.7174 14.9889 15.6699C15.285 15.7155 15.5791 15.6528 15.8733 15.6908C16.0639 15.6754 16.2556 15.6754 16.4463 15.6908L16.4329 15.6642C16.1808 15.6433 15.942 15.7003 15.6899 15.6642C15.4808 15.6803 15.2706 15.6803 15.0615 15.6642C14.9377 15.6628 14.814 15.6691 14.691 15.6832C14.5641 15.6698 14.4366 15.6634 14.309 15.6642C14.1005 15.6804 13.8911 15.6816 13.6825 15.668Z" fill="url(#paint3_linear_4275_16223)"/>
<path d="M13.683 15.6317C13.6423 15.6289 13.6014 15.6289 13.5607 15.6317L13.5474 15.6545C13.7342 15.6393 13.922 15.6393 14.1089 15.6545C14.403 15.6146 14.6972 15.6793 14.9894 15.6336C15.2855 15.6793 15.5796 15.6165 15.8737 15.6545C16.0644 15.6391 16.2561 15.6391 16.4467 15.6545L16.4334 15.6279C16.1813 15.607 15.9425 15.6622 15.6904 15.6279C15.4813 15.646 15.2711 15.646 15.062 15.6279C14.9382 15.6281 14.8145 15.6351 14.6915 15.6488C14.5646 15.6354 14.437 15.6291 14.3095 15.6298C14.1009 15.6454 13.8916 15.646 13.683 15.6317Z" fill="url(#paint4_linear_4275_16223)"/>
<path d="M13.6825 15.6011C13.6416 15.6014 13.6007 15.6046 13.5602 15.6106L13.5469 15.6334C13.7337 15.6182 13.9215 15.6182 14.1084 15.6334C14.4025 15.5935 14.6967 15.6581 14.9889 15.6125C15.285 15.6581 15.5791 15.5954 15.8733 15.6334C16.0639 15.618 16.2556 15.618 16.4463 15.6334L16.4329 15.6068C16.1808 15.5859 15.942 15.641 15.6899 15.6068C15.4808 15.6249 15.2706 15.6249 15.0615 15.6068C14.9377 15.6069 14.814 15.6139 14.691 15.6277C14.5725 15.6277 14.4408 15.6011 14.309 15.6068C14.1003 15.6217 13.8908 15.6198 13.6825 15.6011Z" fill="url(#paint5_linear_4275_16223)"/>
<path d="M13.6825 15.5725C13.6416 15.5728 13.6007 15.576 13.5602 15.582L13.5469 15.6048C13.7337 15.5896 13.9215 15.5896 14.1084 15.6048C14.4025 15.5649 14.6967 15.6296 14.9889 15.5839C15.285 15.6296 15.5791 15.5649 15.8733 15.6048C16.0639 15.5894 16.2556 15.5894 16.4463 15.6048L16.4329 15.5782C16.1808 15.5573 15.942 15.6124 15.6899 15.5782C15.4808 15.5963 15.2706 15.5963 15.0615 15.5782C14.9377 15.5784 14.814 15.5854 14.691 15.5991C14.5725 15.5991 14.4408 15.5725 14.309 15.5782C14.1003 15.5931 13.8908 15.5912 13.6825 15.5725Z" fill="url(#paint6_linear_4275_16223)"/>
<path d="M13.683 15.5441C13.6423 15.5413 13.6014 15.5413 13.5607 15.5441L13.5474 15.5669C13.7342 15.5517 13.922 15.5517 14.1089 15.5669C14.403 15.527 14.6972 15.5916 14.9894 15.546C15.2855 15.5916 15.5796 15.527 15.8737 15.5669C16.0644 15.5515 16.2561 15.5515 16.4467 15.5669L16.4334 15.5403C16.1813 15.5194 15.9425 15.5745 15.6904 15.5403C15.4813 15.5584 15.2711 15.5584 15.062 15.5403C14.9382 15.5405 14.8145 15.5474 14.6915 15.5612C14.573 15.5612 14.4412 15.5346 14.3095 15.5403C14.1011 15.5584 13.8916 15.5596 13.683 15.5441Z" fill="url(#paint7_linear_4275_16223)"/>
<path d="M13.6825 15.5139C13.6418 15.511 13.6009 15.511 13.5602 15.5139L13.5469 15.5367C13.7337 15.5205 13.9216 15.5205 14.1084 15.5367C14.4025 15.4968 14.6967 15.5614 14.9889 15.5158C15.285 15.5614 15.5791 15.4968 15.8733 15.5367C16.0639 15.5203 16.2556 15.5203 16.4463 15.5367L16.4329 15.512C16.1808 15.4911 15.942 15.5462 15.6899 15.512C15.4808 15.5281 15.2706 15.5281 15.0615 15.512C14.9377 15.5112 14.8139 15.5182 14.691 15.5329C14.5641 15.5188 14.4366 15.5118 14.309 15.512C14.1005 15.5294 13.891 15.53 13.6825 15.5139Z" fill="url(#paint8_linear_4275_16223)"/>
<path d="M13.6825 15.4777C13.6418 15.4749 13.6009 15.4749 13.5602 15.4777L13.5469 15.5005C13.7337 15.4844 13.9216 15.4844 14.1084 15.5005C14.4025 15.4606 14.6967 15.5253 14.9889 15.4796C15.285 15.5253 15.5791 15.4606 15.8733 15.5005C16.0639 15.4842 16.2556 15.4842 16.4463 15.5005L16.4329 15.4758C16.1808 15.4549 15.942 15.5101 15.6899 15.4758C15.4808 15.492 15.2706 15.492 15.0615 15.4758C14.9377 15.4751 14.8139 15.482 14.691 15.4967C14.5641 15.4827 14.4366 15.4757 14.309 15.4758C14.1005 15.4933 13.891 15.4939 13.6825 15.4777Z" fill="url(#paint9_linear_4275_16223)"/>
<path d="M13.683 15.4567C13.6423 15.4539 13.6014 15.4539 13.5607 15.4567L13.5474 15.4796C13.7342 15.4634 13.9221 15.4634 14.1089 15.4796C14.403 15.4396 14.6972 15.5043 14.9894 15.4586C15.2855 15.5043 15.5796 15.4396 15.8737 15.4796C16.0644 15.4632 16.2561 15.4632 16.4467 15.4796L16.4334 15.4548C16.1813 15.4339 15.9425 15.4891 15.6904 15.4548C15.4812 15.471 15.2711 15.471 15.062 15.4548C14.9382 15.4541 14.8144 15.461 14.6915 15.4757C14.5646 15.4617 14.4371 15.4547 14.3095 15.4548C14.101 15.4723 13.8915 15.4729 13.683 15.4567Z" fill="url(#paint10_linear_4275_16223)"/>
<path d="M13.7739 15.3274H16.213H13.7739ZM13.7739 15.3274H16.213H13.7644H13.7739ZM13.7739 15.3369H16.2455H13.7739ZM13.7739 15.3502V15.3635H16.2665V15.3502H13.7739ZM13.7624 15.3692V15.3825H16.276V15.3692H13.7624ZM13.7624 15.3863V15.3977H16.2913V15.3863H13.7624ZM13.751 15.4054H16.3027H13.751ZM13.751 15.4225V15.4396H16.3276V15.4225H13.751Z" fill="url(#paint11_linear_4275_16223)"/>
<path d="M13.8848 15.4509C13.9726 15.4699 13.9803 15.4509 13.9803 15.4509H13.8848ZM16.0087 15.4509C16.0087 15.4509 16.0087 15.4699 16.1061 15.4509H16.0087Z" fill="url(#paint12_linear_4275_16223)"/>
<path d="M15.7932 15.0536C15.7823 15.0524 15.7713 15.0541 15.7613 15.0584C15.7512 15.0627 15.7425 15.0696 15.7359 15.0783C15.701 15.2557 15.5982 15.4126 15.4492 15.5159C15.3002 15.6191 15.1167 15.6607 14.9375 15.6316V15.9111H16.5381L16.3777 15.6259C16.2478 15.5919 16.1299 15.5228 16.0372 15.4261C15.9445 15.3294 15.8805 15.209 15.8524 15.0783C15.8454 15.0696 15.8363 15.0627 15.826 15.0584C15.8156 15.0541 15.8044 15.0524 15.7932 15.0536Z" fill="url(#paint13_linear_4275_16223)"/>
<path d="M15.7914 15.0669C15.7647 15.0669 15.757 15.0669 15.7437 15.0821C15.7083 15.2601 15.6055 15.4177 15.4564 15.5222C15.3074 15.6266 15.1236 15.6699 14.9434 15.643V15.8997H16.5325L16.3835 15.6411C16.25 15.607 16.1286 15.5367 16.0328 15.438C15.9371 15.3393 15.8707 15.2161 15.8411 15.0821C15.8345 15.076 15.8266 15.0714 15.818 15.0688C15.8094 15.0661 15.8003 15.0655 15.7914 15.0669Z" fill="#97C924"/>
<path d="M15.7912 15.0669C15.7912 15.2323 15.8275 15.4681 15.6804 15.5898C15.5445 15.6311 15.401 15.6422 15.2603 15.6221C15.3777 15.5778 15.4824 15.5053 15.565 15.4111C15.6476 15.317 15.7057 15.2039 15.7339 15.0821C15.7339 15.0688 15.7702 15.0688 15.7836 15.0669H15.7912Z" fill="#EDE71F"/>
<path d="M15.7764 15.0974C15.7573 15.2875 15.6886 15.607 15.4556 15.6203C15.6131 15.4829 15.7239 15.3002 15.7726 15.0974H15.7764Z" fill="#C6CB24"/>
<path d="M15.6386 15.373C15.5812 15.4748 15.5031 15.5635 15.4094 15.6335H15.333C15.4593 15.5799 15.5659 15.489 15.6386 15.373Z" fill="#9ECB34"/>
<path d="M15.3943 15.0536C15.3834 15.0524 15.3724 15.0541 15.3623 15.0584C15.3523 15.0627 15.3435 15.0696 15.337 15.0783C15.3021 15.2557 15.1993 15.4126 15.0503 15.5159C14.9013 15.6191 14.7178 15.6607 14.5386 15.6316V15.9111H16.1411L15.9787 15.6259C15.849 15.5917 15.7312 15.5225 15.6385 15.4259C15.5458 15.3292 15.4818 15.2089 15.4535 15.0783C15.4465 15.0696 15.4374 15.0627 15.427 15.0584C15.4167 15.0541 15.4054 15.0524 15.3943 15.0536Z" fill="url(#paint14_linear_4275_16223)"/>
<path d="M15.393 15.0669C15.3662 15.0669 15.3586 15.0669 15.3452 15.0821C15.3099 15.2601 15.207 15.4177 15.058 15.5222C14.9089 15.6266 14.7252 15.6699 14.5449 15.643V15.8997H16.134L15.9851 15.6411C15.8516 15.607 15.7302 15.5367 15.6344 15.438C15.5386 15.3393 15.4722 15.2161 15.4426 15.0821C15.436 15.076 15.4282 15.0714 15.4196 15.0688C15.411 15.0661 15.4018 15.0655 15.393 15.0669Z" fill="#97C924"/>
<path d="M15.3945 15.0669H15.4059C15.4059 15.2323 15.4403 15.4681 15.2933 15.5898C15.1573 15.6311 15.0138 15.6422 14.873 15.6221C14.9905 15.5778 15.0952 15.5053 15.1778 15.4111C15.2604 15.317 15.3184 15.2039 15.3467 15.0821C15.3467 15.0688 15.383 15.0688 15.3964 15.0669H15.3945Z" fill="#EDE71F"/>
<path d="M15.379 15.0974C15.3599 15.2875 15.2911 15.607 15.0581 15.6203C15.2157 15.4829 15.3265 15.3002 15.3752 15.0974H15.379Z" fill="#C6CB24"/>
<path d="M15.2363 15.373C15.1789 15.4748 15.1008 15.5635 15.0071 15.6335H14.9307C15.0569 15.5799 15.1636 15.489 15.2363 15.373Z" fill="#9ECB34"/>
<path d="M15.0525 15.0803C15.0878 15.2577 15.1911 15.4145 15.3404 15.5174C15.4898 15.6203 15.6736 15.6613 15.8528 15.6317V15.9112H14.1338V15.6317C14.313 15.6607 14.4965 15.6192 14.6455 15.516C14.7945 15.4127 14.8973 15.2558 14.9322 15.0784C14.9322 15.0556 15.0449 15.0499 15.0487 15.0784L15.0525 15.0803Z" fill="url(#paint15_linear_4275_16223)"/>
<path d="M14.996 15.0668C15.0046 15.0661 15.0132 15.067 15.0214 15.0697C15.0296 15.0723 15.0372 15.0765 15.0437 15.082C15.0791 15.26 15.1819 15.4177 15.331 15.5221C15.48 15.6266 15.6638 15.6698 15.844 15.6429V15.8996H14.1479V15.641C14.3278 15.6684 14.5113 15.6256 14.6601 15.5214C14.8089 15.4172 14.9114 15.2598 14.9463 15.082C14.9531 15.0762 14.961 15.0719 14.9696 15.0693C14.9781 15.0666 14.9871 15.0658 14.996 15.0668Z" fill="#97C924"/>
<path d="M14.9769 15.0669C14.9707 15.067 14.9646 15.0684 14.959 15.071C14.9534 15.0737 14.9485 15.0774 14.9444 15.0821C14.9163 15.2037 14.8586 15.3166 14.7763 15.4108C14.694 15.505 14.5898 15.5775 14.4727 15.6221C14.5831 15.6289 14.6938 15.6154 14.7993 15.5822C14.9069 15.4309 14.9686 15.2521 14.9769 15.0669Z" fill="#EDE71F"/>
<path d="M14.9771 15.0974C14.96 15.2875 14.8893 15.607 14.6562 15.6203C14.8154 15.4836 14.9276 15.3008 14.9771 15.0974Z" fill="#C6CB24"/>
<path d="M14.833 15.373C14.7762 15.4757 14.6972 15.5647 14.6019 15.6335H14.5293C14.655 15.5798 14.761 15.4888 14.833 15.373Z" fill="#9ECB34"/>
<path d="M15.0204 15.0708L15.0433 15.0822C15.073 15.2045 15.1312 15.3182 15.2132 15.4139C15.2951 15.5097 15.3986 15.585 15.5151 15.6336C15.1216 15.6565 15.0472 15.396 15.0166 15.0632L15.0204 15.0708Z" fill="#EDE71F"/>
<path d="M15.0337 15.0974C15.0471 15.2875 15.1273 15.5766 15.3508 15.588C15.1867 15.4701 15.0735 15.2949 15.0337 15.0974Z" fill="#C6CB24"/>
<path d="M14.5984 15.0537C14.5506 15.0537 14.5372 15.0784 14.5372 15.0784C14.4723 15.3313 14.2298 15.6488 13.9776 15.6964L13.8516 15.9112H15.1293V15.6184C15.0119 15.5741 14.9072 15.5017 14.8246 15.4075C14.742 15.3133 14.6839 15.2003 14.6557 15.0784C14.6557 15.0784 14.6423 15.0575 14.5946 15.0575L14.5984 15.0537Z" fill="url(#paint16_linear_4275_16223)"/>
<path d="M14.5991 15.068C14.5705 15.068 14.5609 15.068 14.5495 15.0833C14.4731 15.3456 14.2439 15.6632 13.9765 15.7069L13.8638 15.897H15.1167V15.6194C15.0004 15.5744 14.8968 15.5016 14.8153 15.4074C14.7337 15.3133 14.6765 15.2007 14.6488 15.0795C14.6419 15.074 14.6338 15.0701 14.6253 15.0682C14.6167 15.0662 14.6077 15.0661 14.5991 15.068Z" fill="#97C924"/>
<path d="M14.5615 15.0974C14.529 15.4111 14.3838 15.7287 14.105 15.7059C14.2198 15.6419 14.3199 15.5547 14.3988 15.4499C14.4778 15.3451 14.5338 15.225 14.5634 15.0974H14.5615Z" fill="#93BC30"/>
<path d="M14.598 15.0671H14.5847C14.5579 15.4664 14.6248 15.7116 15.087 15.7002C15.0591 15.678 15.0297 15.6577 14.9991 15.6394L15.1156 15.6261C14.9991 15.5795 14.8955 15.5058 14.8134 15.4112C14.7314 15.3166 14.6732 15.2038 14.6439 15.0823C14.6371 15.0765 14.6292 15.0721 14.6206 15.0695C14.6121 15.0669 14.6031 15.0661 14.5942 15.0671H14.598Z" fill="#EDE71F"/>
<path d="M14.6123 15.0974C14.6314 15.2875 14.6983 15.607 14.9332 15.6203C14.7737 15.4839 14.6614 15.3009 14.6123 15.0974Z" fill="#CCD11E"/>
<path d="M14.7222 15.3218C14.8177 15.4834 14.9667 15.7021 15.1691 15.7021C14.9868 15.6219 14.8325 15.4895 14.726 15.3218H14.7222Z" fill="#9ECB34"/>
<path d="M14.197 15.0536C14.1858 15.052 14.1745 15.0535 14.164 15.0579C14.1536 15.0622 14.1446 15.0693 14.1378 15.0783C14.0729 15.3312 13.8303 15.6487 13.5763 15.6962L13.4521 15.9111H14.7299V15.6183C14.6121 15.5742 14.507 15.5019 14.4241 15.4077C14.3411 15.3135 14.2828 15.2003 14.2543 15.0783C14.2543 15.0783 14.2429 15.0574 14.1951 15.0574L14.197 15.0536Z" fill="url(#paint17_linear_4275_16223)"/>
<path d="M14.1978 15.0679C14.1799 15.0665 14.1621 15.072 14.1481 15.0831C14.0717 15.3455 13.8444 15.663 13.5751 15.7068L13.4624 15.8969H14.7135V15.6193C14.5974 15.574 14.4943 15.5011 14.413 15.4069C14.3318 15.3128 14.2749 15.2003 14.2474 15.0793C14.2404 15.074 14.2324 15.0702 14.2238 15.0682C14.2153 15.0662 14.2064 15.0661 14.1978 15.0679Z" fill="#97C924"/>
<path d="M14.1601 15.0974C14.1295 15.4111 13.9844 15.7287 13.7036 15.7059C13.8183 15.6415 13.9185 15.5542 13.9977 15.4495C14.0769 15.3448 14.1335 15.2249 14.1639 15.0974H14.1601Z" fill="#93BC30"/>
<path d="M14.1962 15.0668H14.1848C14.1561 15.4661 14.2249 15.7114 14.6871 15.7C14.6592 15.6778 14.6299 15.6575 14.5993 15.6391L14.7158 15.6258C14.5993 15.5792 14.4956 15.5056 14.4136 15.4109C14.3315 15.3163 14.2733 15.2036 14.244 15.082C14.2372 15.0762 14.2293 15.0719 14.2208 15.0693C14.2122 15.0666 14.2032 15.0658 14.1944 15.0668H14.1962Z" fill="#EDE71F"/>
<path d="M14.2129 15.0974C14.232 15.2875 14.2988 15.607 14.5318 15.6203C14.3729 15.4838 14.2613 15.3008 14.2129 15.0974Z" fill="#C6CB24"/>
<path d="M14.3223 15.3218C14.4178 15.4834 14.5668 15.7021 14.7673 15.7021C14.585 15.6219 14.4307 15.4895 14.3242 15.3218H14.3223Z" fill="#9ECB34"/>
<path d="M16.4687 15.7742C16.1985 15.7941 15.9272 15.7941 15.657 15.7742C15.5395 15.7756 15.4221 15.7838 15.3055 15.7989C15.1896 15.784 15.0729 15.7757 14.956 15.7742C14.7522 15.796 14.5467 15.796 14.3429 15.7742C14.0583 15.8255 13.7814 15.7438 13.4968 15.7951L13.3325 16.0765H16.6559L16.4687 15.7742Z" fill="white"/>
<path d="M16.2465 15.7324C16.0345 15.7574 15.8204 15.7574 15.6085 15.7324C15.3994 15.7578 15.1886 15.7654 14.9782 15.7552C14.6497 15.8085 14.4052 15.7552 14.0671 15.8199C13.8694 15.7946 13.6688 15.801 13.4731 15.8389L13.4502 15.8769C13.6754 15.8453 13.9032 15.837 14.1301 15.8522C14.3899 15.8009 14.6267 15.8522 14.8942 15.799C15.0212 15.7878 15.1491 15.7878 15.2762 15.799C15.4768 15.7781 15.6791 15.7781 15.8797 15.799C16.0741 15.767 16.2719 15.7606 16.468 15.78L16.447 15.7438C16.4031 15.7476 16.3209 15.7324 16.2465 15.7324Z" fill="url(#paint18_linear_4275_16223)"/>
<path d="M13.6999 16.0345C13.5855 16.0515 13.4698 16.0573 13.3542 16.0517L13.3428 16.0726C13.4788 16.074 13.6148 16.0657 13.7496 16.0479C13.8716 16.0664 13.9949 16.0753 14.1182 16.0745C14.4105 16.0269 14.6912 16.1068 14.993 16.0479C15.2814 16.1068 15.566 16.0269 15.864 16.0745C15.9868 16.0754 16.1094 16.0665 16.2307 16.0479C16.369 16.0695 16.5091 16.0777 16.649 16.0726L16.6356 16.0517C16.4886 16.0745 16.3338 16.0174 16.181 16.0326C16.0147 16.0593 15.8451 16.0593 15.6787 16.0326C15.4723 16.0536 15.2643 16.0536 15.058 16.0326C14.8516 16.0536 14.6436 16.0536 14.4372 16.0326C14.3139 16.0329 14.1907 16.0418 14.0686 16.0593C13.9466 16.0407 13.8233 16.0318 13.6999 16.0326V16.0345Z" fill="url(#paint19_linear_4275_16223)"/>
<path d="M13.6999 16.0022C13.5855 16.0186 13.4697 16.0237 13.3542 16.0175L13.3428 16.0384C13.4787 16.0395 13.6146 16.0318 13.7496 16.0156C13.8717 16.0325 13.9949 16.0407 14.1182 16.0403C14.4105 15.9927 14.6912 16.0726 14.993 16.0156C15.2814 16.0726 15.566 15.9927 15.864 16.0403C15.9867 16.0408 16.1092 16.0326 16.2307 16.0156C16.3692 16.0356 16.5092 16.0432 16.649 16.0384L16.6356 16.0175C16.4886 16.0403 16.3338 15.9851 16.181 15.9984C16.0147 16.025 15.8451 16.025 15.6787 15.9984C15.4724 16.0203 15.2643 16.0203 15.058 15.9984C14.8516 16.0203 14.6435 16.0203 14.4372 15.9984C14.3139 15.9996 14.1908 16.0085 14.0686 16.0251C13.9465 16.0075 13.8233 15.9986 13.6999 15.9984V16.0022Z" fill="url(#paint20_linear_4275_16223)"/>
<path d="M13.6995 15.9681C13.5851 15.9854 13.4692 15.9905 13.3538 15.9834L13.3423 16.0043C13.4783 16.0073 13.6143 15.9996 13.7491 15.9815C13.8712 15.9993 13.9944 16.0076 14.1178 16.0062C14.41 15.9586 14.6908 16.0385 14.9925 15.9815C15.2809 16.0385 15.5655 15.9586 15.8635 16.0062C15.9862 16.0077 16.1088 15.9994 16.2302 15.9815C16.3686 16.0024 16.5087 16.01 16.6485 16.0043L16.6351 15.9834C16.4881 16.0081 16.3334 15.951 16.1806 15.9662C16.014 15.9909 15.8447 15.9909 15.6782 15.9662C15.4718 15.9862 15.2639 15.9862 15.0575 15.9662C14.851 15.9862 14.6431 15.9862 14.4367 15.9662C14.3134 15.9658 14.1902 15.9741 14.0681 15.991C13.9461 15.9731 13.8228 15.9648 13.6995 15.9662V15.9681Z" fill="url(#paint21_linear_4275_16223)"/>
<path d="M13.6999 15.934C13.5856 15.9513 13.4697 15.9564 13.3542 15.9492L13.3428 15.9701C13.4788 15.9731 13.6148 15.9655 13.7496 15.9473C13.8716 15.9658 13.9949 15.9747 14.1182 15.9739C14.4105 15.9245 14.6912 16.0062 14.993 15.9473C15.2814 16.0062 15.566 15.9245 15.864 15.9739C15.9868 15.9748 16.1094 15.9659 16.2307 15.9473C16.369 15.9692 16.5092 15.9768 16.649 15.9701L16.6356 15.9492C16.4886 15.9739 16.3338 15.9169 16.181 15.9321C16.0146 15.9577 15.8452 15.9577 15.6787 15.9321C15.4723 15.953 15.2643 15.953 15.058 15.9321C14.8516 15.953 14.6436 15.953 14.4372 15.9321C14.3138 15.9313 14.1906 15.9402 14.0686 15.9587C13.9466 15.9402 13.8233 15.9313 13.6999 15.9321V15.934Z" fill="url(#paint22_linear_4275_16223)"/>
<path d="M13.6999 15.8998C13.5855 15.9168 13.4698 15.9225 13.3542 15.9169L13.3428 15.9378C13.4788 15.9392 13.6148 15.9309 13.7496 15.9131C13.8716 15.9316 13.9949 15.9405 14.1182 15.9397C14.4105 15.8922 14.6912 15.972 14.993 15.9131C15.2814 15.972 15.566 15.8922 15.864 15.9397C15.9868 15.9406 16.1094 15.9317 16.2307 15.9131C16.369 15.9347 16.5091 15.943 16.649 15.9378L16.6356 15.9169C16.4886 15.9397 16.3338 15.8827 16.181 15.8979C16.0147 15.9245 15.8451 15.9245 15.6787 15.8979C15.4723 15.9189 15.2643 15.9189 15.058 15.8979C14.8516 15.9189 14.6436 15.9189 14.4372 15.8979C14.3139 15.8981 14.1907 15.907 14.0686 15.9245C13.9466 15.906 13.8233 15.8971 13.6999 15.8979V15.8998Z" fill="url(#paint23_linear_4275_16223)"/>
<path d="M13.6995 15.8675C13.585 15.8838 13.4692 15.8889 13.3538 15.8827L13.3423 15.9036C13.4782 15.9047 13.6141 15.8971 13.7491 15.8808C13.8713 15.8977 13.9944 15.906 14.1178 15.9055C14.41 15.858 14.6908 15.9378 14.9925 15.8808C15.2809 15.9378 15.5655 15.858 15.8635 15.9055C15.9862 15.9061 16.1087 15.8978 16.2302 15.8808C16.3686 15.9017 16.5087 15.9094 16.6485 15.9036L16.6351 15.8827C16.4881 15.9055 16.3334 15.8504 16.1806 15.8637C16.0142 15.8903 15.8446 15.8903 15.6782 15.8637C15.4719 15.8855 15.2638 15.8855 15.0575 15.8637C14.8511 15.8855 14.6431 15.8855 14.4367 15.8637C14.3134 15.8648 14.1903 15.8737 14.0681 15.8903C13.946 15.8727 13.8228 15.8638 13.6995 15.8637V15.8675Z" fill="url(#paint24_linear_4275_16223)"/>
<path d="M13.6999 15.8351C13.5855 15.8521 13.4698 15.8578 13.3542 15.8522L13.3428 15.8712C13.4788 15.8742 13.6148 15.8666 13.7496 15.8484C13.8716 15.8669 13.9949 15.8758 14.1182 15.875C14.4105 15.8275 14.6912 15.9073 14.993 15.8484C15.2814 15.9073 15.566 15.8256 15.864 15.875C15.9868 15.8759 16.1094 15.867 16.2307 15.8484C16.369 15.8703 16.5092 15.8779 16.649 15.8712L16.6356 15.8522C16.4886 15.875 16.3338 15.818 16.181 15.8332C16.0146 15.8589 15.8452 15.8589 15.6787 15.8332C15.4723 15.8542 15.2643 15.8542 15.058 15.8332C14.8516 15.8542 14.6436 15.8542 14.4372 15.8332C14.3139 15.8334 14.1907 15.8423 14.0686 15.8598C13.9466 15.8413 13.8233 15.8324 13.6999 15.8332V15.8351Z" fill="url(#paint25_linear_4275_16223)"/>
<path d="M13.6999 15.8028C13.5854 15.8182 13.4697 15.8233 13.3542 15.818L13.3428 15.8389C13.4788 15.8403 13.6148 15.832 13.7496 15.8142C13.8716 15.8327 13.9949 15.8416 14.1182 15.8408C14.4105 15.7933 14.6912 15.8731 14.993 15.8142C15.2814 15.8731 15.566 15.7933 15.864 15.8408C15.9868 15.8417 16.1094 15.8328 16.2307 15.8142C16.369 15.8358 16.5091 15.8441 16.649 15.8389L16.6356 15.818C16.4886 15.8408 16.3338 15.7857 16.181 15.799C16.0147 15.8256 15.8451 15.8256 15.6787 15.799C15.4724 15.8208 15.2643 15.8208 15.058 15.799C14.8516 15.82 14.6436 15.82 14.4372 15.799C14.3139 15.8001 14.1908 15.809 14.0686 15.8256C13.9466 15.8071 13.8233 15.7982 13.6999 15.799V15.8028Z" fill="url(#paint26_linear_4275_16223)"/>
<path d="M13.6995 15.7685C13.585 15.7849 13.4692 15.79 13.3538 15.7837L13.3423 15.8046C13.4783 15.8067 13.6142 15.799 13.7491 15.7818C13.8712 15.7997 13.9944 15.808 14.1178 15.8065C14.41 15.759 14.6908 15.8389 14.9925 15.7818C15.2809 15.8389 15.5655 15.759 15.8635 15.8065C15.9862 15.808 16.1088 15.7998 16.2302 15.7818C16.3686 15.8028 16.5087 15.8104 16.6485 15.8046L16.6351 15.7837C16.4881 15.8065 16.3334 15.7514 16.1806 15.7666C16.0141 15.7923 15.8447 15.7923 15.6782 15.7666C15.4719 15.7885 15.2638 15.7885 15.0575 15.7666C14.8511 15.7885 14.6431 15.7885 14.4367 15.7666C14.3134 15.7678 14.1903 15.7767 14.0681 15.7932C13.9461 15.7753 13.8228 15.7671 13.6995 15.7685Z" fill="url(#paint27_linear_4275_16223)"/>
<path d="M13.5381 15.7742L13.4731 15.8826C13.6704 15.8361 13.875 15.8296 14.0748 15.8635C14.2722 15.8242 14.4745 15.8159 14.6745 15.8388C14.8858 15.8028 15.1006 15.792 15.3144 15.8065C15.4424 15.8065 15.4634 15.7761 15.6162 15.7742C15.769 15.7723 15.8072 15.797 15.9447 15.797C16.1177 15.7765 16.2919 15.767 16.4661 15.7685L16.4184 15.6848C16.2446 15.6962 13.6126 15.7266 13.5381 15.7742Z" fill="#97C924"/>
<path d="M16.2983 15.7705L16.4779 15.7857L16.4683 15.7743C16.4511 15.7743 16.3518 15.7743 16.3003 15.7743L16.2983 15.7705Z" fill="white"/>
</g>
<path d="M14.9974 13.1829L13.3032 16.1053H16.6897C16.2676 15.3789 15.4176 13.9111 14.9974 13.1829ZM14.9974 13.2589L16.6266 16.0672H13.3796L14.9974 13.2589Z" fill="#C8A400"/>
</g>
<defs>
<linearGradient id="paint0_linear_4275_16223" x1="15.5492" y1="14.9182" x2="15.5976" y2="14.771" gradientUnits="userSpaceOnUse">
<stop stop-color="#510000"/>
<stop offset="0.3" stop-color="#8A0000"/>
<stop offset="1" stop-color="#AA0000"/>
</linearGradient>
<linearGradient id="paint1_linear_4275_16223" x1="15.5472" y1="14.9522" x2="15.5859" y2="14.8486" gradientUnits="userSpaceOnUse">
<stop stop-color="#FF2A2A"/>
<stop offset="1" stop-color="#FF0000"/>
</linearGradient>
<linearGradient id="paint2_linear_4275_16223" x1="14.1235" y1="15.7635" x2="19.0557" y2="15.7635" gradientUnits="userSpaceOnUse">
<stop stop-color="#002255"/>
<stop offset="0.5" stop-color="#0044AA"/>
<stop offset="1" stop-color="#002255"/>
</linearGradient>
<linearGradient id="paint3_linear_4275_16223" x1="-2238.79" y1="-22.6501" x2="-2163.92" y2="-22.6501" gradientUnits="userSpaceOnUse">
<stop stop-color="#002255"/>
<stop offset="0.5" stop-color="#0044AA"/>
<stop offset="1" stop-color="#002255"/>
</linearGradient>
<linearGradient id="paint4_linear_4275_16223" x1="-2238.79" y1="-22.7837" x2="-2163.92" y2="-22.7837" gradientUnits="userSpaceOnUse">
<stop stop-color="#002255"/>
<stop offset="0.5" stop-color="#0044AA"/>
<stop offset="1" stop-color="#002255"/>
</linearGradient>
<linearGradient id="paint5_linear_4275_16223" x1="-2238.79" y1="-22.9939" x2="-2163.92" y2="-22.9939" gradientUnits="userSpaceOnUse">
<stop stop-color="#002255"/>
<stop offset="0.5" stop-color="#0044AA"/>
<stop offset="1" stop-color="#002255"/>
</linearGradient>
<linearGradient id="paint6_linear_4275_16223" x1="-2238.79" y1="-23.1218" x2="-2163.92" y2="-23.1218" gradientUnits="userSpaceOnUse">
<stop stop-color="#002255"/>
<stop offset="0.5" stop-color="#0044AA"/>
<stop offset="1" stop-color="#002255"/>
</linearGradient>
<linearGradient id="paint7_linear_4275_16223" x1="-2238.79" y1="-23.1808" x2="-2163.92" y2="-23.1808" gradientUnits="userSpaceOnUse">
<stop stop-color="#002255"/>
<stop offset="0.5" stop-color="#0044AA"/>
<stop offset="1" stop-color="#002255"/>
</linearGradient>
<linearGradient id="paint8_linear_4275_16223" x1="-2238.79" y1="-23.1753" x2="-2163.92" y2="-23.1753" gradientUnits="userSpaceOnUse">
<stop stop-color="#002255"/>
<stop offset="0.5" stop-color="#0044AA"/>
<stop offset="1" stop-color="#002255"/>
</linearGradient>
<linearGradient id="paint9_linear_4275_16223" x1="-2238.79" y1="-23.2989" x2="-2163.92" y2="-23.2989" gradientUnits="userSpaceOnUse">
<stop stop-color="#002255"/>
<stop offset="0.5" stop-color="#0044AA"/>
<stop offset="1" stop-color="#002255"/>
</linearGradient>
<linearGradient id="paint10_linear_4275_16223" x1="-2238.79" y1="-23.4378" x2="-2163.92" y2="-23.4378" gradientUnits="userSpaceOnUse">
<stop stop-color="#002255"/>
<stop offset="0.5" stop-color="#0044AA"/>
<stop offset="1" stop-color="#002255"/>
</linearGradient>
<linearGradient id="paint11_linear_4275_16223" x1="-2317.71" y1="26.1843" x2="-2239.43" y2="26.1843" gradientUnits="userSpaceOnUse">
<stop stop-color="#002255"/>
<stop offset="0.5" stop-color="#0044AA"/>
<stop offset="1" stop-color="#002255"/>
</linearGradient>
<linearGradient id="paint12_linear_4275_16223" x1="-1996.1" y1="16.265" x2="-1928.61" y2="16.265" gradientUnits="userSpaceOnUse">
<stop stop-color="#002255"/>
<stop offset="0.5" stop-color="#0044AA"/>
<stop offset="1" stop-color="#002255"/>
</linearGradient>
<linearGradient id="paint13_linear_4275_16223" x1="16.3056" y1="15.4967" x2="16.3056" y2="15.6486" gradientUnits="userSpaceOnUse">
<stop stop-color="#F5F549"/>
<stop offset="1" stop-color="#97C924"/>
</linearGradient>
<linearGradient id="paint14_linear_4275_16223" x1="-1207.16" y1="-89.8075" x2="-1207.16" y2="-89.1221" gradientUnits="userSpaceOnUse">
<stop stop-color="#F5F549"/>
<stop offset="1" stop-color="#97C924"/>
</linearGradient>
<linearGradient id="paint15_linear_4275_16223" x1="-1526.06" y1="97.2623" x2="-1526.06" y2="96.4528" gradientUnits="userSpaceOnUse">
<stop stop-color="#F5F549"/>
<stop offset="1" stop-color="#97C924"/>
</linearGradient>
<linearGradient id="paint16_linear_4275_16223" x1="-1134.97" y1="97.7785" x2="-1134.97" y2="96.9724" gradientUnits="userSpaceOnUse">
<stop stop-color="#F5F549"/>
<stop offset="1" stop-color="#97C924"/>
</linearGradient>
<linearGradient id="paint17_linear_4275_16223" x1="-973.826" y1="-89.8249" x2="-973.826" y2="-89.1393" gradientUnits="userSpaceOnUse">
<stop stop-color="#F5F549"/>
<stop offset="1" stop-color="#97C924"/>
</linearGradient>
<linearGradient id="paint18_linear_4275_16223" x1="-8784.99" y1="-16.5146" x2="-8737.17" y2="-16.5146" gradientUnits="userSpaceOnUse">
<stop stop-color="#002255"/>
<stop offset="0.5" stop-color="#0044AA"/>
<stop offset="1" stop-color="#002255"/>
</linearGradient>
<linearGradient id="paint19_linear_4275_16223" x1="-19145.5" y1="-66.9468" x2="-19088.6" y2="-66.9468" gradientUnits="userSpaceOnUse">
<stop stop-color="#002255"/>
<stop offset="0.5" stop-color="#0044AA"/>
<stop offset="1" stop-color="#002255"/>
</linearGradient>
<linearGradient id="paint20_linear_4275_16223" x1="-19145.5" y1="-67.3834" x2="-19088.6" y2="-67.3834" gradientUnits="userSpaceOnUse">
<stop stop-color="#002255"/>
<stop offset="0.5" stop-color="#0044AA"/>
<stop offset="1" stop-color="#002255"/>
</linearGradient>
<linearGradient id="paint21_linear_4275_16223" x1="-19145.5" y1="-68.1761" x2="-19088.6" y2="-68.1761" gradientUnits="userSpaceOnUse">
<stop stop-color="#002255"/>
<stop offset="0.5" stop-color="#0044AA"/>
<stop offset="1" stop-color="#002255"/>
</linearGradient>
<linearGradient id="paint22_linear_4275_16223" x1="-19145.5" y1="-67.4323" x2="-19088.6" y2="-67.4323" gradientUnits="userSpaceOnUse">
<stop stop-color="#002255"/>
<stop offset="0.5" stop-color="#0044AA"/>
<stop offset="1" stop-color="#002255"/>
</linearGradient>
<linearGradient id="paint23_linear_4275_16223" x1="-19145.5" y1="-67.6065" x2="-19088.6" y2="-67.6065" gradientUnits="userSpaceOnUse">
<stop stop-color="#002255"/>
<stop offset="0.5" stop-color="#0044AA"/>
<stop offset="1" stop-color="#002255"/>
</linearGradient>
<linearGradient id="paint24_linear_4275_16223" x1="-19145.5" y1="-68.0685" x2="-19088.6" y2="-68.0685" gradientUnits="userSpaceOnUse">
<stop stop-color="#002255"/>
<stop offset="0.5" stop-color="#0044AA"/>
<stop offset="1" stop-color="#002255"/>
</linearGradient>
<linearGradient id="paint25_linear_4275_16223" x1="-19145.5" y1="-67.9397" x2="-19088.6" y2="-67.9397" gradientUnits="userSpaceOnUse">
<stop stop-color="#002255"/>
<stop offset="0.5" stop-color="#0044AA"/>
<stop offset="1" stop-color="#002255"/>
</linearGradient>
<linearGradient id="paint26_linear_4275_16223" x1="-19145.5" y1="-68.3689" x2="-19088.6" y2="-68.3689" gradientUnits="userSpaceOnUse">
<stop stop-color="#002255"/>
<stop offset="0.5" stop-color="#0044AA"/>
<stop offset="1" stop-color="#002255"/>
</linearGradient>
<linearGradient id="paint27_linear_4275_16223" x1="-19145.5" y1="-69.1551" x2="-19088.6" y2="-69.1551" gradientUnits="userSpaceOnUse">
<stop stop-color="#002255"/>
<stop offset="0.5" stop-color="#0044AA"/>
<stop offset="1" stop-color="#002255"/>
</linearGradient>
</defs>
</svg>
