<svg width="30" height="30" viewBox="0 0 30 30" fill="none" xmlns="http://www.w3.org/2000/svg">
<mask id="mask0_4275_16219" style="mask-type:alpha" maskUnits="userSpaceOnUse" x="5" y="5" width="20" height="20">
<circle cx="15" cy="15" r="10" fill="#C4C4C4"/>
</mask>
<g mask="url(#mask0_4275_16219)">
<path d="M2 5H27.8824V25H2V5Z" fill="#0073CF"/>
<path d="M2 11.668H27.8824V18.332H2V11.668Z" fill="white"/>
<path d="M14.9409 14.2737L14.6289 15.361L15.1489 15.4696L14.9409 14.2737Z" fill="#0073CF"/>
<path d="M14.9405 14.2737L15.2524 15.361L14.7324 15.4696L14.9405 14.2737Z" fill="#0073CF"/>
<path d="M15.9315 15.0249L14.8457 15.0505L14.9075 15.6014L15.9315 15.0249Z" fill="#0073CF"/>
<path d="M15.9316 15.0249L15.0389 15.6714L14.7793 15.1878L15.9316 15.0249Z" fill="#0073CF"/>
<path d="M13.9541 15.0249L14.8468 15.6714L15.1064 15.1878L13.9541 15.0249Z" fill="#0073CF"/>
<path d="M13.9541 15.0249L15.0399 15.0505L14.9781 15.6014L13.9541 15.0249Z" fill="#0073CF"/>
<path d="M15.5527 16.2404L15.1935 15.1699L14.7119 15.3993L15.5527 16.2404Z" fill="#0073CF"/>
<path d="M15.5523 16.2404L14.6885 15.5522L15.048 15.1443L15.5523 16.2404Z" fill="#0073CF"/>
<path d="M14.3301 16.2404L15.1939 15.5522L14.8344 15.1443L14.3301 16.2404Z" fill="#0073CF"/>
<path d="M14.3301 16.2412L14.6892 15.1707L15.1708 15.4L14.3301 16.2412Z" fill="#0073CF"/>
<path d="M20.1415 12.5342L19.8296 13.6215L20.3496 13.7301L20.1415 12.5342Z" fill="#0073CF"/>
<path d="M20.1417 12.5342L20.4536 13.6215L19.9336 13.7301L20.1417 12.5342Z" fill="#0073CF"/>
<path d="M21.1307 13.2854L20.0449 13.311L20.1067 13.8619L21.1307 13.2854Z" fill="#0073CF"/>
<path d="M21.1308 13.2854L20.2382 13.9319L19.9785 13.4494L21.1308 13.2854Z" fill="#0073CF"/>
<path d="M19.1523 13.2854L20.045 13.9319L20.3047 13.4483L19.1523 13.2854Z" fill="#0073CF"/>
<path d="M19.1523 13.2854L20.2381 13.311L20.1763 13.8619L19.1523 13.2854Z" fill="#0073CF"/>
<path d="M20.7553 14.5019L20.3962 13.4314L19.9146 13.6631L20.7553 14.5019Z" fill="#0073CF"/>
<path d="M20.7529 14.5012L19.8892 13.813L20.2486 13.405L20.7529 14.5012Z" fill="#0073CF"/>
<path d="M19.5303 14.5012L20.3941 13.813L20.0346 13.405L19.5303 14.5012Z" fill="#0073CF"/>
<path d="M19.5298 14.5019L19.8889 13.4314L20.3705 13.6631L19.5298 14.5019Z" fill="#0073CF"/>
<path d="M20.1415 15.7954L19.8296 16.8827L20.3496 16.9913L20.1415 15.7954Z" fill="#0073CF"/>
<path d="M20.1417 15.7954L20.4536 16.8827L19.9336 16.9913L20.1417 15.7954Z" fill="#0073CF"/>
<path d="M21.1307 16.5464L20.0449 16.572L20.1067 17.1229L21.1307 16.5464Z" fill="#0073CF"/>
<path d="M21.1308 16.5464L20.2382 17.1929L19.9785 16.7093L21.1308 16.5464Z" fill="#0073CF"/>
<path d="M19.1523 16.5464L20.045 17.1929L20.3047 16.7093L19.1523 16.5464Z" fill="#0073CF"/>
<path d="M19.1523 16.5464L20.2381 16.572L20.1763 17.1229L19.1523 16.5464Z" fill="#0073CF"/>
<path d="M20.7553 17.7631L20.3962 16.6926L19.9146 16.9243L20.7553 17.7631Z" fill="#0073CF"/>
<path d="M20.7529 17.7624L19.8892 17.0742L20.2486 16.6663L20.7529 17.7624Z" fill="#0073CF"/>
<path d="M19.5303 17.7624L20.3941 17.0742L20.0346 16.6663L19.5303 17.7624Z" fill="#0073CF"/>
<path d="M19.5298 17.7631L19.8889 16.6926L20.3705 16.9243L19.5298 17.7631Z" fill="#0073CF"/>
<path d="M9.74114 12.5342L9.4292 13.6215L9.94923 13.7301L9.74114 12.5342Z" fill="#0073CF"/>
<path d="M9.74031 12.5342L10.0523 13.6215L9.53223 13.7301L9.74031 12.5342Z" fill="#0073CF"/>
<path d="M10.7308 13.2854L9.64502 13.311L9.70682 13.8619L10.7308 13.2854Z" fill="#0073CF"/>
<path d="M10.7304 13.2854L9.83777 13.9319L9.57812 13.4494L10.7304 13.2854Z" fill="#0073CF"/>
<path d="M8.75195 13.2854L9.64463 13.9319L9.90428 13.4483L8.75195 13.2854Z" fill="#0073CF"/>
<path d="M8.75195 13.2854L9.83772 13.311L9.77592 13.8619L8.75195 13.2854Z" fill="#0073CF"/>
<path d="M10.3544 14.5019L9.9953 13.4314L9.51367 13.6631L10.3544 14.5019Z" fill="#0073CF"/>
<path d="M10.3526 14.5012L9.48877 13.813L9.84825 13.405L10.3526 14.5012Z" fill="#0073CF"/>
<path d="M9.13037 14.5012L9.99416 13.813L9.63467 13.405L9.13037 14.5012Z" fill="#0073CF"/>
<path d="M9.13037 14.5019L9.48949 13.4314L9.97112 13.6631L9.13037 14.5019Z" fill="#0073CF"/>
<path d="M9.74114 15.7954L9.4292 16.8827L9.94923 16.9913L9.74114 15.7954Z" fill="#0073CF"/>
<path d="M9.74031 15.7954L10.0523 16.8827L9.53223 16.9913L9.74031 15.7954Z" fill="#0073CF"/>
<path d="M10.7308 16.5464L9.64502 16.572L9.70682 17.1229L10.7308 16.5464Z" fill="#0073CF"/>
<path d="M10.7304 16.5464L9.83777 17.1929L9.57812 16.7093L10.7304 16.5464Z" fill="#0073CF"/>
<path d="M8.75195 16.5464L9.64463 17.1929L9.90428 16.7093L8.75195 16.5464Z" fill="#0073CF"/>
<path d="M8.75195 16.5464L9.83772 16.572L9.77592 17.1229L8.75195 16.5464Z" fill="#0073CF"/>
<path d="M10.3544 17.7631L9.9953 16.6926L9.51367 16.9243L10.3544 17.7631Z" fill="#0073CF"/>
<path d="M10.3526 17.7624L9.48877 17.0742L9.84825 16.6663L10.3526 17.7624Z" fill="#0073CF"/>
<path d="M9.12988 17.7624L9.99367 17.0742L9.63418 16.6663L9.12988 17.7624Z" fill="#0073CF"/>
<path d="M9.13037 17.7631L9.48949 16.6926L9.97112 16.9243L9.13037 17.7631Z" fill="#0073CF"/>
</g>
</svg>
