<svg width="30" height="30" viewBox="0 0 30 30" fill="none" xmlns="http://www.w3.org/2000/svg">
<mask id="mask0_4275_16220" style="mask-type:alpha" maskUnits="userSpaceOnUse" x="5" y="5" width="20" height="20">
<circle cx="15" cy="15" r="10" fill="#C4C4C4"/>
</mask>
<g mask="url(#mask0_4275_16220)">
<path fill-rule="evenodd" clip-rule="evenodd" d="M2.04297 5H27.9253V25H2.04297V5Z" fill="white"/>
<path fill-rule="evenodd" clip-rule="evenodd" d="M14.9272 5H27.8823V14.9531H14.9313L14.9272 5Z" fill="#DB0000"/>
<path d="M14.9323 14.9531H2V25H14.9323V14.9531Z" fill="#0000AB"/>
<path fill-rule="evenodd" clip-rule="evenodd" d="M11.868 12.9857L10.008 11.593L8.16 13L8.848 10.7107L7 9.29889L9.284 9.27981L9.992 7L10.716 9.27504H13L11.164 10.7059L11.868 12.9857Z" fill="#0000AB"/>
<path fill-rule="evenodd" clip-rule="evenodd" d="M21.8648 22.9857L20.01 21.5919L18.1592 23L18.8468 20.7088L17 19.3007L19.2865 19.2816L19.994 17L20.7135 19.2768H23L21.1612 20.7088L21.8648 22.9857Z" fill="#D80000"/>
</g>
</svg>
