<svg width="30" height="30" viewBox="0 0 30 30" fill="none" xmlns="http://www.w3.org/2000/svg">
<mask id="mask0_4275_16222" style="mask-type:alpha" maskUnits="userSpaceOnUse" x="5" y="5" width="20" height="20">
<circle cx="15" cy="15" r="10" fill="#C4C4C4"/>
</mask>
<g mask="url(#mask0_4275_16222)">
<g filter="url(#filter0_d_4275_16222)">
<path d="M2 5H27.8824V25H2V5Z" fill="#4997D0"/>
<path d="M11.0024 5H18.8797V25H11.0024V5Z" fill="white"/>
<path d="M14.9945 16.7767C14.9737 16.7442 14.9441 16.7188 14.9094 16.7039C14.7148 16.6035 14.5057 16.5371 14.2905 16.5073C14.2363 16.4992 14.1846 16.4481 14.1304 16.4208C14.0018 16.3591 13.8597 16.3349 13.7359 16.2692C13.7169 16.2585 13.6996 16.2449 13.6846 16.2287C13.6329 16.1696 13.5425 16.1509 13.4883 16.0943C13.2717 15.884 13.0449 15.6898 12.9264 15.4068C12.7814 15.064 12.6039 14.7112 12.6271 14.3199C12.6426 14.0773 12.6092 13.8265 12.6658 13.592C12.7538 13.2442 12.8621 12.9019 13.0628 12.6133L13.0294 12.635C12.8384 12.9317 12.7036 13.2639 12.6324 13.6137C12.573 13.8483 12.6068 14.099 12.5938 14.3416C12.5681 14.7324 12.7485 15.0858 12.8902 15.428C13.0091 15.7085 13.2383 15.9052 13.4525 16.1185C13.5091 16.1721 13.5976 16.1913 13.6459 16.253C13.6615 16.2687 13.6788 16.2823 13.6977 16.2934C13.8239 16.3581 13.9656 16.3824 14.0947 16.4451C14.1464 16.4724 14.1977 16.5209 14.2494 16.529C14.4665 16.5577 14.6775 16.6242 14.8736 16.7256C14.9076 16.7406 14.937 16.7649 14.9587 16.7959L14.9921 16.7742" fill="#406325"/>
<path d="M12.9371 15.337C12.8841 15.1298 12.8823 14.9118 12.9318 14.7036C13.1049 15.0539 13.0488 15.3446 12.9371 15.337ZM14.1208 16.5614C13.9376 16.572 13.589 16.8141 13.5561 16.8687C13.9453 16.8713 14.175 16.6716 14.1208 16.5614ZM14.3143 16.4451C14.1381 16.2427 14.0139 15.997 13.9531 15.7308C14.3399 16.022 14.4405 16.386 14.3143 16.4451Z" fill="#67923D"/>
<path d="M14.1825 16.4483C13.9969 16.2837 13.8549 16.0721 13.77 15.8336C14.1646 16.0525 14.2932 16.3781 14.1825 16.4483ZM13.7802 16.2648C13.8058 16.0545 13.6351 15.6122 13.5867 15.5637C13.5094 16.0085 13.6641 16.3078 13.7826 16.2648H13.7802ZM13.0761 15.6077C13.0171 15.456 13.0607 15.0875 13.0892 15.0415C13.2309 15.359 13.1743 15.6152 13.0761 15.6097V15.6077ZM12.7231 13.5396C12.8641 13.3486 13.0507 13.1999 13.2642 13.1084C13.0916 13.5042 12.8005 13.6468 12.7231 13.5416V13.5396Z" fill="#67923D"/>
<path d="M12.7415 13.3878C12.8436 13.1703 12.9983 12.9845 13.1903 12.8489C13.0945 13.272 12.8368 13.4742 12.7415 13.3878ZM13.461 16.0624C13.3319 15.8951 13.2546 15.4179 13.2725 15.3507C13.5626 15.6878 13.5819 16.0301 13.4581 16.0624H13.461ZM12.7207 15.0782C12.5404 15.108 12.169 14.9543 12.1279 14.9083C12.5041 14.8224 12.7589 14.9624 12.7207 15.0782ZM12.6622 14.8168C12.683 14.6687 12.8842 14.3907 12.9277 14.3695C12.904 14.693 12.7391 14.8709 12.6622 14.8168ZM13.9852 16.3996C13.734 16.4581 13.5019 16.5845 13.3121 16.7661C13.7782 16.7686 14.0539 16.5316 13.9871 16.3996H13.9852Z" fill="#67923D"/>
<path d="M12.9404 15.3347C13.0482 15.3403 13.1053 15.0541 12.9327 14.7038C12.965 14.9126 12.9676 15.1251 12.9404 15.3347ZM13.2305 15.8741C13.0716 15.7251 12.8791 15.6207 12.6711 15.5708C12.8988 15.9009 13.1827 15.9792 13.2291 15.8741H13.2305ZM12.6019 14.445C12.5283 14.1993 12.397 13.9769 12.2199 13.7979C12.2567 14.2615 12.4917 14.5178 12.6 14.445H12.6019ZM12.8186 15.3696C12.6894 15.2685 12.3282 15.224 12.277 15.2432C12.5381 15.4641 12.7958 15.4697 12.8166 15.3696H12.8186ZM12.5768 14.6983C12.4652 14.5375 12.3151 14.4102 12.1416 14.3292C12.2799 14.6634 12.5173 14.7887 12.5739 14.6983H12.5768ZM12.6464 13.4178C12.6725 13.2156 12.5047 12.7869 12.4583 12.7384C12.3805 13.1711 12.5304 13.4582 12.6435 13.4178H12.6464ZM12.7625 13.0134C12.8321 12.841 12.7833 12.4123 12.7499 12.3562C12.5845 12.7202 12.6532 13.0194 12.7625 13.0134Z" fill="#406325"/>
<path d="M12.888 12.8085C12.9591 12.6446 12.99 12.4648 12.9779 12.2853C12.7927 12.5466 12.7976 12.7948 12.888 12.8085ZM13.0427 12.6437C13.157 12.5105 13.2369 12.3491 13.2748 12.1746C13.0243 12.3621 12.96 12.6007 13.0427 12.6437ZM12.6303 13.8064C12.5845 13.6216 12.4949 13.4519 12.3696 13.313C12.3798 13.7123 12.5297 13.863 12.6274 13.8064H12.6303ZM13.4682 16.1196C13.263 16.0079 13.0342 15.9523 12.8029 15.9578C13.1278 16.2404 13.445 16.246 13.4682 16.1216V16.1196ZM13.7777 16.2601C13.6616 16.3031 13.5093 16.0074 13.5843 15.5615C13.6563 15.9391 13.7438 16.2359 13.7777 16.2627V16.2601ZM14.1229 16.5634C14.1747 16.6711 13.9479 16.8708 13.5611 16.8667C13.8705 16.7318 14.1075 16.5998 14.1205 16.5634H14.1229ZM14.3115 16.4421C14.4401 16.3799 14.3396 16.0241 13.9503 15.7304C14.1722 16.0867 14.3241 16.3941 14.3115 16.4426V16.4421Z" fill="#406325"/>
<path d="M14.1825 16.4453C14.2908 16.3725 14.1646 16.0545 13.77 15.8336C14.0156 16.1354 14.1878 16.3998 14.1825 16.4453ZM13.0785 15.6097C13.1753 15.6152 13.2333 15.3569 13.0916 15.0435C13.11 15.3402 13.1018 15.5829 13.0785 15.6097ZM12.7231 13.5371C12.8005 13.6448 13.0839 13.5022 13.2618 13.1084C12.9988 13.3612 12.7642 13.5396 12.7231 13.5396V13.5371Z" fill="#406325"/>
<path d="M12.7469 13.3878C12.8397 13.4742 13.0945 13.272 13.1903 12.8489C12.9838 13.1532 12.788 13.3827 12.7469 13.3878ZM13.461 16.0599C13.5819 16.0301 13.564 15.6878 13.2725 15.3522C13.4016 15.7146 13.4789 16.0195 13.461 16.0599ZM12.7159 15.0782C12.7517 14.9624 12.5017 14.8254 12.1279 14.9083C12.4451 14.968 12.6951 15.0413 12.7159 15.0782ZM12.6622 14.8168C12.7396 14.8709 12.904 14.693 12.9306 14.3695C12.8624 14.5309 12.7729 14.6814 12.6647 14.8168H12.6622ZM13.9852 16.3996C14.0519 16.5341 13.7787 16.7686 13.3145 16.7636C13.6825 16.6084 13.9678 16.4481 13.9871 16.3996H13.9852Z" fill="#406325"/>
<path d="M12.7584 15.1929C12.6511 15.0142 12.5012 14.8679 12.3232 14.7683C12.4494 15.1348 12.6869 15.2834 12.7584 15.1929Z" fill="#406325"/>
<path d="M12.5791 13.7841C12.6821 13.6577 13.0303 13.5364 13.0844 13.5415C12.8784 13.8246 12.6202 13.8812 12.5791 13.7841ZM13.2237 15.8739C13.1797 15.9816 12.8988 15.9007 12.6667 15.5747C12.8384 15.702 13.0268 15.8028 13.2261 15.8739H13.2237ZM12.5951 14.4448C12.4868 14.5176 12.2566 14.2613 12.216 13.7978C12.3881 14.1562 12.5535 14.4312 12.597 14.4448H12.5951ZM12.8117 15.3694C12.7938 15.4705 12.5361 15.4665 12.2755 15.243C12.4481 15.3119 12.6294 15.3545 12.8137 15.3694H12.8117ZM12.5699 14.6956C12.5081 14.7845 12.2798 14.6632 12.1348 14.3291C12.3495 14.5444 12.538 14.6981 12.5714 14.6956H12.5699ZM12.6396 13.4151C12.5259 13.4581 12.379 13.1724 12.4515 12.7407C12.5226 13.1047 12.6077 13.3934 12.641 13.4151H12.6396ZM12.7556 13.0107C12.6449 13.0188 12.5777 12.7195 12.7426 12.3535C12.7237 12.7033 12.7314 12.9834 12.759 13.0132L12.7556 13.0107ZM12.8847 12.8085C12.7967 12.7923 12.788 12.5466 12.9776 12.2853C12.9219 12.4538 12.8911 12.6302 12.8862 12.8085H12.8847ZM13.0395 12.6437C12.9592 12.5982 13.0211 12.3636 13.2711 12.1746C13.1726 12.3182 13.095 12.4763 13.0409 12.6437H13.0395Z" fill="#67923D"/>
<path d="M12.6273 13.8083C12.5267 13.8649 12.3797 13.7143 12.3696 13.3149C12.4987 13.6304 12.5915 13.7952 12.6273 13.8083ZM13.4653 16.1216C13.4421 16.2459 13.1268 16.2404 12.8028 15.9628C13.1452 16.0786 13.4295 16.1433 13.4653 16.1216ZM13.254 15.8658C13.1569 15.7107 13.0984 15.5328 13.0838 15.3481C13.3159 15.5827 13.3468 15.8359 13.2593 15.8658H13.254ZM12.8188 15.1914C12.741 14.9956 12.7143 14.7818 12.7414 14.5717C12.9576 14.8921 12.9314 15.1833 12.8207 15.1929L12.8188 15.1914ZM12.7491 15.1944C12.6795 15.2834 12.4426 15.1378 12.314 14.7683C12.4386 14.9318 12.5859 15.075 12.7511 15.1929L12.7491 15.1944Z" fill="#67923D"/>
<path d="M12.5786 13.784C12.6197 13.8811 12.8726 13.8245 13.0815 13.5444C12.772 13.7269 12.6507 13.8083 12.5786 13.784ZM12.8204 15.1863C12.9311 15.1783 12.9567 14.8896 12.743 14.5716C12.8001 14.7718 12.8262 14.9801 12.8204 15.1889V15.1863ZM13.2585 15.8658C13.3465 15.8385 13.3155 15.5827 13.0858 15.3481C13.1975 15.6095 13.2696 15.8334 13.2565 15.8658H13.2585Z" fill="#406325"/>
<path d="M12.6248 14.2645C12.6606 14.0286 12.6226 13.7869 12.5165 13.5754C12.3927 13.9895 12.5088 14.2912 12.6248 14.2645Z" fill="#406325"/>
<path d="M12.6195 14.3179C12.4648 14.3533 12.3952 13.9943 12.5141 13.5874C12.5398 13.9514 12.5862 14.2911 12.6171 14.3153L12.6195 14.3179Z" fill="#67923D"/>
<path d="M12.5866 14.3154C12.5735 14.1132 12.7669 13.6952 12.8187 13.6497C12.8704 14.0753 12.7026 14.3584 12.5866 14.3154Z" fill="#67923D"/>
<path d="M12.5889 14.3129C12.7025 14.3559 12.8703 14.0753 12.8185 13.6497C12.7281 14.0081 12.6251 14.2912 12.5889 14.3129Z" fill="#406325"/>
<path d="M12.6226 14.5743C12.6579 14.3397 12.7522 14.1192 12.8958 13.9353C12.9165 14.3721 12.7333 14.6334 12.6226 14.5743Z" fill="#67923D"/>
<path d="M12.625 14.5768C12.7333 14.6364 12.9151 14.3801 12.8958 13.9434C12.7821 14.2886 12.6617 14.5606 12.625 14.5768Z" fill="#406325"/>
<path d="M12.6926 13.2022C12.7083 13.2022 12.7211 13.1889 12.7211 13.1724C12.7211 13.1559 12.7083 13.1426 12.6926 13.1426C12.6768 13.1426 12.6641 13.1559 12.6641 13.1724C12.6641 13.1889 12.6768 13.2022 12.6926 13.2022Z" fill="#BA1F3E"/>
<path d="M12.9089 13.035C12.9247 13.035 12.9374 13.0216 12.9374 13.0052C12.9374 12.9887 12.9247 12.9753 12.9089 12.9753C12.8931 12.9753 12.8804 12.9887 12.8804 13.0052C12.8804 13.0216 12.8931 13.035 12.9089 13.035Z" fill="#BA1F3E"/>
<path d="M12.8161 12.9434C12.8319 12.9434 12.8447 12.9301 12.8447 12.9136C12.8447 12.8971 12.8319 12.8838 12.8161 12.8838C12.8004 12.8838 12.7876 12.8971 12.7876 12.9136C12.7876 12.9301 12.8004 12.9434 12.8161 12.9434Z" fill="#BA1F3E"/>
<path d="M12.5807 14.8735C12.5992 14.8735 12.6141 14.8579 12.6141 14.8386C12.6141 14.8193 12.5992 14.8037 12.5807 14.8037C12.5623 14.8037 12.5474 14.8193 12.5474 14.8386C12.5474 14.8579 12.5623 14.8735 12.5807 14.8735Z" fill="#BA1F3E"/>
<path d="M12.6457 14.4418C12.6641 14.4418 12.679 14.4262 12.679 14.407C12.679 14.3877 12.6641 14.3721 12.6457 14.3721C12.6272 14.3721 12.6123 14.3877 12.6123 14.407C12.6123 14.4262 12.6272 14.4418 12.6457 14.4418Z" fill="#BA1F3E"/>
<path d="M12.9865 15.4504C13.0049 15.4504 13.0199 15.4348 13.0199 15.4155C13.0199 15.3962 13.0049 15.3806 12.9865 15.3806C12.9681 15.3806 12.9531 15.3962 12.9531 15.4155C12.9531 15.4348 12.9681 15.4504 12.9865 15.4504Z" fill="#BA1F3E"/>
<path d="M12.8366 15.5014C12.855 15.5014 12.87 15.4858 12.87 15.4665C12.87 15.4473 12.855 15.4316 12.8366 15.4316C12.8182 15.4316 12.8032 15.4473 12.8032 15.4665C12.8032 15.4858 12.8182 15.5014 12.8366 15.5014Z" fill="#BA1F3E"/>
<path d="M13.9787 16.3427C13.9971 16.3427 14.012 16.3271 14.012 16.3078C14.012 16.2886 13.9971 16.2729 13.9787 16.2729C13.9603 16.2729 13.9453 16.2886 13.9453 16.3078C13.9453 16.3271 13.9603 16.3427 13.9787 16.3427Z" fill="#BA1F3E"/>
<path d="M14.0539 16.5341C14.0723 16.5341 14.0872 16.5185 14.0872 16.4992C14.0872 16.48 14.0723 16.4644 14.0539 16.4644C14.0354 16.4644 14.0205 16.48 14.0205 16.4992C14.0205 16.5185 14.0354 16.5341 14.0539 16.5341Z" fill="#BA1F3E"/>
<path d="M14.6929 16.7743C14.7144 16.7424 14.7438 16.7173 14.778 16.7015C14.9728 16.6019 15.1818 16.5363 15.3969 16.5074C15.4511 16.4968 15.5028 16.4452 15.5569 16.421C15.6856 16.3563 15.8277 16.332 15.9515 16.2693C15.9708 16.2582 15.9882 16.2436 16.0028 16.2264C16.0545 16.1672 16.1449 16.148 16.1991 16.0914C16.4157 15.8811 16.6425 15.687 16.761 15.4039C16.906 15.0616 17.0835 14.7083 17.0603 14.3201C17.0448 14.0724 17.0782 13.8241 17.0216 13.5921C16.9509 13.2412 16.817 12.9075 16.627 12.6089L16.6604 12.6306C16.8514 12.9273 16.9862 13.2595 17.0574 13.6093C17.1168 13.8439 17.0835 14.0946 17.096 14.3398C17.1222 14.728 16.9413 15.0814 16.7996 15.4261C16.6812 15.7067 16.4515 15.9008 16.2373 16.1136C16.1807 16.1677 16.0922 16.1864 16.0439 16.2486C16.0283 16.2643 16.011 16.2779 15.9921 16.289C15.8659 16.3563 15.7243 16.3805 15.5951 16.4407C15.5434 16.4675 15.4922 16.516 15.4404 16.5271C15.2234 16.5551 15.0125 16.6207 14.8162 16.7212C14.7821 16.7371 14.7527 16.7623 14.7311 16.794L14.6977 16.7698" fill="#406325"/>
<path d="M16.7358 15.4181C16.8078 15.219 16.7358 14.7498 16.6995 14.6902C16.5269 15.1057 16.612 15.4343 16.7358 15.4181Z" fill="#406325"/>
<path d="M16.5524 15.6072C16.6119 15.4555 16.5679 15.0865 16.5423 15.041C16.3977 15.3564 16.4572 15.6153 16.5524 15.6072ZM16.9876 13.6094C16.8584 13.435 16.6877 13.2992 16.4925 13.2156C16.6506 13.5755 16.917 13.7064 16.9857 13.6094H16.9876Z" fill="#406325"/>
<path d="M16.9465 13.3933C16.8982 13.229 16.6269 12.9621 16.5728 12.9429C16.6501 13.2937 16.8682 13.4636 16.9465 13.3933ZM17.0679 13.7977C16.9775 13.687 16.6757 13.5818 16.6293 13.5874C16.8102 13.83 17.0316 13.8811 17.0679 13.7952V13.7977ZM16.9958 15.0458C17.153 15.0731 17.4857 14.9326 17.519 14.8942C17.1864 14.8168 16.9649 14.9437 16.9958 15.0458ZM16.9929 14.8942C16.9929 14.7425 16.8281 14.4392 16.787 14.4089C16.7715 14.7304 16.9107 14.9326 16.9929 14.8921V14.8942Z" fill="#406325"/>
<path d="M17.0042 14.5232C16.9679 14.2896 16.8735 14.0701 16.7305 13.8867C16.7102 14.3235 16.8929 14.5823 17.0042 14.5232ZM15.6372 16.5533C15.7998 16.7029 15.9973 16.8051 16.2097 16.8495C15.9829 16.5179 15.6914 16.4451 15.6396 16.5533H15.6372Z" fill="#406325"/>
<path d="M16.7352 15.413C16.609 15.4292 16.5263 15.1057 16.6989 14.6901C16.6863 15.0733 16.7042 15.3832 16.7352 15.413ZM15.3581 16.5909C15.5384 16.602 15.8899 16.8436 15.9204 16.8982C15.5336 16.9013 15.3015 16.7016 15.3581 16.5909ZM15.3581 16.3755C15.4098 16.1597 15.7449 15.8038 15.8092 15.7795C15.7164 16.2406 15.4562 16.467 15.3581 16.3781V16.3755ZM15.9074 16.2623C15.8817 16.052 16.0524 15.6097 16.1008 15.5611C16.1781 16.006 16.0234 16.3053 15.9074 16.2623ZM16.4591 15.871C16.6181 15.722 16.8108 15.6176 17.019 15.5677C16.7893 15.8953 16.5055 15.9762 16.4591 15.871ZM17.1244 14.4349C17.1505 14.265 17.3749 13.9521 17.4237 13.9253C17.3928 14.2918 17.2095 14.4915 17.1244 14.4374V14.4349Z" fill="#67923D"/>
<path d="M16.8229 15.4614C17.0172 15.3575 17.2334 15.3064 17.4515 15.3128C17.1479 15.5746 16.8461 15.5772 16.8229 15.4614ZM17.0889 14.8007C17.1662 14.6389 17.4912 14.418 17.5453 14.4125C17.3954 14.7628 17.1508 14.8922 17.0889 14.8007ZM17.0502 13.5713C17.0502 13.3691 17.2562 12.9591 17.3079 12.9187C17.3364 13.3529 17.1609 13.6259 17.0502 13.5713ZM16.8684 12.8701C16.8258 12.6933 16.8258 12.5081 16.8684 12.3313C17.0134 12.6275 16.9651 12.8757 16.8684 12.8701ZM16.763 12.8135C16.6267 12.6416 16.5337 12.437 16.4922 12.218C16.7963 12.4708 16.8635 12.768 16.7601 12.8135H16.763Z" fill="#67923D"/>
<path d="M17.0617 13.7436C17.1485 13.5759 17.2746 13.434 17.4282 13.3311C17.3257 13.7168 17.1453 13.8245 17.0617 13.7436ZM16.1826 16.1701C16.363 16.03 16.8659 15.9628 16.9355 15.9871C16.5694 16.305 16.2102 16.3106 16.1826 16.1675V16.1701ZM16.5511 15.6069C16.4544 15.612 16.3963 15.3542 16.5385 15.0408C16.5211 15.337 16.5298 15.5796 16.552 15.6069H16.5511ZM16.9863 13.6117C16.9166 13.7062 16.6507 13.5768 16.4911 13.2153C16.636 13.3722 16.803 13.505 16.9863 13.6091V13.6117ZM16.9423 13.3933C16.8625 13.4636 16.6521 13.2962 16.5709 12.9429C16.7455 13.1966 16.9079 13.3877 16.9442 13.3933H16.9423ZM17.066 13.7977C17.0298 13.8841 16.8107 13.8326 16.6309 13.5899C16.8987 13.7492 17.0046 13.8194 17.0689 13.7977H17.066ZM17.0008 15.0413C16.9674 14.9402 17.1893 14.8173 17.522 14.8931C17.3421 14.9145 17.1663 14.9644 17.0008 15.0413ZM16.9906 14.8896C16.9079 14.93 16.7716 14.7309 16.7841 14.4073C16.8304 14.5786 16.9 14.742 16.9906 14.8926V14.8896Z" fill="#67923D"/>
<path d="M17.0008 14.5284C16.8925 14.5881 16.7107 14.3293 16.73 13.895C16.8437 14.2403 16.9621 14.5123 17.0008 14.5284ZM15.6421 16.5505C15.6933 16.4428 15.9806 16.5156 16.2093 16.8472C16.036 16.7184 15.8446 16.6183 15.6421 16.5505Z" fill="#67923D"/>
<path d="M15.9077 16.2592C16.0262 16.3026 16.1785 16.0064 16.1035 15.561C16.0315 15.9387 15.944 16.2379 15.9077 16.2622V16.2592Z" fill="#406325"/>
<path d="M16.1732 16.1191C16.2709 15.8909 16.3118 15.6404 16.2921 15.3912C16.0339 15.7577 16.0494 16.103 16.1732 16.1191ZM15.356 16.5882C15.3043 16.699 15.5286 16.8981 15.9179 16.8916C15.7168 16.8211 15.5273 16.7188 15.356 16.5882ZM15.3608 16.3724C15.4575 16.4614 15.7167 16.2379 15.8096 15.7769C15.6007 16.111 15.4048 16.3643 15.3608 16.3699V16.3724ZM16.4623 15.8669C16.5107 15.9745 16.7897 15.8937 17.0218 15.5676C16.8502 15.6957 16.6618 15.797 16.4623 15.8684V15.8669ZM17.1277 14.4297C17.2128 14.4863 17.3931 14.2871 17.4241 13.9242C17.3497 14.1075 17.2498 14.2784 17.1277 14.4312V14.4297ZM16.823 15.4599C16.8463 15.5782 17.1431 15.5732 17.4516 15.3113C17.1277 15.421 16.8569 15.4802 16.823 15.4615V15.4599ZM17.089 14.7967C17.1533 14.8882 17.3956 14.7588 17.5454 14.4085C17.413 14.5618 17.2591 14.6932 17.089 14.7982V14.7967ZM17.0551 13.5673C17.1664 13.6209 17.339 13.3514 17.3134 12.9202C17.207 13.2721 17.0938 13.5496 17.0551 13.5688V13.5673ZM16.8748 12.8687C16.9676 12.8717 17.0165 12.626 16.8748 12.3298C16.898 12.6149 16.8956 12.8459 16.8748 12.8702V12.8687ZM16.7665 12.8095C16.8695 12.7635 16.8027 12.4673 16.4981 12.2166C16.6157 12.3994 16.7062 12.5999 16.7665 12.811V12.8095ZM17.0658 13.7452C17.148 13.8261 17.3288 13.7179 17.4318 13.3297C17.2307 13.6037 17.1045 13.7412 17.0658 13.7467V13.7452ZM16.1886 16.1687C16.2148 16.3092 16.5731 16.3036 16.9367 15.9882C16.5523 16.1191 16.2302 16.1944 16.1886 16.1702V16.1687Z" fill="#406325"/>
<path d="M16.3617 15.9631C16.4356 15.7934 16.4675 15.6071 16.4545 15.4211C16.2611 15.6906 16.2688 15.9469 16.3617 15.96V15.9631ZM16.8684 15.1891C16.9465 14.9932 16.9732 14.7791 16.9458 14.5688C16.7301 14.8898 16.7563 15.181 16.8684 15.1891Z" fill="#406325"/>
<path d="M16.1732 16.1165C16.0494 16.1003 16.0369 15.7576 16.2893 15.3936C16.1964 15.7657 16.15 16.0786 16.1732 16.1165ZM17.0813 14.2749C17.0552 14.0672 17.1843 13.733 17.2515 13.6683C17.3158 14.0565 17.1819 14.3154 17.0784 14.2749H17.0813ZM16.3589 15.9598C16.266 15.9467 16.2583 15.6904 16.4493 15.4209C16.3935 15.5948 16.363 15.7764 16.3589 15.9598ZM16.9623 13.1507C16.9058 12.9889 16.9623 12.6113 16.9933 12.5627C17.1301 12.8918 17.0619 13.1587 16.9623 13.1507ZM15.4634 16.386C15.5277 16.1706 15.8812 15.8198 15.9469 15.7955C15.8362 16.2646 15.5601 16.483 15.4634 16.389V16.386ZM16.8685 15.2672C16.9767 15.0877 17.1279 14.9408 17.3071 14.8411C17.179 15.2076 16.9391 15.3562 16.8685 15.2672ZM16.8685 15.1864C16.7578 15.1752 16.7317 14.8896 16.9459 14.5686C16.8888 14.7689 16.8627 14.9775 16.8685 15.1864Z" fill="#67923D"/>
<path d="M17.0811 14.3235C17.215 14.374 17.3132 14.0591 17.2513 13.679C17.2209 13.9013 17.1637 14.1187 17.0811 14.326V14.3235Z" fill="#406325"/>
<path d="M17.1017 14.313C17.1147 14.1108 16.9213 13.6927 16.8696 13.6467C16.8202 14.0729 16.9856 14.356 17.1017 14.313ZM16.9677 13.1503C17.0644 13.1609 17.1326 12.8976 16.9962 12.5649C17.0064 12.8753 16.9885 13.1261 16.9653 13.1503H16.9677ZM15.4688 16.3881C15.5655 16.4852 15.8401 16.2694 15.9523 15.8002C15.725 16.1319 15.5137 16.3826 15.4688 16.3881ZM16.8768 15.2694C16.9493 15.3584 17.1863 15.2128 17.3154 14.8433C17.1905 15.0068 17.0428 15.1498 16.8773 15.2674L16.8768 15.2694Z" fill="#406325"/>
<path d="M17.0992 14.3099C16.9831 14.3559 16.8182 14.0753 16.8695 13.6497C16.9599 14.0055 17.0619 14.2886 17.0992 14.3099Z" fill="#67923D"/>
<path d="M17.0197 13.2994C17.0355 13.2994 17.0483 13.286 17.0483 13.2696C17.0483 13.2531 17.0355 13.2397 17.0197 13.2397C17.004 13.2397 16.9912 13.2531 16.9912 13.2696C16.9912 13.286 17.004 13.2994 17.0197 13.2994Z" fill="#BA1F3E"/>
<path d="M17.1169 13.6197C17.1327 13.6197 17.1454 13.6064 17.1454 13.5899C17.1454 13.5734 17.1327 13.5601 17.1169 13.5601C17.1012 13.5601 17.0884 13.5734 17.0884 13.5899C17.0884 13.6064 17.1012 13.6197 17.1169 13.6197Z" fill="#BA1F3E"/>
<path d="M17.1535 14.6359C17.1719 14.6359 17.1868 14.6203 17.1868 14.601C17.1868 14.5818 17.1719 14.5662 17.1535 14.5662C17.1351 14.5662 17.1201 14.5818 17.1201 14.601C17.1201 14.6203 17.1351 14.6359 17.1535 14.6359Z" fill="#BA1F3E"/>
<path d="M17.0197 14.4474C17.0381 14.4474 17.0531 14.4318 17.0531 14.4126C17.0531 14.3933 17.0381 14.3777 17.0197 14.3777C17.0013 14.3777 16.9863 14.3933 16.9863 14.4126C16.9863 14.4318 17.0013 14.4474 17.0197 14.4474Z" fill="#BA1F3E"/>
<path d="M16.6403 15.5231C16.6587 15.5231 16.6737 15.5075 16.6737 15.4882C16.6737 15.469 16.6587 15.4534 16.6403 15.4534C16.6219 15.4534 16.6069 15.469 16.6069 15.4882C16.6069 15.5075 16.6219 15.5231 16.6403 15.5231Z" fill="#BA1F3E"/>
<path d="M16.8029 15.5959C16.8213 15.5959 16.8363 15.5803 16.8363 15.561C16.8363 15.5417 16.8213 15.5261 16.8029 15.5261C16.7845 15.5261 16.7695 15.5417 16.7695 15.561C16.7695 15.5803 16.7845 15.5959 16.8029 15.5959Z" fill="#BA1F3E"/>
<path d="M15.7091 16.4694C15.7276 16.4694 15.7425 16.4538 15.7425 16.4345C15.7425 16.4153 15.7276 16.3997 15.7091 16.3997C15.6907 16.3997 15.6758 16.4153 15.6758 16.4345C15.6758 16.4538 15.6907 16.4694 15.7091 16.4694Z" fill="#BA1F3E"/>
<path d="M15.529 16.6044C15.5474 16.6044 15.5623 16.5888 15.5623 16.5695C15.5623 16.5503 15.5474 16.5347 15.529 16.5347C15.5105 16.5347 15.4956 16.5503 15.4956 16.5695C15.4956 16.5888 15.5105 16.6044 15.529 16.6044Z" fill="#BA1F3E"/>
<path d="M16.823 13.1483C16.8387 13.1483 16.8515 13.1349 16.8515 13.1184C16.8515 13.102 16.8387 13.0886 16.823 13.0886C16.8072 13.0886 16.7944 13.102 16.7944 13.1184C16.7944 13.1349 16.8072 13.1483 16.823 13.1483Z" fill="#BA1F3E"/>
<path d="M13.7027 15.5144C13.7016 15.5218 13.7022 15.5293 13.7044 15.5364C13.7066 15.5434 13.7104 15.5499 13.7155 15.5551C13.7205 15.5604 13.7266 15.5643 13.7334 15.5667C13.7402 15.569 13.7474 15.5696 13.7544 15.5685C13.7675 15.5685 13.7723 15.5549 13.7597 15.5549C13.7543 15.5562 13.7487 15.5562 13.7433 15.5548C13.7379 15.5534 13.7329 15.5506 13.7288 15.5468C13.7217 15.5401 13.7169 15.5313 13.7149 15.5216C13.713 15.5118 13.7141 15.5017 13.7181 15.4927L13.7027 15.5144Z" fill="#8C959D"/>
<path d="M13.7776 15.5687C13.7519 15.601 13.7133 15.6142 13.69 15.5929C13.6826 15.5866 13.6773 15.5779 13.6749 15.5681C13.6725 15.5584 13.6733 15.5481 13.677 15.5388L13.6514 15.5737C13.6598 15.5945 13.6742 15.6122 13.6925 15.6243C13.7118 15.629 13.732 15.6274 13.7504 15.6197C13.7689 15.6121 13.7846 15.5986 13.7955 15.5813C13.8163 15.5545 13.837 15.5166 13.8216 15.4842C13.8095 15.4635 13.7914 15.4473 13.7698 15.4382L13.7442 15.4655C13.7517 15.4635 13.7596 15.4634 13.7672 15.4653C13.7748 15.4671 13.7818 15.4708 13.7877 15.4761C13.8216 15.5029 13.8008 15.5434 13.7776 15.5707V15.5687Z" fill="#8C959D"/>
<path d="M13.778 15.5686C13.7702 15.5793 13.7605 15.5884 13.7495 15.5954C13.7376 15.6019 13.7242 15.6047 13.7108 15.6034C13.7043 15.6023 13.6982 15.5995 13.6929 15.5954C13.6877 15.5908 13.6833 15.5853 13.6799 15.5792C13.6759 15.5737 13.6733 15.5673 13.6721 15.5605C13.6713 15.5528 13.6732 15.5451 13.6775 15.5387V15.5413L13.6494 15.5736C13.6565 15.5856 13.6651 15.5965 13.675 15.606L13.6929 15.6196C13.6996 15.622 13.7067 15.6229 13.7137 15.6221C13.7283 15.622 13.7426 15.6174 13.7548 15.609C13.7674 15.6018 13.7788 15.5926 13.7887 15.5817L13.8143 15.5443C13.8196 15.5305 13.8223 15.5157 13.822 15.5008C13.822 15.4934 13.8202 15.4861 13.8167 15.4796C13.8133 15.4736 13.8091 15.4681 13.8041 15.4634C13.7939 15.4519 13.7816 15.4426 13.7679 15.4361H13.7746L13.749 15.4659H13.7466C13.7494 15.4636 13.7527 15.4619 13.7562 15.4609C13.7597 15.46 13.7633 15.4598 13.7669 15.4604C13.7765 15.4621 13.7855 15.4665 13.7928 15.4732C13.8002 15.4799 13.8056 15.4886 13.8085 15.4983C13.8107 15.5112 13.8089 15.5245 13.8032 15.5362C13.7969 15.548 13.789 15.5589 13.78 15.5686H13.778ZM13.778 15.5686C13.7876 15.5599 13.7948 15.5488 13.7988 15.5362C13.8042 15.5244 13.8059 15.5112 13.8037 15.4983C13.7993 15.4867 13.7911 15.4771 13.7804 15.4715C13.7759 15.4675 13.7704 15.4648 13.7645 15.4638C13.7586 15.4628 13.7526 15.4636 13.7471 15.4659H13.7447L13.7703 15.4336C13.7913 15.4421 13.8094 15.4571 13.822 15.4766C13.8271 15.4847 13.8297 15.4942 13.8298 15.5039C13.8296 15.5189 13.8259 15.5336 13.8191 15.5468C13.8122 15.5606 13.8036 15.5733 13.7935 15.5847C13.7847 15.597 13.7732 15.6071 13.7601 15.6141C13.747 15.6229 13.7318 15.6277 13.7161 15.6277C13.7091 15.6281 13.7021 15.6273 13.6953 15.6252C13.688 15.6217 13.6811 15.6171 13.675 15.6115C13.6644 15.6005 13.6556 15.5877 13.6489 15.5736L13.675 15.5387H13.6799V15.5605C13.6795 15.5638 13.6798 15.5672 13.6807 15.5704C13.6816 15.5736 13.6832 15.5766 13.6852 15.5792L13.6978 15.5928L13.7132 15.6009C13.7266 15.6035 13.7405 15.6006 13.7519 15.5928C13.7626 15.5863 13.7722 15.5781 13.7804 15.5686H13.778Z" fill="#485654"/>
<path d="M15.7894 13.1709L14.7551 14.2324L13.6952 15.289L13.5767 15.4346C13.525 15.4967 13.4631 15.5776 13.3911 15.6504C13.3809 15.6666 13.3625 15.661 13.3471 15.6721C13.299 15.704 13.2557 15.743 13.2184 15.7879L12.9012 16.1519C12.8829 16.1761 12.8751 16.1898 12.8906 16.206L13.0608 16.4431C13.0918 16.4754 13.128 16.4936 13.1435 16.4648C13.2233 16.3162 13.4273 16.0927 13.5047 15.9173C13.5482 15.8096 13.6053 15.6181 13.6464 15.5721C13.6981 15.5129 13.8296 15.3618 13.9505 15.2298L13.9766 15.203L13.9998 15.1757C14.6057 14.5287 15.3054 13.7441 15.8179 13.1916L15.7918 13.1648L15.7894 13.1709Z" fill="#6C301E"/>
<path d="M13.6409 15.2943C13.6126 15.2912 13.5862 15.2778 13.5664 15.2563C13.5944 15.2704 13.6261 15.2741 13.6563 15.267L13.6409 15.2943Z" fill="#8C959D"/>
<path d="M16.8688 12.3818L16.0468 13.0896C16.0391 13.1002 16.0313 13.0976 16.0236 13.0896L15.9501 13.0233V13.0072L15.9859 12.9692C15.9912 12.9642 15.9859 12.9612 15.9834 12.9531L15.968 12.9369C15.9648 12.9357 15.9614 12.9355 15.9581 12.9365C15.9549 12.9375 15.9521 12.9396 15.9501 12.9425L15.9138 12.9829C15.9044 12.9836 15.8956 12.9878 15.8889 12.9948C15.8823 13.0017 15.8782 13.011 15.8776 13.0208C15.3824 13.5263 14.9545 13.9752 14.4618 14.4711L13.8815 15.0535C13.8279 15.0977 13.771 15.1375 13.7113 15.1723C13.6925 15.1817 13.6759 15.1956 13.663 15.2127L13.6146 15.3608L13.5503 15.4741C13.6093 15.5388 13.6069 15.5332 13.647 15.5752L13.9371 15.2547L13.9574 15.2274C13.9467 15.212 13.9347 15.1976 13.9216 15.1844L13.8907 15.1576L13.8752 15.1414C13.8699 15.1359 13.8801 15.1278 13.8854 15.1222C14.5686 14.4347 15.3036 13.6744 15.9046 13.0572C15.9129 13.0602 15.922 13.0602 15.9303 13.0572L16.0023 13.1436C16.0076 13.1501 16.0147 13.1547 16.0226 13.1566C16.0305 13.1585 16.0389 13.1577 16.0463 13.1543L16.8683 12.3834L16.8688 12.3818Z" fill="#B2B6BA"/>
<path d="M13.6181 15.3554H13.6297C13.6348 15.3566 13.6401 15.3566 13.6452 15.3554C13.6573 15.3119 13.6699 15.2689 13.6839 15.2259C13.679 15.2207 13.6728 15.217 13.666 15.2153C13.6695 15.2157 13.6729 15.2168 13.676 15.2186C13.6791 15.2205 13.6818 15.223 13.6839 15.2259L13.666 15.2907L13.6476 15.3554C13.6429 15.3583 13.6376 15.3601 13.6321 15.3609C13.6261 15.3607 13.6201 15.3596 13.6143 15.3579L13.6181 15.3554Z" fill="#485654"/>
<path d="M13.876 15.1424L13.8499 15.1206C13.8428 15.1137 13.836 15.1065 13.8296 15.0989C13.8471 15.1116 13.8633 15.1262 13.8779 15.1424H13.876Z" fill="#485654"/>
<path d="M15.4541 13.4304L15.544 13.5249L15.5595 13.5087L15.4696 13.4172L15.4541 13.4334V13.4304Z" fill="#8C959D"/>
<path d="M15.9397 15.5C15.9433 15.5091 15.9439 15.5192 15.9416 15.5288C15.9392 15.5384 15.934 15.5469 15.9267 15.5531C15.9223 15.5567 15.9172 15.5592 15.9117 15.5603C15.9062 15.5615 15.9006 15.5612 15.8952 15.5597C15.8827 15.5597 15.887 15.5728 15.8996 15.5733C15.9065 15.5748 15.9137 15.5747 15.9205 15.5728C15.9273 15.5709 15.9337 15.5673 15.9389 15.5624C15.9442 15.5575 15.9483 15.5513 15.9509 15.5444C15.9534 15.5375 15.9544 15.5301 15.9537 15.5227L15.9397 15.5Z" fill="#8C959D"/>
<path d="M15.8769 15.5721C15.8546 15.5438 15.8362 15.5024 15.8711 15.4771C15.8772 15.4721 15.8844 15.4686 15.892 15.4671C15.8997 15.4657 15.9076 15.4661 15.9151 15.4685L15.8909 15.4402C15.8687 15.4477 15.8497 15.4631 15.8372 15.4837C15.8198 15.515 15.8372 15.5539 15.858 15.5817C15.8681 15.5997 15.8831 15.6142 15.9011 15.6232C15.9191 15.6322 15.9393 15.6354 15.9591 15.6323C15.9774 15.6213 15.9925 15.6052 16.0026 15.5858L15.9784 15.5494C15.9817 15.5589 15.982 15.5692 15.9792 15.5789C15.9764 15.5885 15.9707 15.597 15.9629 15.603C15.9387 15.6232 15.901 15.6075 15.8769 15.5741V15.5721Z" fill="#8C959D"/>
<path d="M15.877 15.5723C15.868 15.5623 15.8607 15.5509 15.8553 15.5384C15.85 15.5265 15.8488 15.5132 15.8519 15.5005C15.8552 15.491 15.8609 15.4826 15.8686 15.4764C15.8762 15.4701 15.8853 15.4662 15.8949 15.4651C15.8985 15.4647 15.9022 15.4651 15.9057 15.4662C15.9092 15.4673 15.9124 15.4692 15.9152 15.4717L15.8906 15.4408H15.8935C15.8793 15.4464 15.8665 15.455 15.8557 15.4661C15.8506 15.4707 15.8461 15.476 15.8422 15.4818C15.8386 15.4883 15.8365 15.4955 15.8359 15.503C15.8353 15.5178 15.8373 15.5325 15.8417 15.5465L15.8659 15.5854C15.8751 15.5966 15.8859 15.6063 15.8978 15.6142C15.9097 15.6232 15.9238 15.6286 15.9384 15.6299C15.9453 15.6312 15.9523 15.6312 15.9592 15.6299L15.9776 15.6178C15.9882 15.6088 15.9975 15.5983 16.0052 15.5864L15.9786 15.5531V15.55C15.9825 15.5567 15.984 15.5646 15.9829 15.5723C15.9815 15.579 15.9785 15.5853 15.9742 15.5905C15.9705 15.5964 15.9659 15.6017 15.9607 15.6062C15.9551 15.6099 15.9488 15.6123 15.9423 15.6132C15.9288 15.6137 15.9153 15.6102 15.9036 15.6031C15.893 15.5956 15.884 15.586 15.877 15.5748V15.5723ZM15.877 15.5723C15.8844 15.5825 15.8936 15.5911 15.9041 15.5976C15.9151 15.6061 15.9288 15.6097 15.9423 15.6077L15.9583 15.6006L15.9718 15.588C15.9739 15.5854 15.9755 15.5824 15.9765 15.5792C15.9775 15.576 15.9779 15.5726 15.9776 15.5692V15.5475H15.9829L16.0066 15.5839C15.9995 15.5976 15.9902 15.61 15.979 15.6203C15.9727 15.6256 15.9655 15.6297 15.9578 15.6324C15.9509 15.634 15.9438 15.634 15.937 15.6324C15.9215 15.6316 15.9066 15.6261 15.8939 15.6168C15.881 15.6092 15.8701 15.5984 15.862 15.5854C15.8523 15.5737 15.8441 15.5606 15.8379 15.5465C15.832 15.5327 15.8292 15.5176 15.8296 15.5025C15.8303 15.493 15.8335 15.4839 15.8388 15.4762C15.8522 15.4572 15.871 15.443 15.8925 15.4358L15.9167 15.4697C15.9112 15.4671 15.9052 15.4662 15.8992 15.4669C15.8933 15.4676 15.8876 15.47 15.8828 15.4737C15.8721 15.479 15.8634 15.4879 15.8582 15.499C15.8557 15.5119 15.8569 15.5252 15.8615 15.5374C15.8646 15.5503 15.8714 15.5619 15.8809 15.5708L15.877 15.5723Z" fill="#485654"/>
<path d="M13.9807 13.0669L13.9536 13.0922C14.4371 13.6715 15.0996 14.4919 15.6736 15.1698L15.6958 15.1981L15.72 15.2265C15.8346 15.3645 15.9588 15.5222 16.0077 15.5844C16.0464 15.6324 16.0937 15.8265 16.1324 15.9382C16.2016 16.1172 16.394 16.3512 16.4665 16.5034C16.4811 16.5312 16.5178 16.517 16.5502 16.4862L16.7315 16.2582C16.748 16.243 16.7407 16.2294 16.7238 16.2041L16.4245 15.824C16.3893 15.7772 16.348 15.7358 16.3017 15.7011C16.2867 15.6895 16.2683 15.6941 16.2586 15.6774C16.19 15.601 16.1324 15.5166 16.0836 15.4524L15.9724 15.3008L14.9647 14.1886L13.9831 13.0699L13.9807 13.0669Z" fill="#6C301E"/>
<path d="M16.0127 15.2768C16.0426 15.2853 16.0744 15.2832 16.1031 15.2708C16.0823 15.2912 16.0552 15.3032 16.0267 15.3046L16.0127 15.2768Z" fill="#8C959D"/>
<path d="M12.9419 12.2261L13.7252 13.04C13.7326 13.0436 13.7408 13.0447 13.7488 13.0432C13.7568 13.0417 13.7641 13.0375 13.7697 13.0314L13.8456 12.949C13.8541 12.952 13.8633 12.952 13.8717 12.949C14.4418 13.5971 15.1391 14.3953 15.7885 15.1177C15.7938 15.1232 15.8035 15.1318 15.7981 15.1369L15.7817 15.1525C15.7711 15.1606 15.7599 15.1692 15.7498 15.1778C15.736 15.1903 15.7232 15.204 15.7116 15.2188L15.7309 15.2471L16.0036 15.5827C16.0472 15.5443 16.0443 15.5494 16.1066 15.4882L16.0476 15.3714L16.0085 15.2198C15.9967 15.2023 15.9815 15.1877 15.964 15.1768C15.906 15.139 15.851 15.0964 15.7996 15.0494L15.2464 14.4398C14.7784 13.9186 14.3727 13.4464 13.9027 12.9166C13.9024 12.9069 13.8988 12.8975 13.8925 12.8903C13.8862 12.8831 13.8776 12.8784 13.8683 12.8772L13.834 12.8347C13.8322 12.8319 13.8295 12.8297 13.8263 12.8286C13.8232 12.8275 13.8197 12.8275 13.8166 12.8287L13.8002 12.8438C13.7973 12.8519 13.792 12.8545 13.7968 12.86L13.8311 12.8995V12.9131L13.7533 12.9738C13.7455 12.9813 13.7373 12.9839 13.7301 12.9738L12.9453 12.2251L12.9419 12.2261Z" fill="#B2B6BA"/>
<path d="M16.0487 15.3681C16.0428 15.3688 16.0368 15.3688 16.0308 15.3681C16.0253 15.3673 16.02 15.3653 16.0153 15.362L16.0008 15.2963L15.9858 15.2306C15.9881 15.2277 15.9909 15.2254 15.994 15.2237C15.9972 15.222 16.0007 15.2211 16.0042 15.2209C15.9974 15.2225 15.9911 15.2258 15.9858 15.2306C15.9974 15.2745 16.0081 15.318 16.0182 15.362C16.0229 15.3644 16.028 15.3656 16.0332 15.3655H16.0487V15.3681Z" fill="#485654"/>
<path d="M15.7993 15.1383C15.814 15.1231 15.8302 15.1095 15.8477 15.0979C15.8408 15.1052 15.8335 15.1121 15.8259 15.1186L15.7993 15.1383Z" fill="#485654"/>
<path d="M14.306 13.3509L14.2915 13.3342L14.1948 13.4207L14.2098 13.4379L14.3065 13.3484L14.306 13.3509Z" fill="#8C959D"/>
<path d="M13.6513 16.2486C13.4019 16.1862 13.1412 16.1946 12.896 16.2728C13.3162 16.4887 13.6566 16.3967 13.6489 16.246L13.6513 16.2486ZM15.9466 16.3375C16.1478 16.2486 16.6376 16.3188 16.6995 16.3643C16.2793 16.5776 15.9365 16.4856 15.9442 16.3375H15.9466Z" fill="#67923D"/>
<path d="M13.6464 16.2511C13.6542 16.3997 13.3162 16.4912 12.896 16.2753C13.2906 16.3026 13.6126 16.2864 13.6435 16.2485L13.6464 16.2511ZM15.95 16.34C15.9423 16.4887 16.2803 16.5802 16.698 16.3643C16.3059 16.3916 15.9839 16.3754 15.95 16.3375V16.34Z" fill="#406325"/>
<path d="M15.6179 16.1593C15.1038 15.4029 14.4386 14.7723 13.6685 14.311C14.5121 14.6162 15.0687 15.3721 15.7266 16.101C15.6989 16.1296 15.6695 16.1564 15.6386 16.1812L15.6179 16.1593Z" fill="#B2B6BA"/>
<path d="M15.6721 16.154L15.6307 16.1861C15.043 15.3839 14.2205 14.6143 13.6655 14.3083C14.4395 14.6888 15.0865 15.4459 15.6644 16.1489L15.6697 16.149L15.6721 16.154Z" fill="#8C959D"/>
<path d="M15.672 16.1539L15.6307 16.1859C15.0763 15.4624 14.4408 14.7746 13.6655 14.3107L13.6655 14.3057C14.4828 14.7132 15.0904 15.4524 15.672 16.1539ZM15.672 16.1539C15.0855 15.4569 14.4852 14.7193 13.6684 14.3138L13.6684 14.3082C14.4388 14.7811 15.085 15.4558 15.6331 16.189L15.6721 16.1513L15.672 16.1539Z" fill="#485654"/>
<path d="M15.8489 16.0257C15.8004 16.0385 15.754 16.0591 15.7116 16.0869C15.705 16.109 15.6929 16.1289 15.6764 16.1444C15.66 16.1599 15.6399 16.1705 15.6182 16.1752L15.6058 16.1533C15.6055 16.1528 15.6052 16.1523 15.6047 16.152C15.6042 16.1517 15.6037 16.1515 15.6031 16.1515C15.6025 16.1515 15.602 16.1517 15.6015 16.152C15.601 16.1523 15.6007 16.1527 15.6004 16.1533C15.4504 16.1764 15.6283 16.3825 15.6873 16.255C15.7709 16.3637 15.8678 16.4604 15.9754 16.5429C16.0483 16.554 16.0727 16.4496 16.007 16.4516L16.0071 16.4379C16.1561 16.3577 15.996 16.0056 15.8523 16.0273L15.8489 16.0257ZM16.0105 16.1513C16.0689 16.2352 16.0669 16.3828 15.9676 16.4149C15.9779 16.3963 15.9472 16.3556 15.9316 16.3691C15.9395 16.35 15.9141 16.3149 15.8933 16.3228C15.9035 16.3042 15.8806 16.2722 15.8573 16.2821C15.8594 16.2769 15.8602 16.2712 15.8595 16.2655C15.8587 16.2599 15.8566 16.2546 15.8532 16.2501C15.8498 16.2457 15.8453 16.2423 15.8402 16.2403C15.8351 16.2383 15.8296 16.2378 15.8242 16.2389C15.8263 16.2336 15.827 16.2279 15.8263 16.2223C15.8256 16.2166 15.8234 16.2113 15.82 16.2068C15.8166 16.2024 15.8122 16.1989 15.8071 16.1969C15.802 16.1948 15.7965 16.1942 15.7911 16.1952C15.792 16.1878 15.7913 16.1804 15.789 16.1734C15.7868 16.1664 15.7832 16.16 15.7784 16.1546C15.8515 16.0672 15.9532 16.0412 16.0081 16.1513L16.0105 16.1513Z" fill="#FAB81C"/>
<path d="M16.0405 16.2375C16.0097 16.2206 16.0273 16.1869 16.0562 16.2028C16.0851 16.2187 16.0699 16.2534 16.0405 16.2375Z" fill="#FAB81C"/>
<path d="M16.0323 16.2127C16.003 16.1963 16.0163 16.159 16.048 16.178C16.0798 16.1969 16.0617 16.2286 16.0323 16.2127Z" fill="#FAB81C"/>
<path d="M16.0177 16.1783C15.9859 16.1644 16.0055 16.1302 16.0334 16.1436C16.0614 16.1569 16.0481 16.1942 16.0177 16.1783Z" fill="#FAB81C"/>
<path d="M15.9967 16.1514C15.9664 16.133 15.9821 16.1038 16.0124 16.1161C16.0428 16.1285 16.0281 16.1668 15.9967 16.1514Z" fill="#FAB81C"/>
<path d="M15.9713 16.1238C15.9559 16.1187 15.9507 16.1024 15.956 16.0969L15.956 16.0914C15.9734 16.1001 15.9711 16.0884 15.9716 16.0834C16.0098 16.0867 16.0147 16.1449 15.9713 16.1238Z" fill="#FAB81C"/>
<path d="M15.6892 16.2566C15.6961 16.2337 15.7079 16.2128 15.7237 16.1954C15.7395 16.178 15.7589 16.1646 15.7804 16.1562L15.6892 16.2566ZM15.6945 16.2607C15.7151 16.2603 15.7352 16.2538 15.7524 16.2419C15.7696 16.2301 15.7832 16.2133 15.7917 16.1937L15.6945 16.2607ZM15.7237 16.3014C15.7648 16.3123 15.8091 16.2697 15.8272 16.2374L15.7237 16.3014ZM15.7621 16.3446C15.7825 16.3449 15.8025 16.3389 15.8197 16.3276C15.837 16.3163 15.8507 16.3 15.8593 16.2807L15.7621 16.3446ZM15.802 16.3879C15.8216 16.3867 15.8407 16.3801 15.8571 16.3686C15.8735 16.3572 15.8867 16.3414 15.8953 16.3229L15.802 16.3879ZM15.838 16.4236C15.8573 16.4249 15.8766 16.4206 15.8937 16.4112C15.9109 16.4018 15.9252 16.3876 15.9351 16.3702L15.838 16.4236ZM15.8812 16.4643C15.899 16.4656 15.9167 16.4616 15.9323 16.4528C15.948 16.4439 15.9609 16.4307 15.9696 16.4144L15.8812 16.4643ZM15.9274 16.5031C15.9443 16.5036 15.961 16.4988 15.9754 16.4894C15.9898 16.48 16.0011 16.4663 16.008 16.4501" fill="#FAB81C"/>
<path d="M15.6892 16.2566C15.6962 16.2338 15.708 16.2128 15.7237 16.1954C15.7395 16.178 15.7589 16.1646 15.7804 16.1562C15.7595 16.1657 15.7407 16.1795 15.725 16.1967C15.7094 16.214 15.6972 16.2343 15.6892 16.2566ZM15.6945 16.2647C15.7151 16.2629 15.7348 16.2555 15.7518 16.2433C15.7689 16.2311 15.7826 16.2146 15.7917 16.1952C15.7835 16.2153 15.77 16.2325 15.7528 16.2448C15.7356 16.2572 15.7154 16.2641 15.6945 16.2647ZM15.7252 16.3029L15.7561 16.3031C15.7846 16.2887 15.8088 16.2665 15.8262 16.2389C15.818 16.2594 15.8038 16.2767 15.7857 16.2882C15.7675 16.2996 15.7463 16.3048 15.7252 16.3029ZM15.7636 16.3462C15.784 16.3454 15.8039 16.3389 15.8211 16.3271C15.8382 16.3154 15.8519 16.299 15.8607 16.2797C15.8536 16.3002 15.8403 16.3179 15.8228 16.3298C15.8052 16.3418 15.7845 16.3476 15.7636 16.3462ZM15.802 16.3869C15.8212 16.3844 15.8396 16.3773 15.8558 16.3662C15.8719 16.3551 15.8854 16.3403 15.8953 16.3229C15.8872 16.3418 15.8742 16.3579 15.8576 16.3692C15.8411 16.3806 15.8218 16.3867 15.802 16.3869ZM15.8404 16.4251C15.859 16.424 15.8772 16.4184 15.8933 16.4087C15.9095 16.399 15.9233 16.3854 15.9336 16.3692C15.9247 16.3867 15.9112 16.4013 15.8947 16.4112C15.8782 16.4211 15.8594 16.4259 15.8404 16.4251ZM15.8812 16.4628C15.8989 16.4637 15.9165 16.4596 15.9321 16.4508C15.9477 16.442 15.9606 16.4289 15.9696 16.4129C15.9615 16.4297 15.9487 16.4435 15.9329 16.4524C15.9171 16.4614 15.8991 16.465 15.8812 16.4628ZM15.9293 16.5036C15.946 16.5047 15.9626 16.5005 15.977 16.4916C15.9914 16.4827 16.0028 16.4695 16.0099 16.4537C16.0043 16.4711 15.9927 16.4858 15.9774 16.495C15.9621 16.5042 15.9442 16.5072 15.9269 16.5036L15.9293 16.5036Z" fill="#6C301E"/>
<path d="M14.1478 16.0301L14.1285 16.0533C14.0964 16.0301 14.0655 16.0049 14.0361 15.978C14.657 15.2147 15.1758 14.4291 16.0027 14.0808C15.2565 14.5831 14.6236 15.2489 14.1478 16.0321V16.0301Z" fill="#B2B6BA"/>
<path d="M14.0957 16.0227H14.101C14.643 15.2892 15.2518 14.498 16.0052 14.0759C15.4665 14.4116 14.6832 15.225 14.1368 16.0581L14.0938 16.0282L14.0957 16.0227Z" fill="#8C959D"/>
<path d="M14.0957 16.0225C14.6445 15.2941 15.2078 14.5232 16.0052 14.0732V14.0783C15.2542 14.5838 14.6513 15.3052 14.1363 16.0579L14.0933 16.0281L14.0957 16.0225ZM14.0957 16.0255L14.1368 16.0609C14.6474 15.2991 15.2586 14.5904 16.0052 14.0758V14.0808C15.2093 14.5307 14.6469 15.2996 14.0957 16.0276V16.0255Z" fill="#485654"/>
<path d="M13.9062 15.9127C13.7611 15.8996 13.6199 16.26 13.7722 16.3318V16.3454C13.705 16.3454 13.736 16.4501 13.8085 16.4349C13.9112 16.3465 14.0025 16.2445 14.0802 16.1316C14.146 16.2539 14.3128 16.0386 14.1619 16.0239C14.1619 16.0204 14.1566 16.0209 14.1571 16.0239L14.1455 16.0462C14.1238 16.0423 14.1035 16.0325 14.0865 16.0179C14.0696 16.0033 14.0566 15.9843 14.0488 15.9627C14.0052 15.9374 13.9581 15.9194 13.9091 15.9097L13.9062 15.9127ZM13.7558 16.0436C13.8041 15.9309 13.9081 15.9516 13.9855 16.035C13.981 16.0406 13.9777 16.0472 13.9758 16.0543C13.974 16.0614 13.9736 16.0688 13.9748 16.076C13.954 16.106 13.9334 16.1362 13.9129 16.1665C13.8892 16.1569 13.8675 16.1907 13.8791 16.2089C13.8578 16.2024 13.8341 16.2388 13.8428 16.257C13.8269 16.2448 13.7983 16.2868 13.8095 16.305C13.7089 16.2782 13.6992 16.1311 13.7534 16.0441L13.7558 16.0436Z" fill="#FAB81C"/>
<path d="M13.7299 16.1317C13.7009 16.1468 13.6816 16.1135 13.7125 16.0978C13.7435 16.0821 13.7609 16.113 13.7299 16.1317Z" fill="#FAB81C"/>
<path d="M13.7364 16.1028C13.7074 16.1179 13.6881 16.0846 13.7185 16.0689C13.749 16.0532 13.7645 16.0851 13.7364 16.1028Z" fill="#FAB81C"/>
<path d="M13.7506 16.071C13.7211 16.0907 13.7022 16.0559 13.7332 16.0372C13.7641 16.0184 13.7815 16.0553 13.7506 16.071Z" fill="#FAB81C"/>
<path d="M13.7689 16.0432C13.7384 16.0604 13.7205 16.0295 13.7515 16.0088C13.7824 15.9881 13.7998 16.023 13.7689 16.0432Z" fill="#FAB81C"/>
<path d="M13.793 16.0143C13.751 16.0381 13.7524 15.9794 13.7906 15.9739C13.7906 15.9794 13.7906 15.9906 13.8066 15.981V15.9865C13.8119 15.9916 13.8066 16.0083 13.7925 16.0143H13.793Z" fill="#FAB81C"/>
<path d="M13.9852 16.0352C14.0074 16.0422 14.0278 16.0546 14.0446 16.0714C14.0614 16.0881 14.0742 16.1088 14.0819 16.1317L13.9852 16.0352ZM13.9755 16.0761C13.9851 16.0954 13.9997 16.1114 14.0177 16.1223C14.0357 16.1331 14.0563 16.1383 14.0771 16.1373L13.9755 16.0761ZM13.9422 16.1216C13.962 16.1524 14.0079 16.1929 14.0485 16.1797L13.9422 16.1216ZM13.9136 16.1666C13.923 16.1847 13.937 16.1998 13.9541 16.2102C13.9711 16.2205 13.9906 16.2257 14.0103 16.2252L13.9136 16.1666ZM13.8779 16.2091C13.8872 16.2274 13.9012 16.2428 13.9182 16.2537C13.9352 16.2645 13.9546 16.2704 13.9746 16.2707L13.8779 16.2091ZM13.8421 16.2601C13.8526 16.2764 13.8672 16.2893 13.8842 16.2977C13.9012 16.3061 13.9201 16.3095 13.9388 16.3076L13.8421 16.2601ZM13.8068 16.3051C13.8164 16.3204 13.8301 16.3326 13.8461 16.3402C13.8621 16.3478 13.8798 16.3505 13.8972 16.3481L13.8068 16.3051ZM13.7705 16.3425C13.7778 16.3587 13.7896 16.3722 13.8044 16.3812C13.8191 16.3902 13.8361 16.3944 13.8532 16.3931" fill="#FAB81C"/>
<path d="M14.0814 16.1317C14.0725 16.1095 14.0593 16.0895 14.0427 16.0729C14.0261 16.0563 14.0063 16.0435 13.9847 16.0352C14.0069 16.0424 14.0271 16.0548 14.0439 16.0716C14.0607 16.0883 14.0735 16.1089 14.0814 16.1317ZM14.0457 16.1368C14.0305 16.1324 14.0163 16.1248 14.0042 16.1143C13.992 16.1039 13.9821 16.0908 13.9751 16.0761C13.9852 16.0952 14 16.1112 14.0179 16.1224C14.0358 16.1337 14.0562 16.1399 14.0771 16.1403C14.0665 16.1422 14.0556 16.141 14.0457 16.1368ZM14.0147 16.1818C13.9849 16.1713 13.9597 16.1497 13.9441 16.1211C13.9628 16.1478 13.988 16.1688 14.0171 16.1818H14.0481H14.0147ZM14.0118 16.2252C13.9915 16.2269 13.9713 16.2218 13.9539 16.2107C13.9366 16.1997 13.923 16.1832 13.9151 16.1636C13.9246 16.1818 13.9386 16.1971 13.9556 16.208C13.9725 16.2188 13.9919 16.2247 14.0118 16.2252ZM13.9756 16.2677C13.9557 16.2688 13.936 16.2639 13.9188 16.2535C13.9017 16.243 13.8878 16.2276 13.8788 16.2091C13.8895 16.226 13.9038 16.2401 13.9206 16.2503C13.9374 16.2605 13.9562 16.2664 13.9756 16.2677ZM13.8871 16.2975C13.8775 16.2943 13.8686 16.289 13.8611 16.282C13.8535 16.2751 13.8474 16.2666 13.8431 16.2571C13.8543 16.2728 13.8689 16.2856 13.8857 16.2944C13.9025 16.3032 13.921 16.3077 13.9398 16.3076C13.9217 16.3084 13.9037 16.305 13.8871 16.2975ZM13.9001 16.3481C13.8827 16.3513 13.8647 16.349 13.8485 16.3413C13.8324 16.3336 13.8188 16.321 13.8097 16.3051C13.8196 16.3201 13.8333 16.3321 13.8492 16.3396C13.8652 16.3472 13.8827 16.3501 13.9001 16.3481ZM13.8585 16.3885C13.8418 16.3933 13.8239 16.3915 13.8083 16.3837C13.7927 16.3758 13.7803 16.3622 13.7734 16.3455C13.7812 16.361 13.7932 16.3737 13.808 16.3819C13.8227 16.3901 13.8395 16.3934 13.8561 16.3915L13.8585 16.3885Z" fill="#6C301E"/>
<path d="M13.0121 12.8675C13.2165 12.7542 13.3896 12.588 13.515 12.3848C13.1127 12.498 12.9295 12.773 13.0121 12.8701V12.8675ZM16.7721 12.9944C16.6841 12.7824 16.5456 12.5976 16.3698 12.4576C16.4419 12.8675 16.6793 13.0723 16.7721 12.9969V12.9944Z" fill="#406325"/>
<path d="M13.0122 12.8677C12.9271 12.7731 13.1089 12.5012 13.5122 12.3879C13.2289 12.6149 13.0171 12.8247 13.0122 12.8677ZM16.7722 12.9946C16.6755 13.0754 16.4444 12.8702 16.3723 12.4633C16.558 12.76 16.7335 12.989 16.7722 12.9946Z" fill="#67923D"/>
<path d="M14.1208 14.9225C14.1208 14.9225 13.9608 14.9418 13.9173 14.7122C13.8689 14.4671 14.0536 14.4428 14.0536 14.4428C14.0536 14.4428 14.2625 14.4185 14.3921 14.416L14.4491 14.9013L14.1189 14.9225H14.1208Z" fill="url(#paint0_radial_4275_16222)"/>
<path d="M14.1416 14.8497C14.1416 14.8497 14.0381 14.8689 14.0178 14.698C14.0023 14.5767 14.0744 14.5605 14.0744 14.5605L14.3118 14.6035V14.8244L14.1416 14.8497Z" fill="url(#paint1_radial_4275_16222)"/>
<path d="M14.0737 14.5615C14.0737 14.5615 14.226 14.5504 14.3058 14.5398L14.3392 14.6914L14.1564 14.7021C14.1564 14.7021 14.1434 14.5646 14.0737 14.5595V14.5615Z" fill="url(#paint2_radial_4275_16222)"/>
<path d="M14.043 14.4452C14.043 14.4452 14.2364 14.3947 14.262 14.6206C14.2673 14.6773 14.2364 14.8122 14.1411 14.8496L14.4994 14.8092L14.4661 14.4048L14.3471 14.4159C14.3471 14.4159 14.0894 14.424 14.043 14.4427V14.4452Z" fill="url(#paint3_radial_4275_16222)"/>
<path d="M14.1205 14.9225C14.1205 14.9225 15.459 14.8284 15.5958 14.8335C16.0029 14.602 15.5958 13.688 15.2525 13.1754C15.2912 13.0596 14.4817 12.8008 14.1181 12.8251C14.0698 12.8251 14.0253 12.8306 13.9837 12.8332C13.7854 12.8549 13.7825 13.1218 13.8628 13.2917C13.9402 13.4534 14.6442 14.7743 14.1529 14.9174L14.122 14.9225H14.1205Z" fill="#F9F0AA"/>
<path d="M15.5542 13.7148C15.4674 13.5269 15.3665 13.3466 15.2525 13.1754C15.2912 13.0596 14.4817 12.8008 14.1181 12.8251C14.0698 12.8251 14.0253 12.8306 13.9837 12.8332C13.7854 12.8549 13.7825 13.1218 13.8628 13.2917C13.8884 13.3422 13.9735 13.507 14.0664 13.7148" fill="url(#paint4_linear_4275_16222)"/>
<path d="M14.1927 14.0302C14.3377 14.424 14.417 14.839 14.1516 14.9144L14.1206 14.9225C14.1206 14.9225 15.4614 14.8284 15.5959 14.8335C15.8173 14.7071 15.797 14.3785 15.6781 14.0247" fill="url(#paint5_linear_4275_16222)"/>
<path d="M13.9971 12.9116C13.9004 12.9116 13.8757 13.0087 13.8786 13.0678C13.8811 13.2296 13.9971 13.2351 13.9971 13.2351L14.1518 13.227L14.2239 12.8979L13.9971 12.9116Z" fill="url(#paint6_radial_4275_16222)"/>
<path d="M13.9971 12.9116L14.2238 12.8979L14.25 13.1431L14.0488 13.1542C14.0488 13.1542 14.1126 12.9571 13.9971 12.9116Z" fill="url(#paint7_radial_4275_16222)"/>
<path d="M15.2528 13.1754C15.4259 13.1486 15.423 12.906 15.3045 12.8064C14.9047 12.7928 14.3786 12.8034 13.999 12.8332C14.0219 12.8315 14.0449 12.8348 14.0666 12.8429C14.0882 12.851 14.108 12.8637 14.1247 12.8802C14.1414 12.8966 14.1547 12.9166 14.1637 12.9387C14.1727 12.9608 14.1772 12.9846 14.1769 13.0086C14.1797 13.0443 14.1741 13.0801 14.1606 13.1129C14.1472 13.1458 14.1262 13.1747 14.0996 13.1972C14.0694 13.2198 14.0337 13.2329 13.9966 13.2351H14.0894L14.1668 13.224C14.5261 13.1789 14.8882 13.162 15.2499 13.1734L15.2528 13.1754Z" fill="url(#paint8_linear_4275_16222)"/>
<path d="M14.2829 13.5557C14.2776 13.5476 14.2751 13.537 14.2621 13.5344C14.2573 13.5344 14.2466 13.5344 14.2495 13.5233H14.2698L14.3114 13.5183C14.3216 13.5183 14.3191 13.5344 14.3114 13.5314C14.3037 13.5284 14.3061 13.5451 14.3085 13.5531L14.3424 13.634C14.343 13.6387 14.3451 13.6431 14.3484 13.6465C14.3516 13.6498 14.3557 13.652 14.3602 13.6527L14.3888 13.6502C14.3965 13.6446 14.3936 13.634 14.3936 13.6234C14.3936 13.6128 14.4067 13.6179 14.4067 13.6234L14.4168 13.6608C14.4168 13.6664 14.412 13.6639 14.4067 13.6639L14.3293 13.6689C14.3216 13.6689 14.3085 13.677 14.3037 13.6689C14.2988 13.6608 14.3191 13.6639 14.3191 13.6558L14.3114 13.6285L14.2829 13.5557ZM14.4067 13.5476C14.4056 13.5428 14.4035 13.5383 14.4003 13.5346C14.3972 13.5309 14.3932 13.528 14.3888 13.5264C14.3835 13.5264 14.3733 13.5264 14.3733 13.5152H14.3912L14.4352 13.5102C14.4429 13.5102 14.4453 13.5233 14.4352 13.5208C14.425 13.5183 14.4275 13.5314 14.4299 13.5395L14.4686 13.6315C14.4692 13.6352 14.4707 13.6386 14.473 13.6414C14.4753 13.6443 14.4783 13.6464 14.4816 13.6477C14.4894 13.6477 14.4995 13.6477 14.4995 13.6558C14.4995 13.6639 14.4894 13.6558 14.484 13.6558C14.4702 13.6558 14.4564 13.6577 14.4429 13.6613C14.4376 13.6613 14.4299 13.6613 14.4299 13.6532C14.4299 13.6452 14.4429 13.6532 14.4453 13.6421C14.4437 13.6326 14.4402 13.6235 14.4352 13.6153L14.4067 13.5451V13.5476ZM14.5227 13.5668C14.5227 13.5719 14.5329 13.5668 14.5358 13.5668C14.5387 13.5668 14.5512 13.5638 14.5512 13.5557C14.5504 13.5493 14.5484 13.5431 14.5452 13.5375C14.5421 13.532 14.5379 13.5271 14.5329 13.5233C14.5251 13.5152 14.5126 13.5183 14.5048 13.5183V13.5314L14.5203 13.5668H14.5227ZM14.5382 13.6098C14.5424 13.6192 14.5476 13.6282 14.5537 13.6366C14.559 13.6421 14.5691 13.6396 14.5745 13.6366C14.5798 13.6335 14.587 13.6285 14.5846 13.6234C14.584 13.6142 14.5807 13.6054 14.5752 13.5981C14.5696 13.5909 14.5621 13.5856 14.5537 13.583C14.5452 13.581 14.5365 13.581 14.528 13.583L14.5329 13.5961L14.5382 13.6098ZM14.4864 13.5451C14.4824 13.5349 14.4763 13.5258 14.4686 13.5183C14.4632 13.5183 14.4531 13.5183 14.4507 13.5127C14.4483 13.5071 14.4661 13.5127 14.471 13.5071C14.4932 13.5031 14.516 13.5031 14.5382 13.5071C14.5479 13.5098 14.5567 13.5153 14.5635 13.523C14.5704 13.5307 14.575 13.5403 14.5769 13.5506C14.5767 13.5554 14.5751 13.56 14.5723 13.5638C14.5696 13.5676 14.5657 13.5704 14.5614 13.5719L14.5745 13.5749C14.5894 13.5799 14.6021 13.5903 14.6102 13.6042C14.6134 13.61 14.6151 13.6165 14.6151 13.6232C14.6151 13.6298 14.6134 13.6364 14.6102 13.6421C14.6052 13.6463 14.5995 13.6493 14.5934 13.6512C14.5872 13.653 14.5808 13.6535 14.5745 13.6527C14.5545 13.6518 14.5345 13.6537 14.515 13.6583C14.5097 13.6583 14.5048 13.6446 14.515 13.6446C14.5251 13.6446 14.5227 13.634 14.5203 13.6285L14.4864 13.5476V13.5451ZM14.6774 13.4945C14.6852 13.4945 14.6876 13.5026 14.6905 13.5077L14.6982 13.5319C14.6905 13.5375 14.6852 13.5269 14.6828 13.5213C14.6803 13.5157 14.6721 13.5077 14.6644 13.5107C14.6541 13.5097 14.6437 13.5097 14.6334 13.5107C14.6286 13.5157 14.6334 13.5213 14.6363 13.5269L14.6518 13.5617C14.659 13.5626 14.6662 13.5606 14.6721 13.5562C14.6721 13.5511 14.6644 13.5375 14.6774 13.54C14.6905 13.5425 14.6828 13.5562 14.6876 13.5643L14.7007 13.5941C14.6929 13.6022 14.6876 13.5916 14.6852 13.5835C14.6828 13.5754 14.6673 13.5754 14.6596 13.5754C14.6518 13.5754 14.6596 13.5804 14.6596 13.5835L14.675 13.6239C14.6799 13.632 14.6929 13.632 14.7007 13.632C14.7084 13.632 14.7214 13.632 14.7263 13.6209C14.7311 13.6098 14.7185 13.6022 14.7263 13.5997C14.734 13.5971 14.7369 13.6103 14.7393 13.6158C14.7403 13.6234 14.743 13.6307 14.7471 13.6371C14.7471 13.6426 14.7393 13.6426 14.7369 13.6426L14.6596 13.6482C14.6489 13.6482 14.6363 13.6532 14.6334 13.6426C14.6305 13.632 14.6489 13.6426 14.6489 13.6264L14.6388 13.5997L14.6102 13.5294C14.6083 13.525 14.6054 13.521 14.6019 13.5178C14.5985 13.5146 14.5944 13.5122 14.5899 13.5107C14.5846 13.5107 14.5745 13.5107 14.5793 13.4996H14.6054L14.6774 13.4945ZM14.7369 13.5294C14.734 13.5191 14.7274 13.5104 14.7185 13.5051C14.7137 13.5051 14.7007 13.5051 14.7007 13.4945C14.7084 13.4889 14.7185 13.4945 14.7263 13.4945C14.7467 13.4905 14.7677 13.4905 14.7882 13.4945C14.7992 13.4975 14.8092 13.5039 14.8166 13.5129C14.824 13.522 14.8286 13.5332 14.8298 13.5451C14.8295 13.5503 14.8275 13.5552 14.8242 13.5591C14.8208 13.5629 14.8163 13.5655 14.8114 13.5663C14.8036 13.5663 14.8167 13.5693 14.8191 13.5719C14.835 13.5809 14.8477 13.5951 14.8554 13.6123C14.8578 13.6179 14.8684 13.631 14.8709 13.6179C14.8733 13.6047 14.8888 13.6179 14.8839 13.6259C14.8791 13.634 14.8762 13.6421 14.8655 13.6421C14.8599 13.6422 14.8544 13.6408 14.8494 13.638C14.8445 13.6351 14.8404 13.631 14.8375 13.6259C14.8292 13.6085 14.8177 13.5929 14.8036 13.5799C14.8009 13.5773 14.7973 13.5758 14.7935 13.5758C14.7897 13.5758 14.7861 13.5773 14.7833 13.5799V13.5906L14.7988 13.6229C14.8036 13.631 14.8143 13.631 14.8244 13.631C14.8255 13.6312 14.8266 13.6316 14.8275 13.6322C14.8284 13.6329 14.8291 13.6337 14.8297 13.6347C14.8302 13.6357 14.8305 13.6369 14.8306 13.638C14.8307 13.6391 14.8305 13.6403 14.8301 13.6414C14.8297 13.6424 14.829 13.6434 14.8282 13.6441C14.8274 13.6449 14.8264 13.6455 14.8254 13.6458C14.8243 13.6461 14.8232 13.6462 14.8221 13.646C14.821 13.6458 14.82 13.6453 14.8191 13.6446H14.7756C14.7679 13.6497 14.7524 13.6446 14.7572 13.6366C14.765 13.6366 14.7756 13.631 14.7703 13.6229L14.7447 13.5526L14.7369 13.5339V13.5294ZM14.7727 13.5562C14.778 13.5643 14.7882 13.5562 14.7959 13.5562C14.8036 13.5562 14.8036 13.543 14.8012 13.5375C14.8002 13.5305 14.7976 13.5239 14.7935 13.5182C14.7895 13.5126 14.7842 13.5081 14.778 13.5051C14.7727 13.5051 14.7572 13.4996 14.7548 13.5077L14.7727 13.5511V13.5562ZM14.9584 13.5997C14.9637 13.6077 14.9661 13.6158 14.9739 13.6184C14.9816 13.6209 14.9893 13.6184 14.9922 13.6264C14.9951 13.6345 14.9816 13.629 14.9768 13.632C14.963 13.63 14.949 13.63 14.9352 13.632C14.9274 13.632 14.9197 13.632 14.9197 13.6239C14.9197 13.6158 14.9381 13.6239 14.9381 13.6128L14.925 13.5835L14.8965 13.5051C14.8941 13.497 14.8839 13.497 14.8786 13.497C14.8733 13.497 14.8607 13.497 14.8607 13.5077C14.8607 13.5183 14.8655 13.5269 14.8607 13.5294C14.8559 13.5319 14.8501 13.5213 14.8477 13.5157L14.8399 13.4889C14.8399 13.4834 14.8477 13.4864 14.8501 13.4864L14.9584 13.4809C14.9601 13.4808 14.9618 13.4811 14.9635 13.4818C14.9651 13.4824 14.9665 13.4834 14.9678 13.4847C14.969 13.486 14.9699 13.4875 14.9706 13.4892C14.9712 13.4909 14.9715 13.4927 14.9714 13.4945C14.9714 13.5026 14.9792 13.5107 14.9816 13.5213C14.984 13.5319 14.969 13.5213 14.969 13.5132C14.9626 13.5041 14.9534 13.4975 14.9429 13.4945C14.9358 13.4938 14.9286 13.4955 14.9226 13.4996L14.9274 13.5188L14.9584 13.5997ZM15.0551 13.5754C15.0498 13.5754 15.0551 13.5835 15.0551 13.586V13.6077C15.0551 13.6158 15.0677 13.6158 15.0754 13.6184C15.0831 13.6209 15.0783 13.632 15.0706 13.629H15.0396C15.0319 13.632 15.0212 13.6264 15.0266 13.6184C15.0292 13.6184 15.0319 13.6177 15.0342 13.6162C15.0365 13.6148 15.0384 13.6127 15.0396 13.6103V13.4743C15.0444 13.4662 15.0551 13.4743 15.0551 13.4773L15.1479 13.6012C15.1505 13.6043 15.1536 13.6068 15.1571 13.6086C15.1606 13.6104 15.1643 13.6115 15.1682 13.6118C15.176 13.6118 15.1789 13.6254 15.1682 13.6229H15.1276C15.1228 13.6229 15.115 13.628 15.1097 13.6229C15.1044 13.6179 15.1097 13.6118 15.115 13.6118C15.1204 13.6118 15.115 13.6012 15.1121 13.5956L15.0967 13.5744L15.0551 13.5754ZM15.0836 13.5617C15.0885 13.5617 15.0836 13.5592 15.0836 13.5562L15.0498 13.5107V13.5643H15.0836V13.5617ZM15.1634 13.5112C15.1634 13.5006 15.1557 13.4844 15.1426 13.4844C15.1296 13.4844 15.1247 13.4788 15.13 13.4707H15.1736C15.191 13.4697 15.2084 13.4716 15.2253 13.4763C15.2451 13.4824 15.2629 13.4942 15.2766 13.5104C15.2903 13.5266 15.2993 13.5465 15.3027 13.5678C15.3035 13.5757 15.3025 13.5838 15.2999 13.5912C15.2972 13.5987 15.2928 13.6054 15.2872 13.6108C15.2674 13.6216 15.2445 13.6245 15.2229 13.6189L15.1866 13.6219C15.1789 13.6219 15.1765 13.6082 15.1866 13.6108C15.1968 13.6133 15.1968 13.5976 15.1919 13.5921L15.1634 13.5112ZM15.2151 13.5784C15.2171 13.5885 15.2214 13.5979 15.2277 13.6057H15.2538C15.2664 13.6057 15.2717 13.5921 15.2717 13.5815C15.2713 13.5615 15.2659 13.542 15.2562 13.5248C15.2515 13.5151 15.2447 13.5065 15.2363 13.5C15.2279 13.4934 15.2182 13.4889 15.2079 13.4869H15.1823C15.1794 13.4869 15.1823 13.4925 15.1823 13.4975L15.2132 13.5784H15.2151ZM14.6707 13.9131C14.6707 13.9212 14.6813 13.9292 14.6915 13.9292C14.7016 13.9292 14.7094 13.9293 14.7094 13.9399C14.7094 13.9505 14.6968 13.9399 14.6891 13.9399C14.676 13.9404 14.6631 13.9423 14.6504 13.9454H14.6272C14.6218 13.9454 14.6218 13.9343 14.6272 13.9343C14.6308 13.9348 14.6346 13.9341 14.6378 13.9322C14.6411 13.9302 14.6436 13.9273 14.645 13.9237C14.6441 13.9159 14.6415 13.9085 14.6373 13.902L14.6102 13.8281C14.6102 13.8201 14.6001 13.8201 14.5923 13.8201C14.5846 13.8201 14.5769 13.8201 14.5745 13.8145C14.572 13.8089 14.587 13.8094 14.5923 13.8039L14.618 13.7958C14.6233 13.7958 14.6257 13.7958 14.6286 13.8039L14.6721 13.9116L14.6707 13.9131ZM14.6891 13.7917H14.7408C14.7514 13.7917 14.7461 13.7781 14.7514 13.7781C14.7567 13.7781 14.7616 13.7918 14.7616 13.7968C14.762 13.7985 14.7621 13.8003 14.7618 13.8021C14.7616 13.8039 14.761 13.8056 14.7601 13.8071C14.7592 13.8086 14.758 13.8099 14.7566 13.8109C14.7552 13.8119 14.7536 13.8126 14.7519 13.813C14.75 13.8135 14.748 13.8135 14.7461 13.813H14.7074L14.7205 13.8453L14.736 13.8403C14.7499 13.8399 14.7636 13.8437 14.7754 13.8514C14.7873 13.859 14.7968 13.8701 14.8027 13.8832C14.8059 13.8895 14.8076 13.8964 14.8076 13.9035C14.8076 13.9105 14.8059 13.9175 14.8027 13.9237C14.7975 13.9296 14.7911 13.9341 14.784 13.9369C14.7768 13.9397 14.7692 13.9408 14.7616 13.9399C14.7547 13.9404 14.7479 13.9393 14.7415 13.9364C14.7352 13.9336 14.7297 13.9292 14.7253 13.9237C14.7253 13.9181 14.7253 13.905 14.7306 13.9075C14.736 13.91 14.7485 13.9131 14.7485 13.9237C14.7485 13.9343 14.7616 13.9262 14.7669 13.9262C14.769 13.9264 14.771 13.9261 14.773 13.9253C14.7749 13.9245 14.7767 13.9233 14.7782 13.9218C14.7796 13.9203 14.7808 13.9184 14.7815 13.9164C14.7822 13.9144 14.7825 13.9122 14.7824 13.91C14.7819 13.8972 14.7773 13.8849 14.7693 13.8752C14.7662 13.8695 14.7617 13.8648 14.7562 13.8615C14.7508 13.8582 14.7446 13.8565 14.7384 13.8565H14.7152C14.7074 13.8565 14.7074 13.8484 14.705 13.8428C14.6982 13.8261 14.692 13.8089 14.6866 13.7923C14.6866 13.7923 14.6895 13.7867 14.692 13.7897L14.6891 13.7917ZM14.867 13.8185C14.8617 13.8079 14.8564 13.7943 14.8438 13.7917C14.8312 13.7892 14.8254 13.7862 14.8331 13.7806H14.8747C14.8926 13.775 14.9117 13.7761 14.9289 13.7837C14.9486 13.7899 14.9663 13.8018 14.98 13.8179C14.9936 13.8341 15.0027 13.8539 15.0062 13.8752C15.0073 13.883 15.0062 13.8911 15.0029 13.8983C14.9996 13.9055 14.9944 13.9115 14.9879 13.9156C14.9689 13.9259 14.9472 13.9297 14.926 13.9262L14.8926 13.9318C14.8849 13.9318 14.8825 13.9181 14.8926 13.9181C14.9028 13.9181 14.9004 13.9075 14.8979 13.8994L14.867 13.8185ZM14.9182 13.8832C14.9236 13.8939 14.926 13.905 14.9337 13.91C14.9415 13.9151 14.9492 13.9131 14.9598 13.91C14.9705 13.907 14.9753 13.8969 14.9753 13.8858C14.9744 13.8655 14.9681 13.8458 14.9569 13.8292C14.9519 13.8199 14.9449 13.812 14.9366 13.8059C14.9282 13.7999 14.9186 13.7959 14.9086 13.7943C14.9001 13.7928 14.8914 13.7928 14.8829 13.7943V13.8024L14.9182 13.8832ZM15.0836 13.77C15.0914 13.77 15.0938 13.7781 15.0962 13.7837C15.0986 13.7892 15.1015 13.7968 15.1039 13.8049C15.0991 13.813 15.0914 13.8049 15.0885 13.7968C15.0856 13.7887 15.0807 13.7837 15.073 13.7837C15.0619 13.7827 15.0507 13.7827 15.0396 13.7837C15.0343 13.7887 15.0396 13.7968 15.0396 13.7998L15.0551 13.8372C15.0624 13.8383 15.0698 13.8365 15.0759 13.8322C15.0807 13.8266 15.0706 13.813 15.0807 13.816C15.0909 13.819 15.0885 13.8292 15.0914 13.8372L15.1039 13.8671C15.1015 13.8777 15.0914 13.8671 15.0885 13.859C15.0856 13.8509 15.0759 13.8509 15.0681 13.8509C15.0604 13.8509 15.0575 13.8509 15.0628 13.8565L15.0783 13.8969C15.0836 13.9075 15.0962 13.905 15.1039 13.905C15.1117 13.905 15.1247 13.905 15.13 13.8969C15.1354 13.8888 15.1247 13.8807 15.13 13.8752C15.1317 13.8751 15.1335 13.8754 15.135 13.8761C15.1366 13.8767 15.1381 13.8777 15.1393 13.879C15.1405 13.8803 15.1414 13.8819 15.1419 13.8835C15.1425 13.8852 15.1427 13.887 15.1426 13.8888L15.1503 13.9156C15.1503 13.9181 15.1426 13.9156 15.1402 13.9156L15.0604 13.9212C15.0527 13.9212 15.042 13.9262 15.0372 13.9212C15.0319 13.9075 15.0498 13.9131 15.0527 13.905L15.0449 13.8807L15.0164 13.8024C15.0143 13.7979 15.0114 13.794 15.0078 13.7908C15.0043 13.7876 15.0001 13.7851 14.9956 13.7837C14.9908 13.7837 14.9801 13.7837 14.9855 13.7725H15.0111L15.0836 13.77ZM14.382 14.1557C14.382 14.1689 14.3975 14.1744 14.4076 14.177C14.429 14.1808 14.4489 14.1912 14.4647 14.2068C14.4727 14.2177 14.4771 14.231 14.4773 14.2447C14.4765 14.2515 14.4735 14.2578 14.4688 14.2627C14.4642 14.2675 14.4581 14.2706 14.4516 14.2715C14.4371 14.276 14.4216 14.2751 14.4076 14.269C14.4028 14.2659 14.4076 14.2796 14.3975 14.274C14.3873 14.2685 14.3922 14.2609 14.3873 14.2528C14.3853 14.2435 14.3827 14.2344 14.3796 14.2255C14.3796 14.2174 14.3897 14.2255 14.3922 14.231C14.3963 14.2391 14.4022 14.2461 14.4095 14.2513C14.4167 14.2565 14.425 14.2598 14.4337 14.2609C14.4439 14.2609 14.4541 14.2553 14.4541 14.2447C14.4536 14.2379 14.4515 14.2314 14.448 14.2257C14.4444 14.2201 14.4395 14.2155 14.4337 14.2123C14.4159 14.2067 14.3986 14.1994 14.382 14.1906C14.3747 14.1862 14.3685 14.18 14.364 14.1725C14.3596 14.165 14.3569 14.1564 14.3564 14.1476C14.3569 14.1419 14.3592 14.1365 14.3628 14.1321C14.3665 14.1278 14.3713 14.1247 14.3767 14.1234C14.3902 14.1188 14.4048 14.1188 14.4183 14.1234C14.4231 14.1234 14.426 14.1153 14.4337 14.1203C14.4334 14.1232 14.4336 14.1262 14.4345 14.129C14.4353 14.1318 14.4367 14.1343 14.4386 14.1365L14.4463 14.1608C14.4453 14.1619 14.444 14.1627 14.4426 14.163C14.4412 14.1633 14.4397 14.1632 14.4384 14.1627C14.437 14.1622 14.4359 14.1612 14.435 14.16C14.4342 14.1587 14.4338 14.1572 14.4337 14.1557C14.426 14.1446 14.4183 14.134 14.4076 14.134C14.397 14.134 14.3873 14.134 14.382 14.1421V14.1557ZM14.5522 14.1097C14.5624 14.1097 14.5624 14.1178 14.5653 14.1234C14.566 14.131 14.5687 14.1383 14.573 14.1446C14.5677 14.1527 14.5599 14.1446 14.5575 14.1395C14.556 14.1357 14.5535 14.1323 14.5503 14.1299C14.547 14.1275 14.5431 14.1261 14.5392 14.1259H14.5082C14.5034 14.1315 14.5082 14.1365 14.5082 14.1421L14.5213 14.18C14.5249 14.1806 14.5286 14.1804 14.5322 14.1794C14.5358 14.1785 14.5391 14.1768 14.5421 14.1744C14.5469 14.1689 14.5367 14.1582 14.5445 14.1557C14.5522 14.1532 14.5546 14.1663 14.5575 14.1744C14.56 14.1867 14.5642 14.1984 14.5701 14.2093C14.5653 14.2174 14.5546 14.2093 14.5546 14.2012C14.5528 14.1974 14.5498 14.1945 14.546 14.193C14.5422 14.1915 14.5381 14.1915 14.5343 14.1931C14.529 14.1931 14.5237 14.1931 14.5266 14.1987L14.5421 14.2391C14.5445 14.2472 14.5522 14.2472 14.5599 14.2472C14.5709 14.2487 14.5819 14.2458 14.5909 14.2391C14.5962 14.2336 14.5909 14.223 14.5909 14.2174C14.5923 14.2163 14.594 14.2156 14.5958 14.2154C14.5976 14.2152 14.5994 14.2156 14.601 14.2164C14.6026 14.2173 14.604 14.2186 14.6049 14.2202C14.6059 14.2218 14.6064 14.2236 14.6064 14.2255L14.6117 14.2528C14.6117 14.2578 14.6039 14.2578 14.601 14.2578L14.5237 14.2634C14.5135 14.2634 14.5034 14.2715 14.4981 14.2634C14.4927 14.2553 14.5111 14.2553 14.5135 14.2472C14.5143 14.2395 14.5124 14.2318 14.5082 14.2255L14.4826 14.1446C14.4821 14.14 14.48 14.1358 14.4767 14.1328C14.4734 14.1298 14.4691 14.1283 14.4647 14.1284C14.4594 14.1284 14.4492 14.1234 14.4541 14.1178H14.4802L14.5522 14.1097ZM14.6605 14.223C14.6615 14.2271 14.6634 14.231 14.6661 14.2342C14.6688 14.2375 14.6722 14.24 14.676 14.2417C14.6837 14.2417 14.6939 14.2391 14.6968 14.2472C14.6997 14.2553 14.6837 14.2528 14.6784 14.2528C14.6648 14.251 14.651 14.251 14.6373 14.2528C14.632 14.2528 14.6243 14.2583 14.6218 14.2528C14.6194 14.2472 14.6349 14.2472 14.6373 14.2417V14.2204L14.6112 14.1395C14.6064 14.1315 14.6035 14.1203 14.5933 14.1203C14.5832 14.1203 14.5778 14.1203 14.5803 14.1097C14.5827 14.0991 14.5933 14.1097 14.5986 14.1097C14.6173 14.1065 14.6362 14.1046 14.6552 14.1042C14.6646 14.1049 14.6737 14.1083 14.6814 14.114C14.6892 14.1197 14.6953 14.1275 14.6992 14.1365C14.7016 14.1421 14.7029 14.1481 14.7029 14.1542C14.7029 14.1603 14.7016 14.1663 14.6992 14.1719C14.686 14.181 14.6709 14.1865 14.6552 14.1881C14.6499 14.1881 14.6552 14.1931 14.6552 14.1962L14.6629 14.223H14.6605ZM14.6475 14.1724H14.6629C14.6667 14.1713 14.6699 14.1688 14.6719 14.1653C14.6739 14.1618 14.6745 14.1576 14.6736 14.1537C14.6725 14.1418 14.668 14.1305 14.6605 14.1213C14.6566 14.118 14.6519 14.1157 14.6469 14.1147C14.642 14.1137 14.6368 14.1141 14.632 14.1158C14.6272 14.1183 14.632 14.1239 14.632 14.1294L14.645 14.1724H14.6475ZM14.8051 14.2128C14.8051 14.2184 14.8099 14.229 14.8177 14.229C14.8254 14.229 14.836 14.229 14.836 14.2371C14.836 14.2452 14.823 14.2427 14.8177 14.2427C14.804 14.2409 14.7902 14.2409 14.7766 14.2427C14.7713 14.2427 14.7635 14.2427 14.7635 14.2346C14.7635 14.2265 14.7819 14.2346 14.7819 14.224L14.7742 14.1916L14.748 14.1133C14.748 14.1052 14.7379 14.1052 14.7302 14.1077C14.7224 14.1102 14.7147 14.1077 14.7123 14.1158V14.1375C14.7069 14.1431 14.7016 14.1375 14.7016 14.1294C14.6992 14.1201 14.6958 14.1112 14.6915 14.1026C14.6915 14.0946 14.6992 14.0946 14.7045 14.0946L14.8099 14.089C14.8117 14.0889 14.8134 14.0892 14.815 14.0899C14.8166 14.0905 14.8181 14.0915 14.8193 14.0928C14.8205 14.0941 14.8215 14.0956 14.8221 14.0973C14.8228 14.099 14.8231 14.1008 14.823 14.1026L14.8331 14.1294C14.8307 14.135 14.8206 14.1294 14.8206 14.1239C14.8178 14.1187 14.8141 14.1141 14.8096 14.1105C14.8051 14.1068 14.8 14.1042 14.7945 14.1026C14.7874 14.1022 14.7803 14.104 14.7742 14.1077L14.779 14.1239L14.8051 14.2103V14.2128ZM14.8593 14.1239C14.8564 14.1158 14.8539 14.1052 14.8438 14.1021C14.8336 14.0991 14.8283 14.1021 14.8283 14.0915C14.8283 14.0809 14.8385 14.0915 14.8438 14.0915L14.8921 14.086C14.8999 14.086 14.9047 14.0971 14.897 14.0971C14.8892 14.0971 14.8815 14.1021 14.8844 14.1102L14.897 14.1537L14.9153 14.2128C14.9153 14.2184 14.9231 14.2235 14.9279 14.2235C14.9328 14.2235 14.9463 14.2235 14.9434 14.2346H14.9255L14.8844 14.2396C14.8791 14.2396 14.8713 14.2346 14.8738 14.229C14.8762 14.2235 14.8892 14.229 14.8892 14.2184L14.8815 14.1861L14.8612 14.1239H14.8593ZM15.0087 14.0809C15.0164 14.0809 15.0164 14.089 15.0188 14.094L15.0241 14.1158C15.0217 14.1239 15.0111 14.1158 15.0111 14.1102C15.0102 14.1058 15.008 14.1019 15.0048 14.0989C15.0015 14.096 14.9975 14.0943 14.9932 14.094C14.983 14.094 14.9724 14.094 14.9622 14.094C14.9521 14.094 14.9622 14.1077 14.9622 14.1102L14.9753 14.1481C14.9825 14.1486 14.9896 14.1467 14.9956 14.1426C15.0009 14.1375 14.9908 14.1264 14.9985 14.1239C15.0062 14.1213 15.0087 14.1375 15.0087 14.1426L15.0217 14.178C15.0188 14.1861 15.0087 14.178 15.0087 14.1724C15.0087 14.1668 14.9956 14.1618 14.9879 14.1618C14.9801 14.1618 14.9753 14.1618 14.9801 14.1668L14.9932 14.2073C14.9938 14.2091 14.9947 14.2108 14.996 14.2122C14.9972 14.2136 14.9987 14.2148 15.0004 14.2155C15.0021 14.2163 15.0039 14.2167 15.0058 14.2166C15.0076 14.2166 15.0094 14.2162 15.0111 14.2154C15.0216 14.2164 15.0323 14.2147 15.042 14.2103C15.0474 14.2048 15.042 14.1941 15.0449 14.1861C15.0478 14.178 15.0575 14.1861 15.0575 14.1967C15.0575 14.2073 15.0623 14.2149 15.0652 14.2235C15.0681 14.2321 15.0575 14.229 15.0527 14.229L14.9753 14.2315C14.9676 14.2315 14.9569 14.2371 14.9492 14.2315C14.9415 14.226 14.9622 14.2235 14.9647 14.2184C14.9657 14.2148 14.966 14.211 14.9655 14.2073C14.9651 14.2035 14.964 14.1999 14.9622 14.1967L14.9366 14.1158C14.9363 14.1109 14.9342 14.1062 14.9308 14.1028C14.9274 14.0993 14.923 14.0973 14.9182 14.0971C14.9134 14.0971 14.9028 14.0915 14.9081 14.086H14.9342L15.0092 14.0809H15.0087ZM15.0604 14.1077C15.0594 14.1026 15.0568 14.0981 15.053 14.0947C15.0493 14.0913 15.0446 14.0893 15.0396 14.089C15.0319 14.0915 15.0266 14.0728 15.0396 14.0779H15.0783L15.0962 14.1021L15.1518 14.182V14.1739L15.1624 14.0769C15.1673 14.0713 15.1803 14.0769 15.1881 14.0713C15.1958 14.0657 15.2137 14.0713 15.2089 14.0824C15.1982 14.0824 15.1881 14.0875 15.1934 14.0986L15.2243 14.1957C15.2244 14.1981 15.2251 14.2005 15.2263 14.2026C15.2275 14.2047 15.2292 14.2065 15.2312 14.2078C15.2332 14.2091 15.2354 14.2099 15.2378 14.21C15.2401 14.2102 15.2425 14.2098 15.2446 14.2088C15.2524 14.2088 15.2524 14.225 15.2446 14.2224H15.1963C15.1885 14.2224 15.176 14.2224 15.1808 14.2144C15.1885 14.2144 15.2016 14.2088 15.1939 14.1982L15.1682 14.1117C15.1707 14.1148 15.1682 14.1198 15.1682 14.1229L15.1629 14.2037V14.225C15.1552 14.228 15.1523 14.225 15.1499 14.2169L15.0749 14.1158L15.0802 14.1239C15.0865 14.1504 15.0943 14.1766 15.1034 14.2022C15.1034 14.2128 15.1165 14.2154 15.1242 14.2154C15.132 14.2154 15.1267 14.229 15.1189 14.2265H15.0793C15.0779 14.2265 15.0765 14.2259 15.0755 14.2249C15.0745 14.2238 15.0739 14.2224 15.0739 14.2209C15.0739 14.2195 15.0745 14.218 15.0755 14.217C15.0765 14.216 15.0779 14.2154 15.0793 14.2154C15.0923 14.2154 15.0894 14.2022 15.0846 14.1941L15.0585 14.1052L15.0604 14.1077ZM15.2848 14.1294C15.2848 14.1345 15.2949 14.1294 15.2973 14.1294C15.2998 14.1294 15.3157 14.1294 15.3157 14.1183C15.3159 14.1122 15.3149 14.1062 15.3126 14.1006C15.3104 14.095 15.307 14.09 15.3027 14.086C15.2933 14.0804 15.2823 14.0786 15.2717 14.0809L15.2741 14.094L15.2848 14.1294ZM15.2973 14.1724L15.308 14.1992C15.3157 14.2048 15.3234 14.2022 15.3312 14.2022C15.3328 14.2022 15.3343 14.2018 15.3357 14.2011C15.3372 14.2003 15.3384 14.1992 15.3394 14.1979C15.3404 14.1966 15.341 14.1951 15.3414 14.1935C15.3417 14.1919 15.3417 14.1902 15.3413 14.1886C15.3418 14.1802 15.3398 14.1718 15.3357 14.1646C15.3315 14.1574 15.3254 14.1517 15.3181 14.1481C15.3097 14.1461 15.3009 14.1461 15.2925 14.1481V14.1562L15.2973 14.1724ZM15.249 14.1077C15.2485 14.1023 15.2469 14.0971 15.2442 14.0924C15.2416 14.0878 15.2379 14.0838 15.2335 14.0809C15.2282 14.0809 15.218 14.0809 15.218 14.0728C15.218 14.0647 15.2311 14.0728 15.2359 14.0698C15.259 14.0657 15.2825 14.0657 15.3056 14.0698C15.3147 14.0727 15.3228 14.0784 15.3288 14.0862C15.3348 14.0939 15.3385 14.1033 15.3394 14.1133C15.3389 14.1187 15.3369 14.1239 15.3336 14.1282C15.3303 14.1325 15.326 14.1357 15.321 14.1375C15.321 14.132 15.3317 14.1375 15.3341 14.1375C15.3477 14.1427 15.3588 14.1532 15.365 14.1668C15.3683 14.1726 15.37 14.1791 15.37 14.1858C15.37 14.1925 15.3683 14.199 15.365 14.2048C15.354 14.2135 15.3401 14.2173 15.3264 14.2154L15.2669 14.2184C15.2591 14.2184 15.2567 14.2048 15.2669 14.2073C15.277 14.2098 15.2775 14.1967 15.2722 14.1886L15.249 14.1077ZM15.3781 14.1021C15.3778 14.0967 15.3762 14.0914 15.3735 14.0867C15.3708 14.0821 15.3671 14.0781 15.3626 14.0753C15.3573 14.0753 15.3471 14.0753 15.3471 14.0673C15.3471 14.0592 15.3626 14.0673 15.3728 14.0647H15.4245C15.4346 14.0654 15.4442 14.0694 15.452 14.0761C15.4598 14.0828 15.4654 14.0919 15.468 14.1021C15.4703 14.1077 15.4707 14.1138 15.4693 14.1197C15.4679 14.1255 15.4648 14.1307 15.4603 14.1345L15.4477 14.14C15.4628 14.1462 15.4755 14.1576 15.4835 14.1724L15.4966 14.1941C15.5043 14.1992 15.5043 14.1911 15.5043 14.1861C15.5144 14.1805 15.5198 14.1941 15.5144 14.2022C15.5091 14.2103 15.4966 14.2154 15.4888 14.2128C15.4811 14.2103 15.4733 14.2048 15.468 14.1967L15.4424 14.1507C15.4394 14.1477 15.4356 14.1456 15.4315 14.1447C15.4274 14.1438 15.4231 14.1441 15.4192 14.1456V14.1588L15.4322 14.1886C15.4347 14.1992 15.4448 14.1992 15.4526 14.2022C15.4603 14.2053 15.4632 14.2154 15.4526 14.2128H15.4042C15.3994 14.2128 15.3887 14.2184 15.3863 14.2128C15.381 14.1992 15.3965 14.2048 15.4018 14.1967L15.3965 14.1749L15.3781 14.1021ZM15.4115 14.1294C15.4139 14.1345 15.4269 14.1294 15.4322 14.1294C15.4339 14.1295 15.4355 14.1292 15.4369 14.1285C15.4384 14.1277 15.4397 14.1267 15.4407 14.1253C15.4417 14.124 15.4424 14.1224 15.4427 14.1208C15.443 14.1191 15.4429 14.1174 15.4424 14.1158C15.4425 14.1028 15.4378 14.0904 15.4293 14.0809C15.4255 14.0785 15.4213 14.0769 15.4169 14.0764C15.4124 14.0759 15.4079 14.0764 15.4037 14.0779C15.3984 14.0779 15.4013 14.086 15.4037 14.0915L15.4115 14.1264V14.1294ZM15.5918 14.0592C15.5971 14.0592 15.5995 14.0673 15.5995 14.0728C15.5995 14.0784 15.6049 14.086 15.6073 14.094C15.6025 14.1021 15.5947 14.094 15.5947 14.089C15.5947 14.0839 15.587 14.0728 15.5763 14.0728C15.5652 14.0718 15.5541 14.0718 15.543 14.0728C15.5377 14.0753 15.543 14.0834 15.543 14.089L15.5531 14.1239H15.5739C15.5817 14.1183 15.5715 14.1052 15.5792 14.1021C15.587 14.0991 15.5894 14.1133 15.5894 14.1213C15.5917 14.1333 15.5951 14.145 15.5995 14.1562C15.5995 14.1643 15.587 14.1562 15.587 14.1507C15.587 14.1451 15.5763 14.1375 15.5686 14.14C15.5609 14.1426 15.556 14.1345 15.5584 14.14L15.5715 14.1861C15.5715 14.1941 15.5817 14.1941 15.5894 14.1941C15.6 14.1952 15.6107 14.1933 15.6203 14.1886C15.6281 14.183 15.6203 14.1724 15.6228 14.1668C15.6252 14.1613 15.6382 14.1668 15.6358 14.1749L15.6411 14.2022C15.6411 14.2073 15.6334 14.2073 15.6305 14.2073H15.5507C15.543 14.2073 15.5352 14.2128 15.5299 14.2073C15.5246 14.2017 15.5377 14.1992 15.5406 14.1941C15.5435 14.1891 15.5406 14.1805 15.5406 14.1749L15.5173 14.0915C15.5171 14.0871 15.5155 14.0828 15.5127 14.0794C15.5099 14.076 15.5061 14.0737 15.5019 14.0728C15.4941 14.0728 15.4864 14.0698 15.4888 14.0617H15.5144L15.5918 14.0592ZM14.7437 14.413C14.7408 14.4019 14.7384 14.3913 14.7282 14.3857C14.7181 14.3802 14.7098 14.3857 14.7152 14.3776C14.7205 14.3696 14.7306 14.3776 14.7408 14.3751C14.7613 14.3723 14.7821 14.3723 14.8027 14.3751C14.8181 14.3784 14.8325 14.3858 14.8443 14.3968C14.8561 14.4077 14.8649 14.4217 14.8699 14.4373C14.8736 14.4473 14.8751 14.4581 14.8741 14.4688C14.8732 14.4795 14.8699 14.4898 14.8646 14.499C14.8572 14.5066 14.8483 14.5125 14.8385 14.5162C14.8288 14.52 14.8184 14.5215 14.808 14.5207C14.7917 14.5197 14.7754 14.5216 14.7596 14.5263C14.7543 14.5288 14.7442 14.5232 14.749 14.5151C14.7567 14.5151 14.7674 14.5101 14.7645 14.502L14.7543 14.4616L14.7437 14.413ZM14.7848 14.4803C14.7867 14.4889 14.7901 14.4972 14.7949 14.5045C14.799 14.5065 14.8035 14.5075 14.808 14.5075C14.8125 14.5075 14.817 14.5065 14.8211 14.5045C14.8269 14.5036 14.8323 14.5008 14.8365 14.4964C14.8407 14.492 14.8434 14.4864 14.8443 14.4803C14.8463 14.4599 14.8426 14.4393 14.8336 14.4211C14.8306 14.4126 14.8254 14.4051 14.8186 14.3994C14.8117 14.3937 14.8036 14.39 14.7949 14.3888C14.7857 14.3867 14.7761 14.3867 14.7669 14.3888C14.764 14.3888 14.7669 14.3938 14.7669 14.3994L14.7848 14.4803ZM14.9681 14.3589C14.9758 14.3589 14.9758 14.367 14.9782 14.3726L14.9835 14.3969C14.9806 14.4019 14.9705 14.3969 14.9705 14.3913C14.9705 14.3857 14.9627 14.3751 14.955 14.3751C14.9439 14.3741 14.9327 14.3741 14.9216 14.3751C14.9163 14.3776 14.9216 14.3857 14.9216 14.3913C14.9226 14.4042 14.9252 14.417 14.9294 14.4292C14.9329 14.4298 14.9366 14.4296 14.9401 14.4287C14.9436 14.4277 14.9468 14.426 14.9497 14.4236C14.955 14.4181 14.9497 14.4075 14.955 14.4049C14.9603 14.4024 14.9627 14.4181 14.9652 14.4236C14.9676 14.4292 14.9729 14.4454 14.9729 14.4585C14.9729 14.4717 14.9603 14.4585 14.9603 14.4535C14.9603 14.4484 14.9497 14.4398 14.9419 14.4423C14.9342 14.4449 14.9294 14.4398 14.9342 14.4454C14.9356 14.4602 14.9392 14.4747 14.9448 14.4883C14.9448 14.4964 14.955 14.4964 14.9627 14.4964C14.9737 14.4979 14.9847 14.495 14.9937 14.4883C14.999 14.4828 14.9937 14.4722 14.999 14.4666C15.0043 14.4611 15.0092 14.4696 15.0092 14.4777C15.0085 14.487 15.0104 14.4963 15.0145 14.5045L15.0014 14.5071L14.924 14.5126C14.9163 14.5126 14.9086 14.5182 14.9008 14.5126C14.8931 14.5071 14.9033 14.502 14.911 14.502C14.9187 14.502 14.9163 14.4883 14.9163 14.4828L14.8955 14.3969C14.8931 14.3888 14.8878 14.3776 14.88 14.3776C14.8723 14.3776 14.8646 14.3751 14.8675 14.367L14.8931 14.3645L14.9681 14.3589ZM15.1354 14.4696C15.1356 14.4739 15.1373 14.4778 15.1401 14.4808C15.143 14.4838 15.1468 14.4856 15.1508 14.4858C15.1561 14.4883 15.1663 14.4858 15.1692 14.4939C15.1721 14.502 15.1586 14.499 15.1537 14.499L15.1097 14.502C15.102 14.502 15.0943 14.5045 15.0889 14.502C15.0836 14.4995 15.0841 14.4909 15.0918 14.4909C15.0955 14.4914 15.0993 14.4907 15.1025 14.4887C15.1057 14.4868 15.1083 14.4838 15.1097 14.4803V14.4585L15.0914 14.3832C15.0914 14.3751 15.0812 14.3751 15.0759 14.3751C15.0706 14.3751 15.0604 14.3807 15.058 14.3751C15.0556 14.3696 15.071 14.367 15.0759 14.364L15.1044 14.3534C15.1055 14.3532 15.1065 14.3533 15.1076 14.3536C15.1086 14.354 15.1095 14.3546 15.1102 14.3554C15.111 14.3562 15.1116 14.3571 15.1119 14.3582C15.1122 14.3592 15.1123 14.3604 15.1121 14.3615L15.1378 14.4722L15.1354 14.4696ZM15.2321 14.3807C15.2323 14.3753 15.2306 14.3699 15.2271 14.3659C15.2237 14.3618 15.2189 14.3593 15.2137 14.3589C15.206 14.3589 15.1958 14.3589 15.1934 14.367C15.1924 14.372 15.1928 14.3772 15.1946 14.382C15.1964 14.3868 15.1995 14.3909 15.2035 14.3938L15.2267 14.4075L15.2321 14.3913C15.2323 14.3889 15.2323 14.3866 15.2321 14.3842V14.3807ZM15.2524 14.4616C15.2524 14.4454 15.2398 14.4373 15.2267 14.4343C15.2214 14.4343 15.2166 14.4262 15.2137 14.4292C15.2098 14.4322 15.2067 14.4364 15.205 14.4411C15.2032 14.4458 15.2027 14.451 15.2035 14.456C15.2089 14.4722 15.2166 14.4828 15.2292 14.4828C15.234 14.4846 15.2393 14.4846 15.2441 14.4826C15.2489 14.4807 15.2529 14.4769 15.2553 14.4722C15.2562 14.4677 15.2562 14.463 15.2553 14.4585L15.2524 14.4616ZM15.2785 14.4535C15.2798 14.4602 15.279 14.4673 15.2762 14.4736C15.2735 14.4799 15.2688 14.485 15.263 14.4883C15.2553 14.4931 15.2466 14.4961 15.2377 14.497C15.2288 14.498 15.2198 14.4969 15.2113 14.4939C15.2035 14.4915 15.1966 14.4869 15.1912 14.4807C15.1857 14.4744 15.182 14.4668 15.1803 14.4585C15.1798 14.4518 15.1809 14.4451 15.1837 14.4389C15.1864 14.4328 15.1905 14.4276 15.1958 14.4236C15.1958 14.4236 15.206 14.4211 15.1958 14.4181C15.1889 14.416 15.1828 14.4118 15.1782 14.406C15.1737 14.4003 15.1709 14.3932 15.1702 14.3857C15.1677 14.3793 15.1676 14.3721 15.1701 14.3656C15.1725 14.3591 15.1772 14.3538 15.1832 14.3508C15.1947 14.3453 15.2076 14.3441 15.2198 14.3475C15.2321 14.3509 15.2427 14.3587 15.25 14.3696C15.2526 14.3745 15.254 14.3801 15.254 14.3857C15.254 14.3914 15.2526 14.397 15.25 14.4019L15.2345 14.4156C15.241 14.416 15.2473 14.4183 15.2527 14.4221C15.2582 14.4259 15.2626 14.4311 15.2654 14.4373C15.268 14.439 15.27 14.4415 15.2714 14.4443C15.2727 14.4471 15.2733 14.4503 15.2732 14.4535H15.2785ZM15.3607 14.4666C15.366 14.4666 15.3737 14.4666 15.3737 14.456C15.3762 14.456 15.3737 14.4398 15.3815 14.4423C15.3892 14.4449 15.3868 14.4504 15.3892 14.4585C15.3901 14.464 15.3896 14.4696 15.3879 14.4748C15.3861 14.48 15.3831 14.4847 15.3791 14.4883C15.3737 14.4939 15.366 14.4909 15.3583 14.4909H15.3143C15.3094 14.4909 15.3017 14.4964 15.2964 14.4909C15.2911 14.4853 15.2964 14.4777 15.2964 14.4722C15.3018 14.4579 15.3102 14.4451 15.321 14.4348C15.3322 14.4284 15.3406 14.4177 15.3442 14.4049C15.3452 14.3936 15.3425 14.3821 15.3365 14.3726C15.3348 14.3695 15.3325 14.3669 15.3297 14.3648C15.327 14.3627 15.3239 14.3612 15.3206 14.3604C15.3173 14.3596 15.3139 14.3595 15.3106 14.3601C15.3072 14.3608 15.304 14.3621 15.3012 14.364C15.2995 14.3647 15.2979 14.3657 15.2966 14.367C15.2953 14.3683 15.2943 14.3699 15.2935 14.3716C15.2928 14.3734 15.2924 14.3753 15.2924 14.3772C15.2924 14.3791 15.2928 14.3809 15.2935 14.3827C15.2983 14.3883 15.3089 14.3827 15.3114 14.3938C15.3138 14.4049 15.3114 14.41 15.3036 14.41C15.2971 14.41 15.2908 14.4076 15.2858 14.4032C15.2807 14.3988 15.2773 14.3928 15.2761 14.3861C15.2749 14.3794 15.276 14.3724 15.2792 14.3665C15.2823 14.3605 15.2874 14.3559 15.2935 14.3534C15.3069 14.3462 15.3223 14.3442 15.337 14.3478C15.3441 14.3505 15.3505 14.3548 15.3559 14.3604C15.3612 14.366 15.3654 14.3727 15.3679 14.3802C15.3711 14.3917 15.3703 14.4041 15.3655 14.415C15.3554 14.4343 15.337 14.4423 15.3215 14.4611C15.3201 14.4635 15.3194 14.4663 15.3194 14.4691C15.3194 14.472 15.3201 14.4748 15.3215 14.4772C15.3215 14.4691 15.3317 14.4717 15.3346 14.4717H15.3626L15.3607 14.4666ZM15.4642 14.456C15.4641 14.4601 15.4653 14.4641 15.4676 14.4674C15.4698 14.4708 15.473 14.4733 15.4767 14.4747C15.482 14.4747 15.4922 14.4747 15.4951 14.4803C15.498 14.4858 15.4874 14.4883 15.482 14.4883H15.4124C15.4071 14.4858 15.4124 14.4747 15.4177 14.4777C15.4215 14.4781 15.4252 14.4773 15.4284 14.4753C15.4317 14.4733 15.4342 14.4702 15.4356 14.4666V14.4454L15.4177 14.3696C15.4177 14.3615 15.41 14.3615 15.4047 14.3615C15.3994 14.3615 15.3892 14.367 15.3868 14.3615C15.3815 14.3483 15.3945 14.3508 15.3994 14.3483L15.4303 14.3372C15.4356 14.3372 15.438 14.3402 15.4409 14.3453L15.4613 14.456H15.4642Z" fill="#B07E09"/>
<path d="M14.7293 12.3115L14.6326 12.4359C14.6017 12.5759 14.681 12.6836 14.8313 12.7756C14.9522 12.8565 15.1795 12.8767 15.2515 12.8105L14.8966 12.4632L14.7293 12.3176V12.3115Z" fill="url(#paint9_radial_4275_16222)"/>
<path d="M15.4458 15.9513C15.4289 15.9286 15.412 15.9063 15.3946 15.8841C15.1705 16.2022 14.8827 16.4653 14.5513 16.655C14.9405 16.5372 15.1958 16.243 15.4458 15.9513ZM15.0435 16.9118C15.1889 16.6149 15.3454 16.3245 15.513 16.0408L15.4589 15.968C15.2708 16.2971 15.0464 16.6878 15.0464 16.9118H15.0435ZM16.1266 13.8246C16.1023 13.7039 16.0652 13.5864 16.0159 13.4743C15.7394 12.9868 15.351 12.579 14.8859 12.2878V12.2797H14.8936L14.8883 12.2772H14.9013L14.896 12.2691H14.9067L14.8989 12.2585H14.9091L14.9013 12.2504H14.9144L14.9067 12.2393H14.9168L14.9067 12.2312H14.9221L14.9091 12.2231H14.9221L14.9115 12.215L14.927 12.2095L14.9144 12.2014L14.9299 12.1933L14.9144 12.1827L14.9323 12.1771L14.9144 12.169L14.9299 12.1584H14.9091L14.9221 12.1392H14.9038L14.9115 12.1261H14.896L14.9038 12.1124H14.8859L14.8936 12.0962L14.8781 12.1074L14.8835 12.0882L14.8651 12.0993L14.868 12.0801L14.8549 12.0937V12.075L14.8419 12.0882V12.0695L14.8293 12.0856V12.0669L14.8187 12.0831L14.8138 12.0639L14.8061 12.0801L14.8008 12.0614L14.793 12.0831L14.7892 12.0588L14.7814 12.0806L14.7766 12.0614L14.7713 12.0775L14.7689 12.0644L14.7611 12.0831L14.7558 12.0644L14.7505 12.0856L14.7427 12.0669L14.7379 12.0887L14.7302 12.0695V12.0912L14.7195 12.075V12.0968L14.707 12.0806V12.0993L14.6963 12.0912L14.7016 12.1099L14.6886 12.1018L14.6939 12.121L14.6838 12.1129V12.1291H14.6736L14.6784 12.1397H14.6707L14.676 12.1503C14.6669 12.1809 14.6634 12.213 14.6659 12.2449C14.6659 12.2504 14.6813 12.2555 14.6838 12.261C14.6862 12.2666 14.6891 12.2772 14.6891 12.2772C14.6475 12.3475 14.6117 12.4011 14.6088 12.482C14.6398 12.439 14.676 12.3849 14.7224 12.3849C14.6992 12.4253 14.6891 12.5497 14.7147 12.5709L14.7355 12.5335C14.7339 12.5546 14.7374 12.5758 14.7457 12.5952L14.7713 12.5497C14.7692 12.5802 14.7745 12.6109 14.7868 12.6387C14.798 12.6216 14.812 12.6069 14.8283 12.5952C14.8209 12.6186 14.8173 12.6433 14.8177 12.668L14.8694 12.6007C14.8628 12.6414 14.8663 12.6832 14.8796 12.7221C14.8902 12.668 14.8951 12.6599 14.9183 12.6387C14.9159 12.6809 14.9177 12.7232 14.9236 12.765C14.9444 12.7195 14.9599 12.7246 14.9753 12.6953C14.9661 12.7369 14.9661 12.7801 14.9753 12.8217C14.9825 12.7929 14.9998 12.768 15.0237 12.7519C15.0237 12.811 15.0367 12.8025 15.0029 12.853C15.0352 12.8526 15.067 12.8443 15.0957 12.8287C15.0893 12.8561 15.0815 12.8831 15.0725 12.9096C15.0999 12.8913 15.1251 12.8696 15.1475 12.8449C15.1373 12.8828 15.1088 12.9202 15.1218 12.9556C15.1248 12.9398 15.1319 12.9251 15.1423 12.9131C15.1527 12.9012 15.166 12.8925 15.1808 12.8879C15.176 12.9071 15.1731 12.9475 15.1475 12.9662C15.2094 12.9718 15.235 12.9283 15.2659 12.8934C15.2637 12.9148 15.2662 12.9364 15.2735 12.9565C15.2807 12.9766 15.2924 12.9947 15.3075 13.0092C15.2998 12.9445 15.3124 12.9587 15.3409 12.9202C15.3507 12.9833 15.3818 13.0407 15.4284 13.082C15.4068 13.0419 15.4012 12.9945 15.4129 12.9501C15.4207 12.9905 15.4569 13.039 15.4647 13.0769C15.469 13.0391 15.4776 13.002 15.4903 12.9662C15.5096 13.0146 15.5219 13.0657 15.5266 13.1179C15.5398 13.0915 15.5494 13.0632 15.5551 13.034C16.0657 13.59 16.1789 14.2978 15.6218 15.0429C15.8206 14.9024 15.8723 14.6789 15.983 14.4868C15.8747 14.7396 15.8283 15.0181 15.6349 15.2254C15.8206 15.0586 15.8592 14.9049 15.97 14.7431C15.8441 15.1135 15.6724 15.4651 15.4593 15.789C15.5009 15.8355 15.5425 15.882 15.5831 15.9291L15.6866 15.743C15.9284 15.328 16.3234 14.732 16.1247 13.8261L16.1266 13.8246Z" fill="#448127"/>
<path d="M14.6621 12.2019C14.64 12.2064 14.6205 12.2199 14.6079 12.2393C14.629 12.2447 14.6505 12.2475 14.6722 12.2474C14.6775 12.2474 14.68 12.2393 14.68 12.2312L14.6751 12.2044C14.6751 12.1989 14.6596 12.2044 14.6543 12.2044H14.6621V12.2019Z" fill="#EAC102"/>
<path d="M14.606 12.2392L14.6316 12.2311C14.6418 12.2287 14.6521 12.227 14.6625 12.2261L14.6369 12.2342C14.6267 12.2362 14.6161 12.2382 14.606 12.2392Z" fill="#A08307"/>
<path d="M14.7781 12.2261C14.7896 12.2261 14.7989 12.2164 14.7989 12.2044C14.7989 12.1923 14.7896 12.1826 14.7781 12.1826C14.7666 12.1826 14.7573 12.1923 14.7573 12.2044C14.7573 12.2164 14.7666 12.2261 14.7781 12.2261Z" fill="black"/>
<path d="M14.7836 12.2093C14.7879 12.2093 14.7913 12.2058 14.7913 12.2016C14.7913 12.1973 14.7879 12.1938 14.7836 12.1938C14.7793 12.1938 14.7759 12.1973 14.7759 12.2016C14.7759 12.2058 14.7793 12.2093 14.7836 12.2093Z" fill="url(#paint10_radial_4275_16222)"/>
<path d="M15.0494 16.9036C15.0615 16.8637 15.0741 16.8243 15.0881 16.7848C15.1021 16.7454 15.1181 16.7055 15.1365 16.6666C15.1674 16.5882 15.2061 16.5149 15.2423 16.4401C15.2786 16.3653 15.3212 16.2915 15.3632 16.2187L15.4251 16.111L15.4899 16.0033L15.428 16.111C15.4072 16.1479 15.3864 16.1843 15.3661 16.2217L15.2472 16.4426C15.2088 16.5168 15.1727 16.5922 15.1389 16.6691C15.1229 16.7075 15.1074 16.7459 15.0905 16.7848C15.0736 16.8238 15.062 16.8637 15.0494 16.9036ZM14.562 16.6473C14.6055 16.6286 14.6486 16.6079 14.6911 16.5857C14.7337 16.5634 14.7709 16.5387 14.8096 16.5129C14.8893 16.4604 14.9651 16.4018 15.0364 16.3375C15.1067 16.2746 15.1731 16.2071 15.2351 16.1353C15.2673 16.0995 15.2983 16.0626 15.3279 16.0246L15.4155 15.9088C15.3879 15.9477 15.3594 15.9866 15.3304 16.0246C15.3013 16.0625 15.2694 16.1009 15.2375 16.1378C15.1758 16.2107 15.1096 16.2793 15.0393 16.343C14.9678 16.4064 14.8918 16.464 14.812 16.5154C14.7728 16.5402 14.7322 16.5634 14.6911 16.5857C14.65 16.6079 14.6055 16.6286 14.562 16.6473ZM15.5238 15.8577C15.5624 15.7986 15.5997 15.7384 15.635 15.6768L15.738 15.4938C15.7704 15.4311 15.8023 15.3679 15.8347 15.3047L15.9314 15.1161L15.8874 15.2107L15.839 15.3077C15.8081 15.3709 15.7762 15.4336 15.7423 15.4963C15.7085 15.559 15.6751 15.6191 15.6388 15.6798C15.6026 15.7405 15.5639 15.8001 15.5228 15.8577H15.5238ZM15.6785 15.1808C15.7219 15.1263 15.7616 15.0687 15.7974 15.0085C15.8337 14.9478 15.866 14.8846 15.8942 14.8194C15.9513 14.69 15.9946 14.5544 16.0233 14.415L16.0334 14.3614C16.0422 14.3079 16.0483 14.2539 16.0518 14.1996C16.0566 14.1286 16.0566 14.0573 16.0518 13.9863C16.0458 13.9154 16.0345 13.8451 16.0179 13.776C16.0024 13.7062 15.9817 13.6378 15.956 13.5713C15.9825 13.6369 16.0041 13.7045 16.0208 13.7735C16.0373 13.8434 16.0484 13.9146 16.0542 13.9863C16.0595 14.0582 16.0595 14.1303 16.0542 14.2022C16.0517 14.2563 16.0465 14.3103 16.0387 14.3639L16.0286 14.4145C15.9997 14.5538 15.9564 14.6894 15.8995 14.8189C15.869 14.8842 15.8346 14.9473 15.7965 15.008C15.7597 15.0681 15.7191 15.1257 15.6751 15.1803L15.6785 15.1808Z" fill="#34541F"/>
<path d="M15.6343 15.0247C15.6815 14.9772 15.7238 14.9247 15.7605 14.868C15.7968 14.8112 15.8291 14.7517 15.8572 14.69C15.8852 14.6284 15.9109 14.5652 15.9346 14.5015C15.9447 14.4691 15.9602 14.4368 15.9679 14.4044L15.9781 14.3802L15.9858 14.3559L16.0013 14.3054C16.0136 14.2368 16.0206 14.1673 16.0221 14.0976C16.0225 14.0282 16.0173 13.9588 16.0066 13.8903C15.9959 13.822 15.9812 13.7545 15.9626 13.6881C15.9437 13.6214 15.921 13.5557 15.8959 13.491C15.922 13.5557 15.9452 13.6214 15.9655 13.6881C15.9844 13.7544 15.9989 13.822 16.009 13.8903C16.02 13.9588 16.0251 14.0282 16.0245 14.0976C16.0248 14.1673 16.0188 14.2368 16.0066 14.3054L15.9911 14.3559L15.9834 14.3802L15.9732 14.4044L15.9394 14.5015C15.9152 14.5657 15.8886 14.6284 15.8596 14.6906C15.8316 14.7523 15.7993 14.8118 15.7629 14.8685C15.7255 14.9252 15.6824 14.9776 15.6343 15.0247Z" fill="#34541F"/>
<path d="M15.4824 15.8118C15.5158 15.7688 15.5443 15.7228 15.5753 15.6768L15.6236 15.6096L15.6676 15.5423C15.6952 15.4948 15.7213 15.4463 15.745 15.3967L15.8117 15.2481C15.8601 15.147 15.9021 15.0489 15.9408 14.9448C15.979 14.8424 16.0093 14.7369 16.0312 14.6294C16.0515 14.5212 16.067 14.4135 16.0796 14.3028C16.0897 14.1925 16.0897 14.0815 16.0796 13.9712C16.0685 13.8609 16.0452 13.7523 16.01 13.6477C15.9741 13.5443 15.9301 13.4442 15.8784 13.3484C15.9312 13.4439 15.976 13.5441 16.0124 13.6477C16.0478 13.7522 16.0712 13.8608 16.082 13.9712C16.0939 14.0814 16.0939 14.1926 16.082 14.3028C16.0719 14.411 16.0564 14.5212 16.0337 14.6294C16.0119 14.7377 15.9819 14.8441 15.9437 14.9473C15.9044 15.0484 15.8614 15.1495 15.8146 15.2506L15.7455 15.3952C15.7218 15.4458 15.6971 15.4933 15.6681 15.5408C15.6548 15.565 15.6402 15.5883 15.6241 15.6106L15.5757 15.6783L15.4829 15.8128L15.4824 15.8118Z" fill="#34541F"/>
<path d="M15.5545 15.8953L15.7353 15.5829C15.7937 15.4777 15.8486 15.3707 15.9002 15.2619C15.9519 15.1533 15.995 15.0405 16.0293 14.9247C16.0472 14.8655 16.0603 14.8089 16.0728 14.7498C16.0791 14.7189 16.0844 14.6886 16.0883 14.6578C16.1102 14.5071 16.1223 14.3551 16.1246 14.2028C16.1247 14.0818 16.1144 13.961 16.0936 13.8419C16.0725 13.7221 16.0379 13.6054 15.9906 13.4941C15.943 13.3831 15.8823 13.2788 15.8098 13.1837C15.8823 13.2788 15.943 13.3831 15.9906 13.4941C16.0388 13.6053 16.0742 13.722 16.0961 13.8419C16.1172 13.9609 16.1276 14.0817 16.127 14.2028C16.127 14.3245 16.1192 14.4461 16.1038 14.5668C16.1009 14.5976 16.0975 14.6279 16.0936 14.6588C16.0898 14.6896 16.084 14.7179 16.0782 14.7478C16.0661 14.8064 16.0516 14.865 16.0342 14.9227C16.0003 15.0394 15.9573 15.153 15.9055 15.2624C15.8538 15.3705 15.7943 15.4782 15.7377 15.5808C15.6812 15.6835 15.6188 15.7881 15.5574 15.8907L15.5545 15.8953ZM14.8379 12.3501H14.8737C14.9101 12.3576 14.9456 12.3693 14.9796 12.385C15.0245 12.4068 15.0668 12.4339 15.1058 12.4659C15.1454 12.4964 15.1826 12.5302 15.217 12.567C15.2329 12.5852 15.2484 12.6039 15.2653 12.6236L15.3137 12.6853C15.2985 12.665 15.2824 12.6453 15.2653 12.6261C15.2484 12.6074 15.2315 12.5897 15.2136 12.572C15.1802 12.5353 15.1439 12.5015 15.1053 12.4709C15.0662 12.4391 15.0239 12.412 14.9791 12.39C14.9348 12.3699 14.8878 12.3571 14.8398 12.3521L14.8379 12.3501Z" fill="#34541F"/>
<path d="M15.2604 12.6411C15.3079 12.672 15.3491 12.7124 15.3818 12.7599C15.3027 12.7407 15.2308 12.6974 15.1753 12.6355" fill="#448127"/>
<path d="M15.2604 12.6413C15.2846 12.6553 15.3072 12.6723 15.3276 12.6919C15.3489 12.7109 15.3679 12.7327 15.3841 12.7566L15.387 12.7647H15.3817C15.3614 12.7591 15.3416 12.752 15.3222 12.7434C15.3036 12.7358 15.2855 12.7267 15.2681 12.7161C15.232 12.6947 15.1993 12.6674 15.1714 12.6353C15.1998 12.6655 15.2324 12.6911 15.2681 12.7111C15.2847 12.721 15.3018 12.73 15.3193 12.7379C15.3386 12.7459 15.3585 12.7521 15.3788 12.7566V12.7621C15.3711 12.7499 15.3625 12.7382 15.3532 12.7273L15.3222 12.6949C15.3121 12.6853 15.3019 12.6762 15.2913 12.6676C15.2807 12.659 15.2691 12.6494 15.2575 12.6408L15.2604 12.6413Z" fill="#34541F"/>
<path d="M15.0854 12.615C15.0854 12.615 15.2711 12.7388 15.2968 12.75C15.2691 12.6913 15.2237 12.6439 15.1677 12.615" fill="#448127"/>
<path d="M15.0854 12.615L15.1909 12.6822C15.2175 12.6989 15.244 12.7151 15.2711 12.7328L15.2968 12.749V12.752C15.2895 12.7376 15.2809 12.7241 15.2711 12.7115L15.2426 12.6736C15.2315 12.6616 15.2194 12.6508 15.2063 12.6413L15.1677 12.617C15.1823 12.6235 15.1963 12.6316 15.2092 12.6413C15.247 12.6692 15.2778 12.7061 15.2992 12.749L15.3045 12.757L15.2968 12.7545L15.2426 12.7222L15.1909 12.6873C15.1556 12.6645 15.1203 12.6408 15.0854 12.617V12.615Z" fill="#34541F"/>
<path d="M15.1598 12.5547C15.1598 12.5547 15.2565 12.5982 15.2787 12.671C15.2787 12.671 15.1032 12.5951 15.0723 12.5547" fill="#448127"/>
<path d="M15.1598 12.5548C15.1859 12.5653 15.2104 12.58 15.2323 12.5982C15.2429 12.6078 15.2523 12.6186 15.2604 12.6306L15.2812 12.671V12.6761H15.2758L15.2246 12.6493L15.1704 12.6225C15.153 12.6129 15.1356 12.6033 15.1187 12.5927L15.0931 12.5765L15.0723 12.5548L15.0955 12.574L15.1211 12.5901L15.1728 12.6169C15.2077 12.6356 15.243 12.6538 15.2787 12.671H15.2758C15.2711 12.6581 15.2642 12.6461 15.2555 12.6356C15.2478 12.6241 15.239 12.6132 15.2294 12.6033C15.2077 12.5831 15.1835 12.5661 15.1574 12.5527L15.1598 12.5548Z" fill="#34541F"/>
<path d="M15.0132 12.6331C15.0132 12.6331 15.1834 12.7599 15.2351 12.7599C15.201 12.7048 15.1528 12.6608 15.0959 12.6331" fill="#448127"/>
<path d="M15.0132 12.6331C15.048 12.6574 15.0833 12.6807 15.1191 12.7034C15.1467 12.7201 15.1751 12.7353 15.2042 12.7489L15.2351 12.757V12.7626C15.2183 12.735 15.1983 12.7097 15.1757 12.6872L15.1394 12.6574C15.1265 12.6471 15.1128 12.6382 15.0983 12.6306C15.1268 12.6437 15.153 12.6618 15.1757 12.6842C15.2007 12.7059 15.2224 12.7314 15.24 12.76H15.2375C15.2261 12.7594 15.2148 12.7567 15.2042 12.7519C15.1945 12.7479 15.1849 12.7434 15.1757 12.7383C15.1573 12.7282 15.1394 12.7176 15.1215 12.7059C15.1036 12.6943 15.0852 12.6812 15.0673 12.6685C15.0494 12.6559 15.0316 12.6463 15.0132 12.6331Z" fill="#34541F"/>
<path d="M15.0132 12.6711C15.0132 12.6711 15.1012 12.752 15.1524 12.752C15.1182 12.6963 15.0701 12.6516 15.0132 12.6226" fill="#448127"/>
<path d="M15.0132 12.671C15.034 12.6882 15.0557 12.7044 15.078 12.7216L15.1138 12.7403C15.1261 12.7457 15.1391 12.7493 15.1524 12.7509L15.15 12.7539C15.1423 12.7407 15.1338 12.728 15.1244 12.716C15.1043 12.6903 15.0809 12.6677 15.0548 12.6488C15.0417 12.6392 15.0278 12.6311 15.0132 12.6245C15.0424 12.6363 15.0688 12.6546 15.0905 12.6781C15.1153 12.6991 15.1371 12.7236 15.1553 12.7509V12.7565H15.1524C15.1383 12.7553 15.1244 12.7517 15.1113 12.7458C15.0988 12.7394 15.0867 12.7321 15.0751 12.7241L15.0441 12.6998C15.0335 12.6912 15.0233 12.6821 15.0132 12.673V12.671Z" fill="#34541F"/>
<path d="M14.9663 12.4956C14.9663 12.4956 15.152 12.6331 15.1728 12.7084C15.1728 12.7084 15.0079 12.6275 14.9769 12.5871" fill="#448127"/>
<path d="M14.9663 12.4956C14.9866 12.5103 15.0064 12.5254 15.0258 12.5416C15.0451 12.5578 15.064 12.5735 15.0824 12.5922C15.1007 12.6089 15.1179 12.6268 15.1341 12.6457L15.1597 12.673L15.1781 12.7104V12.716L15.1728 12.7135L15.121 12.6862L15.0698 12.6594C15.0529 12.6493 15.0369 12.6382 15.0214 12.627C15.0127 12.621 15.004 12.6149 14.9958 12.6083C14.9891 12.6027 14.9831 12.5963 14.9779 12.5891L14.9982 12.6083C15.0234 12.6245 15.0495 12.6402 15.0756 12.6538C15.1099 12.673 15.1442 12.6907 15.1791 12.7079H15.1737C15.1692 12.6963 15.1632 12.6855 15.1558 12.6756C15.1486 12.6653 15.1409 12.6556 15.1326 12.6462L15.0795 12.5927C15.062 12.575 15.0437 12.5578 15.0253 12.5421C15.0069 12.5264 14.9861 12.5108 14.9658 12.4961L14.9663 12.4956Z" fill="#34541F"/>
<path d="M13.9353 16.3804C13.7732 16.4693 13.5922 16.5139 13.4092 16.5098C13.6669 16.2889 13.9193 16.2833 13.9353 16.3804ZM15.7355 16.5017C15.8694 16.6286 16.277 16.7175 16.3413 16.7014C16.0681 16.4127 15.7713 16.3834 15.7355 16.5017Z" fill="#406325"/>
<path d="M13.9353 16.3804C13.9174 16.2793 13.6645 16.2864 13.4092 16.5098C13.5773 16.4392 13.7547 16.3955 13.9353 16.3804ZM15.7379 16.4992C15.7742 16.3804 16.0681 16.4102 16.3413 16.7014C16.0319 16.5664 15.7742 16.483 15.7379 16.4992Z" fill="#67923D"/>
</g>
</g>
<defs>
<filter id="filter0_d_4275_16222" x="0" y="4" width="29.8823" height="24" filterUnits="userSpaceOnUse" color-interpolation-filters="sRGB">
<feFlood flood-opacity="0" result="BackgroundImageFix"/>
<feColorMatrix in="SourceAlpha" type="matrix" values="0 0 0 0 0 0 0 0 0 0 0 0 0 0 0 0 0 0 127 0" result="hardAlpha"/>
<feOffset dy="1"/>
<feGaussianBlur stdDeviation="1"/>
<feComposite in2="hardAlpha" operator="out"/>
<feColorMatrix type="matrix" values="0 0 0 0 0 0 0 0 0 0 0 0 0 0 0 0 0 0 0.5 0"/>
<feBlend mode="normal" in2="BackgroundImageFix" result="effect1_dropShadow_4275_16222"/>
<feBlend mode="normal" in="SourceGraphic" in2="effect1_dropShadow_4275_16222" result="shape"/>
</filter>
<radialGradient id="paint0_radial_4275_16222" cx="0" cy="0" r="1" gradientUnits="userSpaceOnUse" gradientTransform="translate(13.8259 14.6514) scale(0.422852 0.442072)">
<stop offset="0.2" stop-color="#F9F0AA"/>
<stop offset="1" stop-color="#B07E09"/>
</radialGradient>
<radialGradient id="paint1_radial_4275_16222" cx="0" cy="0" r="1" gradientUnits="userSpaceOnUse" gradientTransform="translate(14.1055 14.7849) scale(0.2811 0.294582)">
<stop offset="0.2" stop-color="#F9F0AA"/>
<stop offset="1" stop-color="#B07E09"/>
</radialGradient>
<radialGradient id="paint2_radial_4275_16222" cx="0" cy="0" r="1" gradientUnits="userSpaceOnUse" gradientTransform="translate(14.1543 14.6654) scale(0.251955 0.164948)">
<stop offset="0.2" stop-color="#F9F0AA"/>
<stop offset="1" stop-color="#B07E09"/>
</radialGradient>
<radialGradient id="paint3_radial_4275_16222" cx="0" cy="0" r="1" gradientUnits="userSpaceOnUse" gradientTransform="translate(14.1815 14.7491) scale(0.433234 0.452189)">
<stop offset="0.2" stop-color="#F9F0AA"/>
<stop offset="1" stop-color="#B07E09"/>
</radialGradient>
<linearGradient id="paint4_linear_4275_16222" x1="14.5053" y1="13.3358" x2="14.4632" y2="12.6073" gradientUnits="userSpaceOnUse">
<stop offset="0.2" stop-color="#B07E09" stop-opacity="0"/>
<stop offset="1" stop-color="#B07E09"/>
</linearGradient>
<linearGradient id="paint5_linear_4275_16222" x1="14.9175" y1="14.3455" x2="14.9851" y2="15.1511" gradientUnits="userSpaceOnUse">
<stop offset="0.2" stop-color="#B07E09" stop-opacity="0"/>
<stop offset="1" stop-color="#B07E09"/>
</linearGradient>
<radialGradient id="paint6_radial_4275_16222" cx="0" cy="0" r="1" gradientUnits="userSpaceOnUse" gradientTransform="translate(13.9832 13.1589) scale(0.327891 0.342739)">
<stop offset="0.2" stop-color="#F9F0AA"/>
<stop offset="1" stop-color="#B07E09"/>
</radialGradient>
<radialGradient id="paint7_radial_4275_16222" cx="0" cy="0" r="1" gradientUnits="userSpaceOnUse" gradientTransform="translate(14.0738 13.0963) scale(0.240023 0.260523)">
<stop offset="0.2" stop-color="#F9F0AA"/>
<stop offset="1" stop-color="#B07E09"/>
</radialGradient>
<linearGradient id="paint8_linear_4275_16222" x1="14.6647" y1="12.7442" x2="14.738" y2="13.6364" gradientUnits="userSpaceOnUse">
<stop offset="0.2" stop-color="#F9F0AA"/>
<stop offset="1" stop-color="#B07E09"/>
</linearGradient>
<radialGradient id="paint9_radial_4275_16222" cx="0" cy="0" r="1" gradientUnits="userSpaceOnUse" gradientTransform="translate(14.6073 12.2101) scale(0.00768822 0.00803768)">
<stop offset="0.3" stop-color="#A50A0A"/>
<stop offset="1" stop-color="#4C0505"/>
</radialGradient>
<radialGradient id="paint10_radial_4275_16222" cx="0" cy="0" r="1" gradientUnits="userSpaceOnUse" gradientTransform="translate(14.7227 12.1863) scale(0.00752739 0.00796204)">
<stop stop-color="white"/>
<stop offset="1" stop-color="white" stop-opacity="0"/>
</radialGradient>
</defs>
</svg>
